<?xml version="1.0" encoding="utf-8"?>
<!-- Generator: Adobe Illustrator 16.0.0, SVG Export Plug-In . SVG Version: 6.00 Build 0)  -->
<!DOCTYPE svg PUBLIC "-//W3C//DTD SVG 1.1//EN" "http://www.w3.org/Graphics/SVG/1.1/DTD/svg11.dtd">
<svg version="1.1" id="Layer_1" xmlns="http://www.w3.org/2000/svg" xmlns:xlink="http://www.w3.org/1999/xlink" x="0px" y="0px"
	 width="246px" height="503px" viewBox="0 0 246 503" enable-background="new 0 0 246 503" xml:space="preserve">
<g>
	<path fill-rule="evenodd" clip-rule="evenodd" fill="#65855B" d="M88.316,189.348c-6.383-9.675-11.036-23.111-11.256-37.658
		c-0.623-41.282,3.338-80.607-20.277-80.984c-23.614-0.378-18.591,45.699-17.247,84.731c1.329,38.532,20.966,70.199,46.967,83.23
		c-0.537,15.768-1.067,30.222-1.819,42.361c-4.942,79.842,9.778,197.264,9.778,197.264c3.533,12.615,34.82,9.462,36.979,3.771
		c5.265-54.242,5.499-94.629,7.284-154.949c0.172-5.81,0.576-13.268,1.132-22.016c47.903-14.837,59.723-35.272,65.377-88.208
		c5.988-56.061,7.623-107.582-16.517-103.419c-24.138,4.161-19.101,54.558-22.138,99.885c-1.734,25.879-13.479,37.212-23.239,42.176
		c2.58-36.098,5.469-78.912,6.549-118.692c1.681-61.832,6.057-113.612-14.551-114.132C100.18,21.819,91.839,109.312,88.316,189.348z
		"/>
	<path fill-rule="evenodd" clip-rule="evenodd" fill="#526F4B" d="M88.316,189.348c-0.229,4.498-0.615,11.008-1.152,10.235
		c-16.844-13.703-17.189-35.292-17.393-48.703c-3.051-41.282-1.813-70.876-12.448-72.346c-9.373-1.295-16.386,2.025-18.199,16.752
		c-2.054,16.691-0.302,39.416,0.412,60.151c1.329,38.53,20.966,70.199,46.967,83.23c-0.537,15.768-1.067,30.222-1.819,42.361
		c-4.942,79.842,9.778,197.264,9.778,197.264c2.589,11.404,25.644,9.329,32.383,7.007c0.675-53.974-1.254-80.573,1.612-143.596
		c0.264-5.799-0.764-28.398,6.542-42.275c22.8-10.017,46.206-18.98,57.823-46.579c3.712-8.824,4.525-19.79,5.935-32.989
		c5.821-54.497,7.326-101.923-12.738-98.02c-9.272,1.804-10.923,7.402-12.578,20.909c-2.405,19.609-2.496,47.666-4.16,70.61
		c-2.283,31.462-15.77,38.694-22.971,43.521c-3.341,1.352-3.858,1.76-5.392,2.011c-1.787,3.709-2.201,4.953-3.397,8.458
		c-4.259-7.684-5.005-28.711-4.599-36.91c1.489-30.074,3.207-64.029,5.352-93.329c4.518-61.689,11.188-94.968-9.419-95.488
		c-20.05-0.506-24.895,8.818-31.582,48.027C92.233,119.189,89.829,154.957,88.316,189.348z"/>
	<g>
		<path fill="#3B543D" d="M146.163,31.204c-3.518,47.461-22.647,314.589-18.258,453.554c-0.554,0.229-1.16,0.444-1.81,0.645
			C121.53,343.409,141.671,66.7,144.544,28.242C145.128,29.13,145.666,30.119,146.163,31.204z"/>
		<path fill="#3B543D" d="M135.386,22.71c-4.088,34.319-31.332,273.442-20.268,464.319c-0.609,0.015-1.221,0.019-1.834,0.011
			c-11.031-190.547,16.055-429.02,20.25-464.293c0.594-0.037,1.194-0.056,1.805-0.04L135.386,22.71z"/>
		<path fill="#3B543D" d="M124.95,25.346c-7.133,35.007-42.966,227.449-20.129,460.719c-0.648-0.154-1.28-0.329-1.892-0.523
			C80.566,256.002,114.901,66.083,122.796,26.75C123.5,26.238,124.217,25.765,124.95,25.346z"/>
		<path fill="#3B543D" d="M144.896,254.694c-2.277,3.1-5.351,9.049-7.711,15.938c-1.927,5.619-3.368,11.837-3.491,17.586
			l-0.003,0.122c-0.069,4.235,0.963,8.425,2.617,11.564c1.304,2.473,2.967,4.262,4.728,4.82c-0.393,0.126-0.781,0.251-1.179,0.373
			l-0.069,1.097c-1.97-0.899-3.74-2.86-5.099-5.437c-1.786-3.387-2.9-7.899-2.826-12.451v-0.003l0.002-0.122
			c0.129-5.975,1.607-12.379,3.584-18.146c2.436-7.106,5.648-13.285,8.033-16.511l-0.143,2.007
			C143.854,255.271,144.373,254.991,144.896,254.694z"/>
		<path fill="#3B543D" d="M88.646,184.399c-0.004,0.12-1.89,41.72-2.158,57.053h-0.08l0.095-2.784
			c-0.591-0.295-1.178-0.605-1.762-0.921c0.379-14.756,1.596-42.6,1.968-50.979c0.521,0.887,1.057,1.747,1.606,2.581
			c0.073-1.648,0.148-3.301,0.225-4.953L88.646,184.399z"/>
		<path fill="#3B543D" d="M137.361,266.141c0.098-0.011,34.364-3.168,38.094-57.517c1.204-17.559,1.534-33.042,1.812-46.224
			c0.477-22.483,0.815-38.373,5.171-46.422c1.081-0.732,2.249-1.324,3.506-1.775c-5.951,5.946-6.31,22.755-6.85,48.232
			c-0.28,13.241-0.611,28.789-1.812,46.311c-3.836,55.896-39.626,59.205-39.729,59.215L137.361,266.141z"/>
		<path fill="#3B543D" d="M133.238,281.73c0.111-0.032,38.688-10.941,47.168-35.322c3.008-8.651,5.165-25.164,6.696-43.3
			c2.829-33.497,3.509-72.46,3.509-77.879c0-4.104-0.327-6.868-0.85-8.956c-0.271-1.083-0.596-1.99-0.956-2.814
			c0.653-0.109,1.287-0.176,1.902-0.204c0.308,0.764,0.589,1.603,0.832,2.573c0.557,2.23,0.906,5.137,0.906,9.401
			c0,5.429-0.681,44.465-3.516,78.03c-1.542,18.262-3.726,34.925-6.796,43.751c-8.796,25.288-48.282,36.452-48.395,36.484
			L133.238,281.73z"/>
		<path fill="#3B543D" d="M135.113,297.934c0.157-0.047,54.781-16.3,60.639-58.906c2.399-17.455,3.829-35.62,4.625-52.06
			c1.172-24.175,0.978-44.614,0.496-53.594c-0.336-6.286-1.717-11.031-3.514-14.503c-1.265-2.442-2.725-4.242-4.162-5.5
			c1.268,0.185,2.447,0.56,3.538,1.121c0.791,1.015,1.552,2.189,2.25,3.54c1.904,3.676,3.363,8.67,3.716,15.249
			c0.482,9.017,0.679,29.53-0.496,53.774c-0.799,16.485-2.232,34.704-4.641,52.217c-6.019,43.778-61.76,60.364-61.92,60.411
			L135.113,297.934z"/>
		<path fill="#3B543D" d="M52.747,71.152c-2.442,2.924-6.091,9.792-5.167,56.45c0.539,27.205,2.825,44.968,6.318,57.599
			c3.472,12.552,8.143,20.027,13.478,26.696c10.659,13.323,18.534,16.471,18.556,16.48l-0.709,1.685
			c-0.024-0.011-8.316-3.33-19.273-17.025c-5.473-6.84-10.261-14.5-13.814-27.349c-3.531-12.766-5.841-30.674-6.383-58.051
			c-0.767-38.782,1.721-50.623,4.086-55.356C50.74,71.798,51.708,71.416,52.747,71.152z"/>
		<path fill="#3B543D" d="M58.216,70.786c-0.248,2.444-0.809,10.558,0.06,29.024c0.226,4.812,0.358,10.701,0.503,17.157
			c0.539,24.015,1.256,55.949,7.793,71.343c8.268,19.469,20.182,27.94,20.215,27.965l-1.082,1.477
			c-0.035-0.027-12.349-8.784-20.818-28.725c-6.672-15.713-7.395-47.854-7.937-72.025c-0.144-6.404-0.275-12.248-0.503-17.105
			c-0.856-18.209-0.327-26.498-0.065-29.185c0.134-0.001,0.265-0.008,0.4-0.005C57.274,70.713,57.749,70.745,58.216,70.786z"/>
		<path fill="#3B543D" d="M62.429,71.704c2.749,4.876,6.273,14.762,6.105,33.286c-0.135,14.955,0.348,29.792,1.347,42.631
			c0.974,12.529,2.439,23.12,4.293,30.011c3.702,13.75,13.436,21.641,13.463,21.665l-1.16,1.419
			c-0.029-0.023-10.216-8.284-14.073-22.609c-1.885-7.001-3.368-17.711-4.351-30.35c-1-12.85-1.483-27.739-1.347-42.783
			c0.19-20.908-4.253-30.303-6.81-33.967C60.786,71.173,61.628,71.409,62.429,71.704z"/>
	</g>
</g>
<path fill-rule="evenodd" clip-rule="evenodd" fill="#3B543D" d="M146.082,165.673l12.893,0.688
	c-4.062,1.906-8.125,3.816-12.187,5.723C145.487,170.303,145.091,167.917,146.082,165.673z"/>
<path fill-rule="evenodd" clip-rule="evenodd" fill="#3B543D" d="M43.818,172.09l-12.502-3.229c4.36-1.064,8.72-2.129,13.082-3.193
	C45.318,167.667,45.232,170.086,43.818,172.09z"/>
<path fill-rule="evenodd" clip-rule="evenodd" fill="#3B543D" d="M201.696,220.749l12.174,4.308
	c-4.437,0.681-8.874,1.362-13.309,2.042C199.818,225.025,200.111,222.624,201.696,220.749z"/>
<path fill-rule="evenodd" clip-rule="evenodd" fill="#3B543D" d="M93.083,452.995l-12.888-0.788
	c3.819,2.358,7.635,4.717,11.454,7.078C93.143,457.665,93.809,455.336,93.083,452.995z"/>
<path fill-rule="evenodd" clip-rule="evenodd" fill="#3B543D" d="M131.057,456.723l12.875-0.975
	c-3.783,2.415-7.567,4.827-11.35,7.243C131.064,461.393,130.364,459.073,131.057,456.723z"/>
<path fill-rule="evenodd" clip-rule="evenodd" fill="#3B543D" d="M206.168,145.339l12.66,2.544
	c-4.295,1.301-8.59,2.602-12.886,3.903C204.912,149.84,204.865,147.417,206.168,145.339z"/>
<path fill-rule="evenodd" clip-rule="evenodd" fill="#3B543D" d="M89.646,428.782l-9.349,8.906
	c4.326-1.193,8.653-2.383,12.981-3.576C93.109,431.919,91.857,429.844,89.646,428.782z"/>
<path fill-rule="evenodd" clip-rule="evenodd" fill="#3B543D" d="M135.631,379.13l7.868-10.235
	c-4.093,1.842-8.184,3.684-12.276,5.526C131.729,376.563,133.284,378.42,135.631,379.13z"/>
<path fill-rule="evenodd" clip-rule="evenodd" fill="#3B543D" d="M66.539,77.673l9.691-8.533c-1.566,4.208-3.132,8.412-4.7,12.619
	C69.355,81.397,67.4,79.967,66.539,77.673z"/>
<path fill-rule="evenodd" clip-rule="evenodd" fill="#3B543D" d="M147.82,88.419l12.659,2.544
	c-4.293,1.301-8.591,2.602-12.886,3.903C146.564,92.917,146.517,90.498,147.82,88.419z"/>
<path fill-rule="evenodd" clip-rule="evenodd" fill="#3B543D" d="M140.995,224.825l12.66,2.541
	c-4.295,1.305-8.593,2.605-12.888,3.907C139.738,229.323,139.692,226.903,140.995,224.825z"/>
<path fill-rule="evenodd" clip-rule="evenodd" fill="#3B543D" d="M135.049,313.455l12.66,2.545
	c-4.295,1.301-8.591,2.602-12.886,3.902C133.794,317.953,133.746,315.534,135.049,313.455z"/>
<path fill-rule="evenodd" clip-rule="evenodd" fill="#3B543D" d="M133.87,398.145l12.66,2.541c-4.295,1.301-8.59,2.605-12.886,3.906
	C132.615,402.642,132.567,400.219,133.87,398.145z"/>
<path fill-rule="evenodd" clip-rule="evenodd" fill="#3B543D" d="M147.402,122.296l12.913-0.086
	c-3.942,2.146-7.883,4.297-11.823,6.444C147.089,126.956,146.549,124.594,147.402,122.296z"/>
<path fill-rule="evenodd" clip-rule="evenodd" fill="#3B543D" d="M139.086,27.568l9.693-8.53c-1.566,4.204-3.134,8.411-4.7,12.615
	C141.905,31.292,139.95,29.865,139.086,27.568z"/>
<path fill-rule="evenodd" clip-rule="evenodd" fill="#3B543D" d="M109.842,45.856l-9.714-8.507c4.374,1.009,8.747,2.02,13.121,3.027
	C113.171,42.581,112.006,44.703,109.842,45.856z"/>
<path fill-rule="evenodd" clip-rule="evenodd" fill="#3B543D" d="M38.801,117.398l-12.334-3.82c4.405-0.857,8.811-1.713,13.217-2.57
	C40.509,113.051,40.31,115.466,38.801,117.398z"/>
<path fill-rule="evenodd" clip-rule="evenodd" fill="#3B543D" d="M99.412,98.059l-12.334-3.82c4.406-0.856,8.811-1.713,13.217-2.566
	C101.121,93.715,100.92,96.127,99.412,98.059z"/>
<path fill-rule="evenodd" clip-rule="evenodd" fill="#3B543D" d="M86.763,290.877l-12.502-3.229
	c4.362-1.064,8.722-2.129,13.082-3.196C88.263,286.454,88.177,288.873,86.763,290.877z"/>
<path fill-rule="evenodd" clip-rule="evenodd" fill="#3B543D" d="M91.591,351.434l-12.502-3.232
	c4.362-1.064,8.721-2.129,13.081-3.193C93.091,347.011,93.006,349.431,91.591,351.434z"/>
<path fill-rule="evenodd" clip-rule="evenodd" fill="#3B543D" d="M84.749,325.433l-12.502-3.229c4.36-1.064,8.72-2.129,13.08-3.193
	C86.249,321.01,86.163,323.429,84.749,325.433z"/>
<path fill-rule="evenodd" clip-rule="evenodd" fill="#3B543D" d="M186.276,270.881l12.895,0.688
	c-4.062,1.91-8.125,3.817-12.188,5.724C185.683,275.516,185.287,273.125,186.276,270.881z"/>
<path fill-rule="evenodd" clip-rule="evenodd" fill="#3B543D" d="M94.307,148.552l-12.502-3.232
	c4.36-1.064,8.719-2.129,13.079-3.193C95.805,144.13,95.72,146.549,94.307,148.552z"/>
<path fill-rule="evenodd" clip-rule="evenodd" fill="#3B543D" d="M134.716,345.013l12.893,0.692
	c-4.062,1.906-8.125,3.812-12.187,5.723C134.123,349.647,133.727,347.257,134.716,345.013z"/>
<path fill-rule="evenodd" clip-rule="evenodd" fill="#3B543D" d="M170.974,216.076l-10.981-6.795
	c4.48,0.276,8.96,0.552,13.439,0.832C173.717,212.295,172.918,214.581,170.974,216.076z"/>
<path fill-rule="evenodd" clip-rule="evenodd" fill="#3B543D" d="M182.081,120.014l-5.621-11.623
	c3.632,2.638,7.264,5.272,10.896,7.91C186.425,118.298,184.525,119.799,182.081,120.014z"/>
<path fill-rule="evenodd" clip-rule="evenodd" fill="#3B543D" d="M156.149,295.691l3.518,12.426
	c-3.12-3.229-6.238-6.455-9.355-9.684C151.574,296.627,153.707,295.48,156.149,295.691z"/>
<path fill-rule="evenodd" clip-rule="evenodd" fill="#3B543D" d="M207.611,191.746l9.376,1.821c-3.091,1.544-6.183,3.085-9.273,4.63
	C206.879,196.308,206.742,193.893,207.611,191.746z"/>
<path fill-rule="evenodd" clip-rule="evenodd" fill="#3B543D" d="M171.231,147.3l-7.311-6.143c3.451,0.151,6.902,0.305,10.354,0.456
	C174.087,143.669,173.032,145.845,171.231,147.3z"/>
<path fill-rule="evenodd" clip-rule="evenodd" fill="#3B543D" d="M160.793,248.516l-5.804-7.584c3.336,0.9,6.673,1.796,10.008,2.691
	C164.37,245.591,162.868,247.486,160.793,248.516z"/>
<path fill-rule="evenodd" clip-rule="evenodd" fill="#3B543D" d="M85.055,253.592l-7.693-5.659
	c3.453-0.071,6.908-0.144,10.361-0.215C87.671,249.782,86.759,252.022,85.055,253.592z"/>
<path fill-rule="evenodd" clip-rule="evenodd" fill="#3B543D" d="M171.609,197.907l-7.694-5.659
	c3.455-0.071,6.908-0.14,10.363-0.211C174.224,194.097,173.313,196.337,171.609,197.907z"/>
</svg>
