<?xml version="1.0" encoding="utf-8"?>
<!-- Generator: Adobe Illustrator 16.0.0, SVG Export Plug-In . SVG Version: 6.00 Build 0)  -->
<!DOCTYPE svg PUBLIC "-//W3C//DTD SVG 1.1//EN" "http://www.w3.org/Graphics/SVG/1.1/DTD/svg11.dtd">
<svg version="1.1" xmlns="http://www.w3.org/2000/svg" xmlns:xlink="http://www.w3.org/1999/xlink" x="0px" y="0px"
	 width="275.986px" height="253.488px" viewBox="0 0 275.986 253.488" enable-background="new 0 0 275.986 253.488"
	 xml:space="preserve">
<g id="Layer_3">
	<path fill="#A7B29B" d="M226.692,34.454c14.807,36.84,9.097,97.455,6.72,139.133c-3.295,57.806-55.595,51.088-106.532,48.394
		c-18.067-0.956-58.47,3.617-73.334-5.307c-20.925-12.565-13.11-42.006-14.227-64.416c-2.135-42.994-9.755-97.131,39.082-114.862
		c36.468-13.243,103.604-15.179,142.238-2.942"/>
	<g>
		<path fill="none" stroke="#716E6F" stroke-linecap="round" stroke-miterlimit="10" d="M100.747,60.142
			c-9.894,15.533-30.545,27.615-42.343,39.316"/>
		<path fill="none" stroke="#716E6F" stroke-linecap="round" stroke-miterlimit="10" d="M152.167,57.115
			c-20.889,10.403-29.586,33.012-46.041,47.876c-13.248,11.971-32.304,20.358-44.695,33.787"/>
		<path fill="none" stroke="#716E6F" stroke-linecap="round" stroke-miterlimit="10" d="M212.658,57.115
			c-26.756,2.118-60.787,49.874-79.312,68.735c-22.959,23.375-48.665,48.953-74.942,67.371"/>
		<path fill="none" stroke="#716E6F" stroke-linecap="round" stroke-miterlimit="10" d="M215.685,105.51
			c-32.632,27.088-70.672,67.323-96.791,99.812"/>
		<path fill="none" stroke="#716E6F" stroke-linecap="round" stroke-miterlimit="10" d="M212.658,159.953
			c-14.559,14.244-32.007,31.966-45.368,45.369"/>
	</g>
</g>
<g id="Layer_1">
	<polygon opacity="0.27" fill="#525252" points="157.468,209.956 77.468,209.956 90.354,191.385 170.667,191.385 	"/>
	<linearGradient id="SVGID_1_" gradientUnits="userSpaceOnUse" x1="137.0991" y1="161.6426" x2="137.0991" y2="49.5215">
		<stop  offset="0" style="stop-color:#FFDC00"/>
		<stop  offset="1" style="stop-color:#F9B233"/>
	</linearGradient>
	<polygon fill="url(#SVGID_1_)" stroke="#3C3C3B" stroke-width="2" stroke-miterlimit="10" points="185.079,161.643 89.119,161.643 
		97.968,49.521 176.23,49.521 	"/>
	<linearGradient id="SVGID_2_" gradientUnits="userSpaceOnUse" x1="137.0991" y1="161.6426" x2="137.0991" y2="191.3848">
		<stop  offset="0" style="stop-color:#FFDC00"/>
		<stop  offset="1" style="stop-color:#F9B233"/>
	</linearGradient>
	<polygon fill="url(#SVGID_2_)" stroke="#3C3C3B" stroke-width="2" stroke-miterlimit="10" points="176.23,191.385 97.968,191.385 
		89.119,161.643 185.079,161.643 	"/>
	<polygon fill="#575756" points="176.23,153.562 97.968,153.562 105.218,57.602 169.218,57.602 	"/>
	<polygon fill="#3C3C3B" points="173.011,153.562 176.23,153.562 169.218,57.602 105.218,57.602 104.991,60.602 166.218,60.602 	"/>
</g>
<g id="Layer_2">
	<g>
		<path fill="#7E8971" d="M99.323,108.73c-0.303-1.742,0.75-10.5,14.5-11.5s10.25,6,12.75,11.5s16.75,6.127,7.5,13.188
			s-11-0.312-25.25,0S100.323,114.48,99.323,108.73z"/>
		<g>
			<path fill="#575756" d="M99.226,108.746c-0.149-1.148,0.104-2.28,0.449-3.355c0.347-1.084,0.903-2.092,1.564-3.029
				c1.342-1.875,3.291-3.287,5.397-4.248c2.114-0.971,4.403-1.512,6.69-1.726c2.273-0.218,4.601-0.265,6.943,0.292
				c1.159,0.291,2.34,0.797,3.293,1.655c0.967,0.854,1.543,2.041,1.834,3.177c0.301,1.147,0.408,2.277,0.551,3.381
				c0.153,1.101,0.34,2.186,0.712,3.205c0.101,0.262,0.192,0.487,0.321,0.743c0.118,0.217,0.26,0.444,0.418,0.655
				c0.32,0.422,0.701,0.808,1.125,1.147c0.844,0.686,1.793,1.26,2.773,1.779l2.99,1.545c0.99,0.554,2.023,1.11,2.839,2.128
				c0.4,0.503,0.688,1.224,0.634,1.946c-0.043,0.722-0.34,1.342-0.673,1.871c-0.687,1.056-1.567,1.851-2.466,2.584
				c-1.777,1.424-3.783,2.806-6.258,3.289c-1.225,0.241-2.501,0.202-3.682-0.002c-1.186-0.203-2.293-0.529-3.371-0.841
				c-2.148-0.638-4.221-1.241-6.366-1.569c-2.142-0.375-4.292-0.477-6.515-0.485c-1.151-0.011-2.307-0.086-3.463-0.278
				c-1.154-0.181-2.318-0.488-3.416-1.042c-1.091-0.539-2.105-1.48-2.535-2.666c-0.441-1.175-0.396-2.377-0.276-3.5
				C98.991,113.156,99.566,110.955,99.226,108.746z M99.423,108.714c0.391,2.253-0.129,4.513-0.128,6.719
				c-0.003,1.096,0.104,2.204,0.565,3.098c0.451,0.9,1.279,1.488,2.229,1.835c1.935,0.675,4.157,0.647,6.316,0.595
				c2.25-0.13,4.59-0.021,6.871,0.304c2.284,0.349,4.531,0.978,6.648,1.685c2.122,0.695,4.146,1.326,6.109,0.983
				c1.966-0.326,3.863-1.426,5.621-2.694c0.863-0.637,1.699-1.323,2.309-2.101c0.617-0.795,0.812-1.616,0.271-2.406
				c-0.531-0.792-1.464-1.435-2.381-2.021c-0.93-0.594-1.915-1.129-2.889-1.696c-0.967-0.578-1.947-1.159-2.83-1.903
				c-0.439-0.372-0.859-0.777-1.227-1.24c-0.182-0.233-0.344-0.478-0.495-0.751c-0.128-0.241-0.255-0.532-0.358-0.791
				c-0.871-2.146-1.006-4.485-1.721-6.488c-0.355-0.995-0.895-1.859-1.671-2.437c-0.769-0.589-1.742-0.908-2.758-1.102
				c-2.046-0.383-4.252-0.298-6.429-0.164c-2.166,0.172-4.321,0.473-6.38,1.141c-2.048,0.668-3.988,1.771-5.45,3.407
				C100.208,104.305,99.249,106.521,99.423,108.714z"/>
		</g>
	</g>
	<g>
		<path fill="#A7B29B" d="M102.62,68.979c0.786-7.708-8.324-17.564,3.928-19.451c12.252-1.887,16.65-0.21,21.521-4.194
			c4.869-3.984,12.409-3.772,14.294,5.244c1.885,9.016,6.44,15.948-3.141,20.031c-9.583,4.083-18.852-0.558-26.391,1.134
			c-7.54,1.691-12.139-1.759-11.152-2.764"/>
		<path fill="#575756" d="M102.521,68.971c0.049-2.65-0.861-5.14-1.694-7.645c-0.423-1.257-0.856-2.526-1.153-3.87
			c-0.287-1.332-0.503-2.794-0.066-4.298c0.219-0.741,0.619-1.458,1.158-2.025c0.533-0.575,1.173-1.01,1.829-1.34
			c1.321-0.651,2.713-0.961,4.06-1.175c2.64-0.432,5.312-0.695,7.977-0.832c2.66-0.141,5.326-0.086,7.871-0.465
			c1.27-0.198,2.499-0.554,3.633-1.147c0.568-0.294,1.103-0.654,1.615-1.047c0.521-0.413,1.106-0.802,1.692-1.137
			c2.341-1.338,5.285-1.94,7.925-0.929c1.303,0.497,2.445,1.387,3.313,2.473c0.872,1.091,1.477,2.362,1.903,3.668
			c0.416,1.342,0.666,2.584,1.069,3.848l1.16,3.801c0.378,1.281,0.745,2.584,0.989,3.951c0.24,1.361,0.338,2.82,0.03,4.296
			c-0.298,1.477-1.111,2.883-2.187,3.907c-1.07,1.04-2.32,1.777-3.584,2.375c-2.528,1.192-5.309,1.802-8.055,1.969
			c-5.534,0.334-10.791-1.125-15.916-1.195c-1.303-0.002-2.495,0.122-3.826,0.376c-1.38,0.204-2.74,0.272-4.112,0.164
			c-1.366-0.098-2.722-0.4-3.984-0.935c-0.63-0.266-1.239-0.594-1.786-1.02c-0.271-0.214-0.527-0.458-0.727-0.758
			c-0.099-0.15-0.184-0.318-0.221-0.51c-0.043-0.188,0.018-0.429,0.172-0.56l0.143,0.14c-0.184,0.21-0.024,0.512,0.167,0.735
			c0.198,0.231,0.458,0.421,0.724,0.592c0.539,0.338,1.137,0.587,1.751,0.775c1.229,0.379,2.522,0.519,3.804,0.529
			c1.28,0.007,2.578-0.159,3.807-0.435c1.252-0.34,2.693-0.62,4.046-0.668c2.749-0.146,5.429,0.169,8.056,0.401
			c2.627,0.23,5.222,0.441,7.767,0.24c2.544-0.156,5.024-0.731,7.33-1.738c2.29-0.982,4.308-2.522,4.798-4.797
			c0.515-2.271-0.105-4.886-0.715-7.417c-0.322-1.276-0.66-2.565-0.95-3.872c-0.317-1.291-0.509-2.671-0.8-3.885
			c-0.324-1.233-0.811-2.427-1.539-3.458c-0.719-1.035-1.711-1.879-2.881-2.361c-2.355-1.003-5.16-0.463-7.345,0.858
			c-0.562,0.33-1.06,0.711-1.563,1.142c-0.52,0.44-1.078,0.837-1.664,1.197c-1.17,0.728-2.492,1.217-3.824,1.524
			c-2.678,0.593-5.342,0.733-7.962,1.033c-2.626,0.254-5.232,0.554-7.837,0.923c-1.27,0.176-2.502,0.443-3.576,0.949
			c-1.073,0.497-1.914,1.251-2.256,2.307c-0.354,1.053-0.297,2.323-0.093,3.578c0.21,1.261,0.538,2.537,0.856,3.826
			c0.327,1.286,0.628,2.597,0.824,3.931c0.198,1.328,0.279,2.704,0.047,4.029L102.521,68.971z"/>
	</g>
	<g>
		<path fill="#C6C6C6" d="M165.503,129.089c0,0-8.691,6.208-14.024-4.155c-5.333-10.364-5.866-10.074-4.062-23.06
			c1.805-12.984,7.315-9.474,11.396-10.582c4.082-1.109,10.287,6.958,9.144,15.149C166.813,114.632,176.479,129.206,165.503,129.089
			z"/>
		<g>
			<path fill="#575756" d="M165.533,129.189c-0.865,0.694-1.848,1.224-2.896,1.622c-1.057,0.399-2.198,0.656-3.37,0.642
				c-2.364,0.038-4.697-1.167-6.269-2.89c-0.805-0.854-1.471-1.81-2.043-2.806l-1.559-2.917c-1.024-1.939-2.07-3.891-2.812-6.068
				c-0.751-2.192-0.85-4.581-0.628-6.784c0.214-2.223,0.601-4.386,0.92-6.56c0.314-2.168,0.612-4.37,1.278-6.507
				c0.337-1.064,0.761-2.122,1.396-3.096c0.629-0.968,1.563-1.824,2.691-2.278c1.121-0.472,2.315-0.574,3.416-0.646
				c1.124-0.079,2.117-0.109,3.1-0.412c1.413-0.337,2.729,0.15,3.77,0.761c1.062,0.629,1.922,1.466,2.682,2.358
				c1.505,1.801,2.581,3.898,3.258,6.124c0.677,2.213,0.868,4.647,0.539,6.925c-0.273,1.96,0.089,4.08,0.486,6.187
				c0.418,2.114,0.963,4.24,1.386,6.423c0.219,1.09,0.39,2.201,0.474,3.335c0.075,1.131,0.083,2.304-0.238,3.466
				c-0.28,1.167-1.154,2.256-2.261,2.708C167.767,129.239,166.623,129.276,165.533,129.189z M165.504,128.989
				c1.081-0.083,2.174-0.274,3.056-0.788c0.886-0.518,1.398-1.389,1.569-2.368c0.329-1.994-0.265-4.138-0.786-6.213
				c-0.561-2.092-1.217-4.188-1.743-6.358c-0.517-2.163-0.959-4.437-0.713-6.854c0.298-2.068,0.103-4.101-0.425-6.102
				c-0.534-1.985-1.446-3.899-2.709-5.505c-0.629-0.8-1.36-1.514-2.16-2.053c-0.791-0.537-1.707-0.86-2.472-0.713
				c-1.141,0.293-2.368,0.258-3.43,0.232c-1.082-0.02-2.119-0.003-3.062,0.306c-1.909,0.6-3.153,2.553-3.83,4.564
				c-0.724,2.034-1.024,4.205-1.28,6.379c-0.254,2.174-0.447,4.364-0.451,6.524c-0.022,2.167,0.266,4.242,1.082,6.167
				c0.779,1.943,1.843,3.856,2.817,5.816l1.478,2.919c0.486,0.923,1.037,1.81,1.705,2.583c1.308,1.567,3.11,2.672,5.17,2.864
				c2.049,0.209,4.218-0.363,6.125-1.382l0.03-0.016L165.504,128.989z"/>
		</g>
	</g>
	<g>
		<path fill="#A7B29B" d="M152.646,134.836c0,0-2.986-15.226,7.564-12.979c10.55,2.247,14.311,1.03,16.1,8.096
			c1.788,7.065-1.497,11.037,0.006,16.451c1.503,5.413-4.441,10.412-12.652,8.199c-8.211-2.212-24.203-5.462-23.191-11.423
			c1.013-5.961,0.851-11.493,3.604-11.969C146.831,130.735,151.492,138.667,152.646,134.836z"/>
		<g>
			<path fill="#575756" d="M152.542,134.826c-0.324-1.253-0.517-2.533-0.619-3.829c-0.1-1.305-0.113-2.633,0.092-3.962
				c0.199-1.321,0.586-2.682,1.442-3.86c0.829-1.191,2.241-2.04,3.685-2.242c0.719-0.114,1.438-0.117,2.133-0.052
				c0.709,0.065,1.371,0.215,1.98,0.326c1.254,0.243,2.516,0.457,3.785,0.659c1.27,0.196,2.543,0.401,3.834,0.651
				c1.289,0.248,2.605,0.563,3.897,1.178c1.298,0.605,2.43,1.731,3.052,2.993c0.643,1.255,0.963,2.577,1.195,3.863
				c0.48,2.647,0.25,5.321-0.211,7.867c-0.443,2.536-0.925,5.104-0.253,7.547c0.399,1.226,0.523,2.695,0.134,4.019
				c-0.375,1.336-1.191,2.529-2.23,3.435c-2.09,1.833-4.939,2.599-7.65,2.495c-1.352-0.03-2.746-0.297-3.986-0.621l-3.756-0.907
				c-5.013-1.263-10.115-2.401-14.914-4.899c-1.181-0.663-2.359-1.412-3.364-2.525c-0.491-0.561-0.948-1.231-1.184-2.045
				c-0.12-0.402-0.176-0.833-0.163-1.258c0.005-0.213,0.031-0.421,0.064-0.628l0.088-0.474c0.462-2.492,0.699-5.053,1.275-7.661
				c0.154-0.653,0.32-1.312,0.603-1.969c0.276-0.646,0.651-1.341,1.339-1.851c0.353-0.251,0.734-0.412,1.199-0.476
				c0.414-0.057,0.881,0.045,1.222,0.184c0.71,0.292,1.249,0.715,1.767,1.139c1.027,0.853,1.889,1.818,2.83,2.669
				c0.468,0.414,0.961,0.838,1.5,1.031c0.267,0.089,0.53,0.095,0.744-0.074C152.284,135.388,152.431,135.109,152.542,134.826z
				 M152.741,134.865c-0.08,0.319-0.188,0.655-0.455,0.927c-0.267,0.288-0.73,0.349-1.074,0.257
				c-0.707-0.178-1.253-0.58-1.791-0.957c-1.061-0.778-2.033-1.639-3.043-2.372c-0.504-0.357-1.033-0.689-1.539-0.846
				c-0.506-0.164-0.885-0.052-1.234,0.238c-0.688,0.611-0.977,1.903-1.193,3.092c-0.393,2.464-0.523,5.064-0.906,7.664l-0.068,0.481
				c-0.012,0.113-0.022,0.225-0.02,0.335c0.004,0.22,0.042,0.435,0.109,0.649c0.131,0.429,0.417,0.854,0.781,1.252
				c0.744,0.796,1.779,1.454,2.856,2.021c2.167,1.158,4.577,1.995,6.989,2.797c2.422,0.794,4.894,1.484,7.379,2.157
				c1.243,0.34,2.492,0.661,3.74,1.023c1.24,0.382,2.387,0.652,3.617,0.742c2.404,0.174,4.944-0.272,6.87-1.754
				c0.95-0.731,1.712-1.714,2.106-2.848c0.413-1.146,0.389-2.367,0.028-3.602c-0.626-2.625-0.106-5.29,0.272-7.807
				c0.181-1.271,0.302-2.542,0.277-3.804c-0.029-1.258-0.212-2.519-0.512-3.715c-0.316-1.228-0.715-2.42-1.329-3.425
				c-0.607-1.015-1.47-1.721-2.534-2.169c-2.159-0.878-4.8-1.101-7.324-1.593c-1.275-0.227-2.555-0.469-3.828-0.74
				c-0.657-0.137-1.25-0.302-1.826-0.374c-0.584-0.079-1.166-0.096-1.727-0.032c-1.117,0.134-2.123,0.641-2.844,1.528
				c-0.722,0.88-1.176,2.039-1.461,3.24c-0.554,2.426-0.555,5.031-0.315,7.583l0.003,0.028L152.741,134.865z"/>
		</g>
	</g>
	<g>
		<path fill="#7E8971" d="M145.892,135.804c0,0,9.129,12.545-1.385,14.958c-10.514,2.412-13.41,5.102-18.012-0.55
			c-4.602-5.652-3.298-10.639-6.943-14.913c-3.646-4.274-0.365-11.314,8.013-12.771c8.378-1.458,24.248-5.255,25.845,0.576
			c1.598,5.832,4.077,10.779,1.781,12.372C152.893,137.07,145.321,131.845,145.892,135.804z"/>
		<g>
			<path fill="#575756" d="M145.99,135.77c0.822,1,1.536,2.079,2.175,3.21c0.642,1.141,1.215,2.339,1.59,3.63
				c0.375,1.282,0.599,2.679,0.319,4.109c-0.25,1.43-1.171,2.794-2.396,3.587c-0.604,0.406-1.253,0.712-1.912,0.946
				c-0.67,0.24-1.334,0.384-1.933,0.54c-1.239,0.309-2.474,0.646-3.71,0.999c-1.234,0.357-2.475,0.709-3.75,1.027
				c-1.273,0.318-2.602,0.588-4.031,0.576c-1.432-0.001-2.934-0.545-4.029-1.427c-1.113-0.867-1.959-1.93-2.713-2.998
				c-1.553-2.197-2.471-4.719-3.127-7.222c-0.668-2.486-1.314-5.018-2.953-6.95c-0.881-0.942-1.612-2.223-1.816-3.587
				c-0.225-1.369,0.012-2.795,0.572-4.054c1.122-2.544,3.383-4.44,5.885-5.49c1.237-0.543,2.615-0.888,3.876-1.118l3.788-0.762
				c5.076-0.969,10.184-2.089,15.588-1.848c1.351,0.104,2.734,0.285,4.115,0.87c0.684,0.301,1.379,0.717,1.937,1.355
				c0.278,0.314,0.511,0.681,0.679,1.072c0.086,0.195,0.15,0.395,0.206,0.597l0.121,0.467c0.632,2.455,1.497,4.876,2.075,7.483
				c0.135,0.658,0.264,1.326,0.283,2.04c0.021,0.703-0.025,1.49-0.432,2.243c-0.215,0.377-0.492,0.684-0.887,0.938
				c-0.352,0.226-0.818,0.331-1.186,0.349c-0.767,0.036-1.434-0.121-2.082-0.287c-1.291-0.34-2.48-0.852-3.691-1.227
				c-0.6-0.178-1.226-0.355-1.795-0.303c-0.28,0.032-0.521,0.138-0.645,0.381C145.986,135.152,145.971,135.466,145.99,135.77z
				 M145.792,135.818c-0.062-0.323-0.106-0.673,0.022-1.032c0.12-0.374,0.515-0.625,0.865-0.686
				c0.716-0.137,1.381-0.003,2.028,0.112c1.29,0.258,2.533,0.628,3.76,0.866c0.606,0.111,1.227,0.189,1.751,0.118
				c0.528-0.065,0.824-0.327,1.019-0.737c0.365-0.845,0.084-2.137-0.223-3.307c-0.684-2.399-1.661-4.812-2.411-7.331l-0.14-0.465
				c-0.037-0.107-0.075-0.213-0.124-0.312c-0.097-0.198-0.222-0.376-0.373-0.542c-0.3-0.333-0.739-0.599-1.237-0.805
				c-1.01-0.408-2.227-0.567-3.441-0.628c-2.454-0.135-4.992,0.122-7.518,0.412c-2.531,0.302-5.062,0.719-7.602,1.157
				c-1.27,0.215-2.538,0.451-3.822,0.649c-1.285,0.177-2.438,0.416-3.592,0.853c-2.254,0.856-4.368,2.333-5.489,4.488
				c-0.553,1.063-0.829,2.276-0.708,3.471c0.109,1.213,0.646,2.31,1.494,3.277c1.674,2.116,2.326,4.751,3.045,7.193
				c0.372,1.229,0.799,2.431,1.354,3.566c0.557,1.129,1.254,2.194,2.03,3.153c0.806,0.98,1.669,1.893,2.649,2.545
				c0.979,0.664,2.06,0.94,3.213,0.897c2.328-0.115,4.816-1.026,7.312-1.645c1.252-0.333,2.514-0.652,3.783-0.944
				c0.653-0.153,1.26-0.253,1.812-0.431c0.563-0.175,1.099-0.405,1.578-0.7c0.957-0.593,1.656-1.477,1.935-2.585
				c0.284-1.103,0.206-2.345-0.042-3.554c-0.521-2.434-1.619-4.796-2.912-7.008l-0.014-0.024L145.792,135.818z"/>
		</g>
	</g>
	<g>
		<path fill="#C6C6C6" d="M125.254,147.729c0,0-4.605-9.637,6.525-13.091c11.132-3.455,10.939-4.03,23.415,0
			c12.475,4.03,8.061,8.849,8.444,13.061c0.384,4.212-8.637,8.923-16.506,6.376C139.265,151.527,123.234,158.519,125.254,147.729z"
			/>
		<g>
			<path fill="#575756" d="M125.15,147.742c-0.533-0.973-0.885-2.033-1.095-3.134c-0.21-1.11-0.265-2.279-0.048-3.431
				c0.373-2.335,1.965-4.424,3.934-5.672c0.98-0.645,2.038-1.136,3.118-1.526l3.144-1.029c2.088-0.672,4.191-1.364,6.463-1.716
				c2.29-0.36,4.659-0.042,6.79,0.558c2.152,0.596,4.216,1.353,6.301,2.044c2.081,0.686,4.198,1.361,6.187,2.388
				c0.99,0.517,1.958,1.117,2.807,1.911c0.844,0.788,1.525,1.856,1.777,3.047c0.271,1.186,0.164,2.379,0.044,3.476
				c-0.118,1.121-0.261,2.104-0.132,3.125c0.087,1.45-0.621,2.661-1.403,3.581c-0.804,0.936-1.777,1.639-2.788,2.232
				c-2.035,1.169-4.287,1.865-6.597,2.146c-2.297,0.282-4.727,0.049-6.912-0.67c-1.884-0.61-4.034-0.62-6.178-0.594
				c-2.155,0.045-4.343,0.213-6.566,0.251c-1.111,0.026-2.235,0.001-3.366-0.112c-1.127-0.122-2.284-0.318-3.372-0.836
				c-1.101-0.479-2.022-1.528-2.275-2.695C124.713,149.933,124.875,148.8,125.15,147.742z M125.352,147.748
				c-0.105,1.079-0.107,2.188,0.246,3.146c0.357,0.961,1.125,1.618,2.061,1.956c1.907,0.669,4.121,0.457,6.255,0.303
				c2.157-0.19,4.335-0.472,6.564-0.614c2.22-0.133,4.536-0.175,6.874,0.488c1.985,0.652,4.021,0.812,6.084,0.64
				c2.048-0.182,4.09-0.749,5.891-1.713c0.897-0.481,1.728-1.078,2.397-1.771c0.666-0.687,1.143-1.532,1.13-2.311
				c-0.09-1.174,0.157-2.376,0.367-3.417c0.207-1.062,0.371-2.086,0.229-3.068c-0.26-1.984-1.967-3.548-3.83-4.564
				c-1.878-1.065-3.965-1.738-6.061-2.368c-2.097-0.627-4.221-1.197-6.347-1.575c-2.131-0.399-4.224-0.475-6.262-0.004
				c-2.049,0.43-4.117,1.146-6.217,1.766l-3.131,0.949c-0.994,0.319-1.962,0.708-2.84,1.231c-1.77,1.017-3.17,2.6-3.717,4.595
				c-0.562,1.982-0.374,4.217,0.299,6.272l0.011,0.033L125.352,147.748z"/>
		</g>
	</g>
	<g>
		<path fill="#A7B29B" d="M128.854,154.28c-0.68-3.539-3.486-7.786-4.415-10.096c-1.303-3.235-5.568-2.853-8.589-2.468
			c-0.922,0.118-3.264-1.144-4.342-1.275c-2.881-0.356-5.769-0.03-8.229,1.592c-3.341,2.203-5.735,5.774-6.784,9.613
			c-0.389,1.427,2.064,2.562,1.908,4.027c-0.008,0.08,5.183-2.373,5.17-2.288l6.842,2.956h18.492
			C128.983,155.683,128.99,154.99,128.854,154.28z"/>
		<path fill="#575756" d="M128.756,154.3c-0.472-2.285-1.633-4.348-2.846-6.332c-0.616-0.996-1.251-1.973-1.833-3.037l-0.408-0.775
			c-0.114-0.175-0.268-0.376-0.428-0.542c-0.32-0.339-0.712-0.598-1.16-0.779c-0.895-0.379-1.972-0.468-3.065-0.474
			c-0.55-0.003-1.108,0.03-1.672,0.075l-0.853,0.064l-0.43,0.04l-0.178,0.016l-0.11,0c-0.05,0.004-0.201-0.006-0.323-0.02
			c-0.817-0.133-1.299-0.398-1.871-0.629c-0.545-0.238-1.07-0.484-1.578-0.68c-0.276-0.102-0.447-0.163-0.725-0.205
			c-0.295-0.052-0.57-0.089-0.844-0.125c-0.561-0.066-1.127-0.104-1.692-0.108c-2.269-0.032-4.532,0.716-6.28,2.224
			c-1.799,1.419-3.154,3.348-4.111,5.395c-0.466,1.034-0.829,2.109-1.083,3.201l-0.049,0.204c0.011-0.036-0.034,0.171-0.013,0.123
			c0.007,0.003,0.01,0.089,0.035,0.145c0.043,0.13,0.15,0.31,0.301,0.499c0.305,0.386,0.734,0.789,1.146,1.343
			c0.202,0.281,0.416,0.612,0.539,1.058c0.06,0.22,0.095,0.468,0.077,0.718l-0.003,0.047c-0.135-0.337,0.3,0.787-0.303-0.75h0.015
			c-0.1-0.103-0.305-0.218-0.512-0.23c-0.207-0.021-0.412,0.072-0.34,0.044l0.07-0.03l0.183-0.083l1.568-0.744l1.582-0.76
			l0.798-0.379l0.408-0.189l0.215-0.096l0.125-0.053l0.083-0.032l0.097-0.03l0.049-0.013c0.283-0.422,1.627,0.785,1.236,1.121
			l-0.6-1.063c1.147,0.477,2.307,0.927,3.443,1.427c1.139,0.496,2.289,0.967,3.418,1.483l-0.42-0.087
			c1.541,0.032,3.082,0.032,4.623,0.09c1.541,0.048,3.082,0.128,4.623,0.25l4.623,0.354c1.541,0.11,3.082,0.192,4.623,0.233
			l-0.131,0.118C128.864,155.652,128.873,154.968,128.756,154.3z M128.952,154.261c0.144,0.688,0.156,1.399,0.088,2.095
			l-0.012,0.115l-0.121,0.003c-1.541,0.041-3.082,0.123-4.623,0.233l-4.623,0.354c-1.541,0.122-3.082,0.202-4.623,0.25
			c-1.541,0.059-3.082,0.058-4.623,0.09l-0.196,0.004l-0.224-0.091c-1.15-0.469-2.281-0.983-3.423-1.473
			c-1.144-0.485-2.265-1.021-3.398-1.529l-1.216-0.545l0.616-0.518c-0.399,0.335,0.935,1.542,1.209,1.12l0.022-0.005l0.045-0.014
			c0.004-0.002-0.014,0.005-0.02,0.007l-0.078,0.029l-0.188,0.076l-0.395,0.165l-0.8,0.343l-1.607,0.697l-1.629,0.697l-0.221,0.089
			l-0.134,0.051c0.056-0.021-0.167,0.077-0.392,0.062c-0.225-0.006-0.447-0.116-0.563-0.213l-0.013,0
			c-0.604-1.545-0.168-0.431-0.303-0.776l0.001-0.008c0.009-0.042,0.008-0.088-0.004-0.15c-0.02-0.123-0.104-0.308-0.233-0.505
			c-0.262-0.405-0.665-0.832-1.042-1.397c-0.187-0.287-0.381-0.62-0.481-1.059c-0.05-0.227-0.068-0.437-0.03-0.724
			c0.029-0.195,0.026-0.129,0.071-0.307l0.076-0.216c0.396-1.153,0.903-2.26,1.51-3.303c1.217-2.084,2.814-3.917,4.703-5.382
			c1.848-1.513,4.209-2.414,6.611-2.647c0.603-0.063,1.207-0.09,1.813-0.085c0.309,0.006,0.616,0.015,0.902,0.033
			c0.305,0.007,0.706,0.086,0.985,0.164c0.605,0.162,1.164,0.356,1.713,0.528c0.523,0.17,1.141,0.337,1.484,0.366
			c0.022-0.001,0.016,0.013,0.113,0.003l0.109-0.007c-0.137,0.012-0.03,0.002-0.057,0.004l0.014-0.002l0.027-0.004l0.055-0.008
			l0.439-0.067l0.892-0.12c0.601-0.062,1.21-0.102,1.829-0.107c1.232-0.006,2.545,0.144,3.783,0.757
			c0.609,0.314,1.179,0.766,1.607,1.327c0.206,0.29,0.373,0.581,0.523,0.927l0.297,0.83c0.396,1.061,0.892,2.133,1.349,3.213
			C127.481,149.788,128.481,151.945,128.952,154.261z"/>
	</g>
	<g>
		<path fill="#9D9D9C" d="M118.735,146.042c-11.463,4.593-22.36-11.514-19.658-20.082c2.701-8.567,6.455-12.205,16.736-3.019
			c10.28,9.186,16.199,15.829,12.406,18.724C124.428,144.559,120.415,145.369,118.735,146.042z"/>
		<g>
			<path fill="#575756" d="M118.771,146.136c-1.771,0.715-3.729,1.024-5.661,0.838c-1.935-0.173-3.844-0.802-5.558-1.771
				c-3.469-1.914-6.174-5.063-7.832-8.639c-0.829-1.794-1.382-3.724-1.582-5.704c-0.099-0.989-0.105-1.992,0.025-2.985
				c0.106-0.988,0.441-1.984,0.792-2.853c0.688-1.789,1.423-3.59,2.573-5.183c0.572-0.792,1.283-1.524,2.178-2.016
				c0.886-0.507,1.944-0.69,2.952-0.625c2.041,0.148,3.846,1.087,5.511,2.074c1.669,1.008,3.205,2.215,4.655,3.46
				c2.919,2.461,5.753,5.025,8.431,7.818c1.307,1.426,2.594,2.898,3.64,4.626c0.519,0.865,1.008,1.784,1.283,2.872
				c0.127,0.543,0.197,1.138,0.119,1.761c-0.071,0.62-0.326,1.262-0.73,1.746c-0.388,0.497-0.92,0.84-1.295,1.066
				c-0.437,0.267-0.867,0.491-1.31,0.713c-0.883,0.439-1.789,0.812-2.707,1.125C122.43,145.111,120.552,145.518,118.771,146.136z
				 M118.699,145.949c1.798-0.657,3.603-1.254,5.231-2.211c0.815-0.466,1.597-0.978,2.331-1.539c0.365-0.277,0.73-0.575,1.062-0.868
				c0.392-0.328,0.647-0.547,0.817-0.829c0.705-1.021-0.054-2.755-1.007-4.219c-0.991-1.486-2.188-2.916-3.443-4.292
				c-2.488-2.791-5.247-5.393-7.974-8.02c-1.367-1.303-2.749-2.551-4.238-3.664c-1.486-1.084-3.123-2.055-4.894-2.318
				c-0.881-0.131-1.779,0.012-2.57,0.41c-0.793,0.402-1.448,1.063-1.998,1.797c-1.08,1.501-1.75,3.289-2.292,5.085
				c-1.202,3.555-0.015,7.294,1.584,10.518c1.66,3.242,3.92,6.225,6.854,8.448c1.479,1.081,3.171,1.932,5.01,2.271
				c0.917,0.176,1.86,0.199,2.795,0.117C116.905,146.526,117.811,146.289,118.699,145.949z"/>
		</g>
	</g>
	<g>
		<path fill="#A7B29B" d="M147.452,104.012c0.303,1.742-0.75,10.5-14.5,11.5s-10.25-6-12.75-11.5s-16.75-6.127-7.5-13.188
			s11,0.312,25.25,0S146.452,98.262,147.452,104.012z"/>
		<g>
			<path fill="#575756" d="M147.551,103.996c0.149,1.148-0.104,2.28-0.45,3.355c-0.346,1.084-0.902,2.092-1.564,3.029
				c-1.342,1.875-3.291,3.287-5.396,4.248c-2.114,0.971-4.404,1.512-6.691,1.726c-2.272,0.218-4.6,0.265-6.943-0.292
				c-1.158-0.291-2.339-0.797-3.293-1.655c-0.966-0.854-1.543-2.041-1.834-3.177c-0.301-1.147-0.407-2.277-0.551-3.381
				c-0.152-1.101-0.34-2.186-0.711-3.205c-0.102-0.262-0.193-0.487-0.322-0.743c-0.117-0.217-0.259-0.444-0.418-0.655
				c-0.32-0.422-0.701-0.808-1.125-1.147c-0.844-0.686-1.792-1.26-2.773-1.779l-2.99-1.545c-0.99-0.554-2.023-1.11-2.838-2.128
				c-0.4-0.503-0.689-1.224-0.635-1.946c0.043-0.722,0.34-1.342,0.674-1.871c0.687-1.056,1.566-1.851,2.465-2.584
				c1.777-1.424,3.783-2.806,6.259-3.289c1.224-0.241,2.501-0.202,3.682,0.002c1.186,0.203,2.293,0.529,3.37,0.841
				c2.149,0.638,4.221,1.241,6.367,1.569c2.142,0.375,4.292,0.477,6.515,0.485c1.151,0.011,2.306,0.086,3.462,0.278
				c1.154,0.181,2.318,0.488,3.416,1.042c1.091,0.539,2.106,1.48,2.535,2.666c0.441,1.175,0.397,2.377,0.277,3.5
				C147.784,99.586,147.21,101.787,147.551,103.996z M147.354,104.028c-0.391-2.253,0.128-4.513,0.128-6.719
				c0.003-1.096-0.104-2.204-0.566-3.098c-0.45-0.9-1.278-1.488-2.229-1.835c-1.934-0.675-4.156-0.647-6.315-0.595
				c-2.251,0.13-4.591,0.021-6.872-0.304c-2.283-0.349-4.53-0.978-6.648-1.685c-2.121-0.695-4.145-1.326-6.109-0.983
				c-1.965,0.326-3.863,1.426-5.62,2.694c-0.863,0.637-1.7,1.323-2.31,2.101c-0.617,0.795-0.811,1.616-0.271,2.406
				c0.532,0.792,1.465,1.435,2.381,2.021c0.93,0.594,1.916,1.129,2.889,1.696c0.967,0.578,1.948,1.159,2.83,1.903
				c0.439,0.372,0.86,0.777,1.227,1.24c0.182,0.233,0.344,0.478,0.496,0.751c0.127,0.241,0.255,0.532,0.358,0.791
				c0.87,2.146,1.006,4.485,1.721,6.488c0.354,0.996,0.894,1.859,1.671,2.437c0.769,0.589,1.742,0.908,2.758,1.102
				c2.046,0.382,4.252,0.298,6.428,0.164c2.167-0.172,4.322-0.473,6.381-1.141c2.047-0.668,3.988-1.771,5.449-3.407
				C146.568,108.437,147.527,106.221,147.354,104.028z"/>
		</g>
	</g>
	<g>
		<path fill="#C6C6C6" d="M162.117,69.825c0,0,2.987,15.226-7.563,12.979c-10.551-2.247-14.312-1.03-16.1-8.096
			c-1.789-7.065,1.496-11.037-0.006-16.451c-1.504-5.413,4.441-10.412,12.652-8.199c8.211,2.212,24.202,5.462,23.19,11.423
			c-1.013,5.961-0.851,11.493-3.604,11.969C167.932,73.926,163.271,65.995,162.117,69.825z"/>
		<g>
			<path fill="#575756" d="M162.222,69.835c0.323,1.253,0.516,2.533,0.618,3.829c0.1,1.305,0.114,2.633-0.091,3.962
				c-0.199,1.321-0.586,2.682-1.442,3.86c-0.83,1.191-2.241,2.04-3.686,2.242c-0.719,0.114-1.437,0.117-2.133,0.052
				c-0.708-0.065-1.371-0.215-1.979-0.326c-1.255-0.243-2.517-0.457-3.785-0.659c-1.271-0.196-2.544-0.401-3.834-0.651
				c-1.289-0.249-2.606-0.564-3.897-1.178c-1.297-0.605-2.43-1.731-3.051-2.993c-0.644-1.255-0.963-2.577-1.196-3.863
				c-0.481-2.647-0.25-5.321,0.21-7.867c0.443-2.536,0.925-5.104,0.254-7.547c-0.4-1.225-0.524-2.695-0.134-4.019
				c0.374-1.336,1.19-2.53,2.229-3.435c2.09-1.834,4.94-2.599,7.65-2.496c1.352,0.03,2.746,0.297,3.986,0.621l3.757,0.907
				c5.012,1.262,10.114,2.401,14.913,4.899c1.181,0.664,2.359,1.412,3.365,2.525c0.491,0.561,0.947,1.231,1.183,2.045
				c0.12,0.402,0.176,0.833,0.164,1.258c-0.006,0.213-0.031,0.421-0.065,0.628l-0.087,0.474c-0.463,2.492-0.7,5.053-1.275,7.661
				c-0.155,0.653-0.32,1.313-0.604,1.969c-0.277,0.646-0.651,1.341-1.338,1.851c-0.354,0.252-0.734,0.413-1.199,0.476
				c-0.413,0.057-0.882-0.045-1.222-0.184c-0.71-0.291-1.249-0.715-1.768-1.139c-1.026-0.853-1.889-1.818-2.829-2.669
				c-0.469-0.414-0.961-0.838-1.5-1.031c-0.267-0.089-0.531-0.095-0.745,0.074C162.479,69.273,162.332,69.552,162.222,69.835z
				 M162.021,69.796c0.08-0.319,0.188-0.656,0.455-0.927c0.267-0.289,0.73-0.349,1.074-0.257c0.707,0.178,1.253,0.58,1.791,0.957
				c1.062,0.779,2.033,1.639,3.044,2.372c0.503,0.357,1.033,0.689,1.538,0.847c0.507,0.164,0.885,0.051,1.235-0.239
				c0.687-0.612,0.977-1.903,1.192-3.093c0.392-2.464,0.523-5.064,0.906-7.664l0.069-0.481c0.012-0.113,0.021-0.225,0.019-0.334
				c-0.004-0.22-0.042-0.435-0.108-0.649c-0.132-0.429-0.418-0.854-0.782-1.251c-0.743-0.796-1.779-1.454-2.856-2.022
				c-2.167-1.157-4.577-1.995-6.989-2.797c-2.422-0.793-4.894-1.483-7.379-2.157c-1.243-0.341-2.492-0.662-3.74-1.024
				c-1.239-0.382-2.387-0.652-3.617-0.742c-2.404-0.174-4.944,0.272-6.87,1.754c-0.95,0.731-1.713,1.714-2.107,2.849
				c-0.413,1.146-0.387,2.367-0.027,3.602c0.625,2.625,0.105,5.29-0.273,7.807c-0.181,1.271-0.302,2.541-0.277,3.804
				c0.029,1.259,0.212,2.519,0.512,3.716c0.317,1.228,0.715,2.419,1.329,3.425c0.607,1.015,1.47,1.721,2.534,2.168
				c2.16,0.878,4.8,1.101,7.325,1.593c1.276,0.227,2.554,0.469,3.828,0.74c0.657,0.137,1.249,0.301,1.825,0.374
				c0.585,0.079,1.167,0.096,1.727,0.032c1.117-0.134,2.124-0.641,2.844-1.528c0.723-0.88,1.177-2.039,1.461-3.24
				c0.555-2.426,0.555-5.031,0.315-7.583l-0.002-0.028L162.021,69.796z"/>
		</g>
	</g>
	<g>
		<path fill="#9D9D9C" d="M100.885,76.938c0,0-9.13-12.545,1.384-14.958c10.514-2.412,13.41-5.102,18.012,0.55
			c4.602,5.652,3.299,10.639,6.944,14.913c3.646,4.274,0.364,11.314-8.013,12.771c-8.378,1.458-24.248,5.255-25.846-0.576
			c-1.597-5.832-4.076-10.779-1.78-12.372C93.884,75.672,101.454,80.897,100.885,76.938z"/>
		<g>
			<path fill="#575756" d="M100.786,76.972c-0.822-1-1.536-2.079-2.175-3.21c-0.641-1.141-1.214-2.339-1.589-3.63
				c-0.376-1.282-0.6-2.679-0.32-4.108c0.25-1.43,1.171-2.795,2.396-3.588c0.604-0.406,1.253-0.712,1.912-0.946
				c0.67-0.24,1.333-0.384,1.933-0.54c1.24-0.309,2.474-0.646,3.709-1c1.234-0.357,2.476-0.709,3.751-1.026
				c1.273-0.318,2.601-0.588,4.031-0.576c1.432,0.001,2.933,0.545,4.029,1.426c1.113,0.867,1.96,1.93,2.713,2.998
				c1.553,2.197,2.471,4.72,3.127,7.222c0.667,2.486,1.314,5.018,2.954,6.95c0.879,0.942,1.611,2.223,1.816,3.588
				c0.225,1.369-0.012,2.795-0.572,4.054c-1.122,2.544-3.383,4.44-5.885,5.49c-1.237,0.543-2.614,0.888-3.875,1.118l-3.789,0.762
				c-5.077,0.969-10.183,2.089-15.588,1.848c-1.35-0.104-2.734-0.286-4.115-0.87c-0.683-0.301-1.378-0.717-1.936-1.355
				c-0.278-0.314-0.511-0.682-0.679-1.072c-0.085-0.195-0.149-0.396-0.206-0.597l-0.121-0.466c-0.632-2.455-1.497-4.877-2.075-7.484
				c-0.134-0.657-0.263-1.326-0.284-2.04c-0.021-0.703,0.025-1.49,0.433-2.243c0.214-0.377,0.492-0.684,0.887-0.938
				c0.351-0.226,0.818-0.331,1.185-0.349c0.767-0.036,1.434,0.121,2.083,0.287c1.291,0.34,2.48,0.852,3.691,1.227
				c0.599,0.178,1.225,0.355,1.795,0.303c0.28-0.032,0.521-0.138,0.645-0.381C100.79,77.59,100.805,77.276,100.786,76.972z
				 M100.984,76.924c0.062,0.323,0.106,0.673-0.022,1.032c-0.121,0.374-0.515,0.625-0.866,0.686
				c-0.716,0.137-1.38,0.003-2.028-0.112c-1.29-0.258-2.534-0.628-3.76-0.866c-0.607-0.111-1.228-0.189-1.751-0.118
				c-0.528,0.065-0.824,0.327-1.019,0.737c-0.365,0.845-0.083,2.138,0.223,3.307c0.684,2.4,1.661,4.812,2.411,7.331l0.14,0.465
				c0.037,0.107,0.075,0.213,0.124,0.312c0.097,0.198,0.222,0.376,0.373,0.542c0.3,0.333,0.739,0.599,1.237,0.805
				c1.01,0.408,2.227,0.567,3.442,0.628c2.454,0.135,4.992-0.122,7.517-0.412c2.531-0.302,5.063-0.719,7.601-1.157
				c1.271-0.215,2.539-0.451,3.823-0.649c1.285-0.177,2.438-0.416,3.592-0.853c2.254-0.856,4.368-2.333,5.488-4.488
				c0.553-1.064,0.83-2.276,0.709-3.471c-0.109-1.213-0.647-2.31-1.494-3.278c-1.674-2.116-2.327-4.751-3.045-7.193
				c-0.372-1.229-0.798-2.431-1.353-3.565c-0.558-1.129-1.255-2.194-2.031-3.153c-0.805-0.979-1.668-1.893-2.649-2.544
				c-0.979-0.664-2.059-0.94-3.212-0.898c-2.329,0.115-4.816,1.027-7.313,1.646c-1.252,0.333-2.513,0.652-3.783,0.944
				c-0.653,0.153-1.26,0.253-1.812,0.431c-0.563,0.175-1.099,0.405-1.579,0.7c-0.956,0.593-1.655,1.477-1.934,2.585
				c-0.284,1.103-0.207,2.345,0.042,3.554c0.521,2.434,1.619,4.796,2.912,7.008l0.014,0.024L100.984,76.924z"/>
		</g>
	</g>
	<g>
		<path fill="#7E8971" d="M114.546,70.641c0,0,3.559-10.071,13.871-4.643c10.314,5.429,10.586,4.886,16.557,16.557
			c5.972,11.671-0.557,11.957-3.264,15.206c-2.707,3.25-12.416,0.203-16.18-7.163C121.768,83.233,105.489,76.842,114.546,70.641z"/>
		<path fill="#575756" d="M114.464,70.577c0.311-1.065,0.812-2.063,1.441-2.99c0.637-0.933,1.425-1.798,2.393-2.459
			c1.914-1.388,4.518-1.739,6.791-1.229c1.15,0.238,2.245,0.638,3.284,1.125l2.951,1.496c1.951,1.001,3.928,1.999,5.784,3.357
			c1.873,1.364,3.324,3.264,4.406,5.196c1.1,1.943,2.023,3.937,3.01,5.9c0.986,1.957,2.006,3.931,2.686,6.063
			c0.335,1.065,0.595,2.174,0.634,3.335c0.04,1.154-0.234,2.392-0.897,3.411c-0.648,1.03-1.566,1.798-2.428,2.489
			c-0.875,0.709-1.672,1.304-2.303,2.116c-0.963,1.087-2.32,1.443-3.523,1.54c-1.23,0.093-2.416-0.099-3.549-0.393
			c-2.267-0.612-4.352-1.712-6.182-3.147c-1.824-1.424-3.377-3.308-4.414-5.362c-0.901-1.762-2.414-3.291-3.948-4.788
			c-1.556-1.492-3.222-2.92-4.821-4.465c-0.804-0.768-1.58-1.58-2.301-2.46c-0.71-0.883-1.389-1.839-1.793-2.975
			c-0.439-1.117-0.35-2.51,0.298-3.515C112.606,71.817,113.521,71.13,114.464,70.577z M114.603,70.724
			c-0.837,0.688-1.623,1.471-2.051,2.398c-0.428,0.932-0.348,1.94,0.074,2.84c0.875,1.822,2.592,3.237,4.209,4.638
			c1.659,1.391,3.398,2.732,5.076,4.207c1.662,1.476,3.33,3.084,4.515,5.206c0.942,1.864,2.269,3.417,3.849,4.754
			c1.577,1.319,3.422,2.363,5.377,2.955c0.976,0.294,1.984,0.459,2.948,0.442c0.956-0.014,1.891-0.275,2.433-0.835
			c0.768-0.894,1.793-1.569,2.677-2.157c0.897-0.604,1.737-1.213,2.332-2.007c1.219-1.587,1.118-3.9,0.519-5.936
			c-0.574-2.082-1.574-4.032-2.611-5.959c-1.039-1.926-2.138-3.831-3.374-5.602c-1.225-1.789-2.651-3.322-4.425-4.431
			c-1.752-1.145-3.721-2.101-5.645-3.148l-2.885-1.542c-0.928-0.478-1.887-0.887-2.879-1.138c-1.971-0.533-4.08-0.404-5.877,0.62
			c-1.799,1.004-3.246,2.718-4.224,4.646l-0.016,0.031L114.603,70.724z"/>
	</g>
	<g>
		<path fill="#A7B29B" d="M138.688,83.685c0.534-0.744,3.848-8.286,16.927-7.312c13.079,0.974,18.08,7.8,15.194,11.457
			c-2.885,3.657,9.041,15.482-14.232,9.935S136.2,87.155,138.688,83.685z"/>
		<path fill="#575756" d="M138.606,83.627c1.864-3.463,5.224-6.155,9.127-7.329c1.938-0.614,3.979-0.9,5.998-0.889
			c2.023-0.006,4.018,0.232,5.99,0.653c3.89,0.914,7.799,2.56,10.515,5.621c0.665,0.767,1.208,1.662,1.498,2.666
			c0.297,0.998,0.229,2.141-0.268,3.099c-0.118,0.233-0.286,0.473-0.422,0.661c-0.105,0.157-0.192,0.351-0.243,0.551
			c-0.1,0.408-0.084,0.862-0.023,1.318c0.126,0.917,0.416,1.844,0.68,2.795c0.266,0.953,0.547,1.932,0.588,3.037
			c0.016,0.549-0.039,1.146-0.275,1.729c-0.234,0.582-0.667,1.106-1.167,1.461c-1.017,0.714-2.127,0.922-3.167,1.052
			c-1.051,0.118-2.078,0.087-3.09,0.027c-4.047-0.298-7.904-1.193-11.727-2.217c-3.797-1.087-7.626-2.304-11.084-4.42
			c-1.685-1.061-3.439-2.303-4.348-4.222c-0.428-0.96-0.443-2.083-0.074-3.025C137.456,85.241,138.024,84.416,138.606,83.627z
			 M138.771,83.742c-0.553,0.801-1.102,1.626-1.373,2.544c-0.271,0.912-0.201,1.901,0.281,2.692c0.456,0.802,1.183,1.43,1.961,1.955
			c0.785,0.524,1.634,0.961,2.51,1.344c1.755,0.764,3.594,1.351,5.432,1.94c1.848,0.563,3.707,1.117,5.594,1.585
			c3.761,0.956,7.547,1.994,11.325,2.402c0.942,0.096,1.882,0.132,2.788,0.09c0.896-0.047,1.789-0.206,2.414-0.6
			c0.618-0.379,0.924-1.025,0.979-1.901c0.053-0.863-0.111-1.815-0.289-2.768c-0.183-0.957-0.411-1.931-0.472-2.971
			c-0.025-0.518-0.007-1.062,0.165-1.602c0.083-0.271,0.207-0.528,0.388-0.77c0.16-0.203,0.281-0.36,0.396-0.56
			c0.458-0.771,0.519-1.729,0.277-2.613c-0.236-0.894-0.773-1.697-1.398-2.4c-1.287-1.402-3.012-2.346-4.785-3.027
			c-1.784-0.686-3.66-1.109-5.55-1.386c-3.782-0.546-7.634-0.812-11.378-0.183c-1.861,0.343-3.711,0.953-5.334,2.001
			c-0.82,0.509-1.555,1.15-2.225,1.852C139.81,82.083,139.284,82.892,138.771,83.742z"/>
	</g>
</g>
</svg>
