<?xml version="1.0" encoding="utf-8"?>
<!-- Generator: Adobe Illustrator 16.0.0, SVG Export Plug-In . SVG Version: 6.00 Build 0)  -->
<!DOCTYPE svg PUBLIC "-//W3C//DTD SVG 1.1//EN" "http://www.w3.org/Graphics/SVG/1.1/DTD/svg11.dtd">
<svg version="1.1" id="Shapes" xmlns="http://www.w3.org/2000/svg" xmlns:xlink="http://www.w3.org/1999/xlink" x="0px" y="0px"
	 width="644px" height="143px" viewBox="0 0 644 143" enable-background="new 0 0 644 143" xml:space="preserve">
<circle fill="#FFFFFF" cx="420.307" cy="71.021" r="45.473"/>
<path d="M562.521-94.944h0.66c2.013-9.906,11.498-16.768,21.877-15.496c4.489,0.549,8.597,2.557,11.746,5.696
	c-0.749,0.465-1.471,0.965-2.167,1.496c-2.688-2.558-6.173-4.218-9.888-4.672c-4.572-0.563-9.088,0.664-12.715,3.452
	c-3.141,2.414-5.283,5.75-6.166,9.524h0.675h2.4h0.675c0.799-2.622,2.385-4.936,4.621-6.655c2.869-2.206,6.441-3.178,10.07-2.729
	c2.877,0.352,5.482,1.553,7.59,3.47c-0.766,0.766-1.479,1.579-2.145,2.428c-1.596-1.493-3.615-2.452-5.833-2.724
	c-4.706-0.582-9.062,2.083-10.79,6.21h0.701h2.641h0.791c1.39-1.845,3.727-2.923,6.217-2.62c1.643,0.202,3.119,0.976,4.209,2.185
	c-0.084,0.145-0.17,0.288-0.251,0.435h0.185h3.861h0.19c4.131-6.092,11.251-10.204,19.381-10.374c3.112-0.07,6.134,0.44,8.987,1.504
	c0.162,0.354,0.316,0.712,0.45,1.083c0.334,0.927,0.554,1.873,0.679,2.824c-2.926-1.456-6.219-2.197-9.562-2.129
	c-6.046,0.139-11.418,2.89-14.982,7.093h0.215h4.73h0.268c2.709-2.091,6.121-3.39,9.854-3.476c3.368-0.081,6.602,0.828,9.37,2.611
	c-0.054,0.289-0.103,0.579-0.176,0.865h3.69c0.589-2.974,0.381-6.067-0.681-9.013c-1.55-4.303-4.69-7.772-8.843-9.767
	c-6.664-3.204-14.568-1.844-19.664,3.25c-0.901-0.575-1.844-1.083-2.816-1.531c6.262-7.352,17.288-9.076,25.771-3.618
	c4.477,2.88,7.582,7.3,8.744,12.447c0.623,2.765,0.627,5.556,0.074,8.233h3.703c0.252-1.464,0.361-2.954,0.324-4.454
	c0.248,0.079,0.495,0.163,0.74,0.259c2.223,0.878,4.035,2.365,5.129,4.194h3.556c-0.193-0.494-0.415-0.984-0.691-1.466
	c-1.445-2.518-3.866-4.545-6.815-5.71c-0.742-0.293-1.496-0.523-2.259-0.69c-0.067-0.388-0.144-0.775-0.231-1.162
	c-0.213-0.945-0.501-1.86-0.822-2.76c1.561,0.247,3.114,0.651,4.641,1.254c5.444,2.149,9.428,6.157,11.105,10.536h3.368
	c-1.731-5.652-6.544-10.852-13.296-13.518c-2.4-0.947-4.862-1.49-7.336-1.668c-0.629-1.145-1.361-2.224-2.172-3.249
	c3.529,0.081,7.125,0.806,10.59,2.174c6.314,2.493,11.467,6.783,14.508,12.08c0.791,1.376,1.406,2.776,1.857,4.182h3.352
	c-0.531-1.947-1.341-3.885-2.428-5.778c-3.402-5.925-9.124-10.707-16.111-13.466c-1.246-0.492-2.51-0.902-3.781-1.245
	c-5.26-7.896-13.707-12.977-23.238-13.948c-12.324-1.255-24.281,4.739-30.492,15.279c-10.381,0.973-19.107,8.717-20.879,19.157
	h0.658H562.521z M613.489-110.463c1.094,0.525,2.089,1.19,2.988,1.954c-1.797-0.315-3.632-0.462-5.496-0.426
	c-3.878,0.081-7.555,0.951-10.874,2.437c-0.568-0.623-1.166-1.21-1.793-1.764C602.339-111.988,608.369-112.924,613.489-110.463z
	 M610.491-125.78c7.175,0.731,13.651,4.09,18.296,9.366c-1.898-0.198-3.791-0.234-5.658-0.093c-0.886-0.775-1.814-1.51-2.824-2.159
	c-10.412-6.699-24.092-4.235-31.329,5.349c-1.134-0.313-2.29-0.568-3.477-0.713c-0.274-0.034-0.547-0.056-0.819-0.08
	C590.424-122.279,600.303-126.82,610.491-125.78z"/>
<path d="M649.041-75.672c3.195,0,6.28-1.271,8.549-3.523l8.668-8.607c1.306-1.296,0.388-3.523-1.451-3.523h-7.73h-3.227h-4.271
	h-3.201h-5.074h-3.217h-8.156h-3.895h-2.606h-1.05h-23.983h-0.19h-3.818h-0.178h-4.524h-0.176h-3.549h-0.17h-34.744
	c-1.839,0-2.757,2.228-1.452,3.523l8.669,8.607c2.268,2.251,5.353,3.523,8.548,3.523H649.041z"/>
<g>
	<path d="M610.23-168.192l0.37,0.574l0.696,1.101c0.45,0.745,0.903,1.472,1.316,2.205c0.823,1.465,1.546,2.912,1.984,4.296
		c0.435,1.392,0.588,2.654,0.302,4.003c-0.277,1.35-1.044,2.808-2.066,4.228c-1.014,1.436-2.253,2.823-3.49,4.311
		c1.876-0.477,3.667-1.215,5.368-2.276c1.672-1.07,3.322-2.527,4.387-4.628c0.53-1.039,0.875-2.216,1.016-3.399
		c0.121-1.184,0.081-2.365-0.125-3.466c-0.395-2.212-1.209-4.155-2.144-5.921c-0.472-0.883-0.961-1.74-1.499-2.55l-0.811-1.216
		l-0.402-0.572l-0.313-0.437c-0.768-1.159-1.308-2.356-1.52-3.748c-0.225-1.383-0.139-2.962,0.226-4.628
		c0.349-1.678,0.982-3.382,1.641-5.256c-1.736,0.918-3.288,2.224-4.519,3.883c-1.224,1.65-2.146,3.714-2.351,6.025
		c-0.21,2.299,0.354,4.759,1.505,6.743C609.937-168.671,610.097-168.415,610.23-168.192z"/>
	<path d="M599.576-158.356l0.234,0.367l0.459,0.725c0.288,0.484,0.594,0.962,0.858,1.441c0.544,0.958,1.008,1.905,1.301,2.812
		c0.285,0.911,0.385,1.737,0.196,2.619c-0.182,0.884-0.683,1.836-1.351,2.769c-0.656,0.946-1.481,1.838-2.284,2.82
		c1.229-0.313,2.396-0.799,3.508-1.495c1.103-0.689,2.177-1.651,2.875-3.024c0.715-1.367,0.854-3.063,0.583-4.492
		c-0.262-1.443-0.789-2.721-1.403-3.873c-0.307-0.583-0.629-1.135-0.981-1.672l-0.527-0.79l-0.47-0.664
		c-0.502-0.758-0.855-1.542-0.994-2.452c-0.146-0.905-0.091-1.938,0.148-3.028c0.213-1.106,0.65-2.208,1.073-3.439
		c-1.146,0.596-2.138,1.463-2.957,2.541c-0.801,1.08-1.404,2.43-1.538,3.942c-0.138,1.504,0.23,3.114,0.984,4.412L599.576-158.356z"
		/>
</g>
<g>
	<path d="M193.419-138.407c0.428,1.727,0.825,3.47,1.157,5.242c0.481,1.26,0.727,2.52,0.727,3.765
		c0,16.518-37.725,24.043-72.771,24.043c-35.046,0-72.767-7.525-72.767-24.043c0-1.256,0.247-2.525,0.728-3.774
		c0.333-1.772,0.729-3.513,1.156-5.232c-7.858,4.847-12.404,10.562-12.404,16.682c0,17.55,37.289,31.777,83.287,31.777
		s83.287-14.228,83.287-31.777C205.819-127.845,201.276-133.557,193.419-138.407z"/>
	<path d="M122.533-204.999c-4.56,0-8.256,3.695-8.256,8.255s3.696,8.256,8.256,8.256c4.56,0,8.256-3.696,8.256-8.256
		S127.092-204.999,122.533-204.999z M121.07-196.115c-1.45,0-2.624-1.173-2.624-2.623c0-1.446,1.174-2.62,2.624-2.62
		c1.447,0,2.619,1.174,2.619,2.62C123.688-197.288,122.517-196.115,121.07-196.115z"/>
	<path d="M189.998-131.826c-6.551-36.007-34.248-63.062-67.465-63.062c-33.217,0-60.916,27.055-67.465,63.062
		c-0.352,0.796-0.555,1.605-0.555,2.426c0,10.657,30.454,19.299,68.021,19.299c37.566,0,68.019-8.642,68.019-19.299
		C190.552-130.221,190.349-131.03,189.998-131.826z M112.979-187.65c-6.373,3.438-15.03,9.802-21.606,21.007
		c-2.797-0.616-4.903-1.385-6.409-2.131c-1.105-0.551-1.892-1.076-2.468-1.527C89.834-178.086,99.723-184.664,112.979-187.65z
		 M62.049-127.349c0,0,2.933-22.271,17.921-40.125c1.714,1.373,4.655,3.073,9.514,4.29c-0.72,1.437-1.409,2.938-2.054,4.518
		c-7.924,19.476-10.361,32.392-11.093,37.796C71.423-122.296,66.352-124.359,62.049-127.349z M96.754-117.697
		c0,0-7.661-0.085-16.715-2.207c0.016-0.123,0.027-0.219,0.045-0.358c0.673-5.023,3.012-17.672,10.861-36.972
		c0.745-1.832,1.555-3.538,2.406-5.163c3.018,0.481,6.566,0.789,10.796,0.789c0.082,0,0.158,0,0.241,0
		c0.244,0,0.508-0.007,0.755-0.012C100.888-150.405,97.282-135.764,96.754-117.697z M106.674-165.436
		c-0.782,0.019-1.55,0.032-2.285,0.032c-3.5,0-6.458-0.216-9.012-0.55c4.676-7.52,10.323-12.555,15.271-15.875
		c2.902-1.941,5.523-3.262,7.589-4.163C115.517-182.404,110.929-175.547,106.674-165.436z"/>
</g>
<g>
	<path d="M762.973-140.657c-20.814,0-37.688,4.893-37.688,10.925c0,6.033,16.873,10.926,37.688,10.926
		c20.815,0,37.689-4.893,37.689-10.926C800.662-135.765,783.788-140.657,762.973-140.657z M787.661-125.892
		c-5.578-1.529-13.78-2.816-24.689-2.816c-10.907,0-19.108,1.287-24.685,2.816c-4.809-1.318-7.674-2.818-8.566-3.841
		c1.926-2.206,12.94-6.658,33.251-6.658s31.329,4.449,33.252,6.655C795.333-128.711,792.469-127.21,787.661-125.892z"/>
	<path d="M725.291-129.812c0.002-0.035,0.008-0.071,0.01-0.107h-0.016C725.286-129.881,725.289-129.847,725.291-129.812z
		 M800.646-129.919c0.002,0.033,0.008,0.063,0.008,0.097c0.002-0.034,0.005-0.062,0.009-0.097H800.646z M762.973-118.807
		c-5.247,0-10.231-0.316-14.771-0.88c-0.87,21.896,10.572,30.132,10.572,30.132s-8.203,1.346-17.629-8.57
		c-7.719-8.118-9.692-21.321-10.153-25.842c-3.277-1.525-5.322-3.296-5.658-5.199c2.526,49.066,37.122,45.192,37.64,45.132
		c0.517,0.061,35.107,3.934,37.639-45.123C799.581-123.393,783.123-118.807,762.973-118.807z"/>
	<path d="M762.973-104.229c-4.478,0-8.812,0.215-12.939,0.608c3.068,10.016,8.74,14.066,8.74,14.066s-8.1,1.318-17.451-8.392
		c-6.135,2.313-9.857,5.327-9.857,8.629c0,7.29,18.098,13.202,40.42,13.202c3.571,0,7.03-0.154,10.329-0.437
		c-5.7,1.002-12.22,1.573-19.148,1.573c-22.323,0-40.421-5.911-40.421-13.201c0-4.534,7.008-8.528,17.669-10.906
		c-0.763-0.891-1.485-1.812-2.129-2.784c-14.733,3.026-24.645,8.663-24.645,15.12c0,9.652,22.131,17.479,49.433,17.479
		c27.301,0,49.432-7.826,49.432-17.479C812.404-96.403,790.273-104.229,762.973-104.229z"/>
	<path d="M787.99-100.151c-0.724-1.688,0.061-3.643,1.748-4.363l0,0c0,0,0.539-0.229,1.488-0.685l0,0
		c0.952-0.456,2.279-1.125,3.743-1.952l0,0c2.921-1.641,6.402-3.992,8.418-6.274l0,0c1.381-1.527,1.935-2.872,1.901-3.646l0,0
		c-0.003-0.292-0.045-0.554-0.175-0.875l0,0c-0.28-0.634-0.463-0.744-0.698-0.896l0,0c-0.239-0.138-0.671-0.253-1.273-0.253l0,0
		c-1.166-0.018-2.755,0.5-3.344,0.756l0,0c-0.203,0.086-0.245,0.107-0.245,0.107l0,0c-1.652,0.803-3.64,0.112-4.441-1.54l0,0
		c-0.8-1.656-0.107-3.643,1.545-4.442l0,0c0.23-0.078,2.917-1.483,6.485-1.522l0,0c1.373,0,2.953,0.235,4.486,1.078l0,0
		c1.535,0.827,2.891,2.321,3.637,4.197l0,0c0.453,1.099,0.674,2.266,0.67,3.39l0,0c-0.032,3.277-1.676,5.911-3.589,8.072l0,0
		c-1.95,2.178-4.346,4.003-6.692,5.551l0,0c-4.681,3.077-9.2,5-9.301,5.05l0,0c-0.427,0.181-0.869,0.267-1.304,0.267l0,0
		C789.758-98.133,788.529-98.889,787.99-100.151L787.99-100.151z"/>
	<g>
		<path d="M755.042-143.704c-0.042-2.514,1.209-4.149,2.036-5.111l0,0c0.836-1.068,1.244-1.462,1.287-3.008l0,0
			c-0.043-1.55-0.451-1.947-1.287-3.012l0,0c-0.827-0.967-2.078-2.603-2.036-5.115l0,0c-0.042-2.513,1.209-4.144,2.036-5.116l0,0
			c0.836-1.063,1.244-1.462,1.292-3.007l0,0c0-0.918,0.741-1.662,1.656-1.662l0,0c0.917,0,1.66,0.743,1.66,1.662l0,0
			c0.045,2.512-1.209,4.144-2.035,5.111l0,0c-0.834,1.067-1.242,1.465-1.286,3.011l0,0c0.044,1.546,0.452,1.944,1.286,3.012l0,0
			c0.826,0.967,2.08,2.598,2.035,5.115l0,0c0.045,2.513-1.209,4.144-2.035,5.111l0,0c-0.834,1.064-1.242,1.462-1.286,3.009l0,0
			c0,0.917-0.742,1.66-1.66,1.66l0,0C755.785-142.044,755.042-142.788,755.042-143.704L755.042-143.704z"/>
	</g>
	<g>
		<path d="M765.564-143.704c-0.044-2.515,1.209-4.147,2.038-5.111l0,0c0.832-1.064,1.241-1.464,1.288-3.008l0,0
			c-0.047-1.55-0.456-1.949-1.288-3.012l0,0c-0.829-0.967-2.082-2.601-2.038-5.113l0,0c-0.044-2.515,1.209-4.149,2.038-5.116l0,0
			c0.832-1.064,1.241-1.462,1.288-3.008l0,0c0-0.918,0.743-1.662,1.66-1.662l0,0c0.915,0,1.658,0.743,1.658,1.662l0,0
			c0.042,2.512-1.209,4.144-2.034,5.111l0,0c-0.836,1.067-1.245,1.462-1.289,3.013l0,0c0.044,1.548,0.453,1.942,1.289,3.01l0,0
			c0.825,0.967,2.076,2.6,2.034,5.115l0,0c0.042,2.512-1.209,4.146-2.034,5.114l0,0c-0.836,1.063-1.245,1.457-1.289,3.005l0,0h0.005
			c0,0.917-0.748,1.661-1.666,1.661l0,0C766.308-142.043,765.564-142.788,765.564-143.704L765.564-143.704z"/>
	</g>
</g>
<path d="M936.014-138.253c6.678-4.553,2.799-13.47-4.741-16.695c-7.54-3.227-19.82-5.124-23.482-11.194
	c-3.663-6.072-5.817-3.226-9.264,0.377c-3.446,3.607-18.312,9.677-21.545,15.748c-3.231,6.071,2.586,8.158,2.586,8.158
	s-15.297,6.262-17.882,15.37c-0.75,2.642-0.732,4.91-0.338,6.806c5.789,0.229,9.234,3.035,10.914,4.425l0.131,0.104
	c1.627,1.285,1.877,1.483,3.326,1.501c1.328-0.018,1.574-0.21,3.2-1.497l0.214-0.169c1.674-1.391,5.318-4.404,11.43-4.404h0.25
	c6.102,0,9.749,3.012,11.504,4.463l0.137,0.106c1.627,1.285,1.877,1.483,3.324,1.501c1.332-0.018,1.579-0.216,3.207-1.501
	l0.21-0.165c1.676-1.391,5.32-4.404,11.433-4.404h0.248c6.113,0,9.758,3.014,11.51,4.466l0.123,0.097
	c1.637,1.292,1.885,1.49,3.34,1.508c1.337-0.018,1.585-0.216,3.22-1.508l0.201-0.158c1.676-1.391,5.32-4.404,11.436-4.404
	c0.551,0,1.081,0.059,1.587,0.171C955.409-134.191,936.014-138.253,936.014-138.253z M895.866-157.987
	c0.429-0.198-4.762,4.191,0,7.571c7.017,4.985,18.422,4.191,16.426,7.706c-1.996,3.516-26.714,0.544-28.249-4.461
	C882.875-150.976,892.64-156.499,895.866-157.987z M879.283-124.319c-9.059-1.488-10.9-7.979,1.844-12.982
	c0,0-2.919,6.354,6.601,7.707c9.521,1.353,27.176-0.946,28.558,3.247C917.667-122.158,888.342-122.833,879.283-124.319z"/>
<path d="M952.277-115.626c-0.318-0.54-0.858-0.86-1.447-0.86c-4.336-0.053-6.865,2.402-8.686,4.279
	c-1.941,1.905-3.175,3.237-6.354,3.285c-3.183-0.048-4.419-1.38-6.357-3.285c-1.819-1.877-4.347-4.332-8.682-4.282
	c-4.338-0.05-6.861,2.405-8.683,4.282c-1.94,1.905-3.173,3.237-6.349,3.285c-3.18-0.048-4.412-1.38-6.352-3.285
	c-1.82-1.877-4.347-4.332-8.683-4.282c-4.336-0.05-6.862,2.405-8.683,4.282c-1.939,1.905-3.168,3.237-6.344,3.285
	c-3.18-0.048-4.412-1.38-6.352-3.285c-1.816-1.877-4.343-4.332-8.676-4.282c-0.585,0-1.129,0.323-1.443,0.86
	c-0.318,0.533-0.368,1.213-0.135,1.798l15.488,38.463c0.079,0.196,0.199,0.357,0.327,0.506c2.321,3.927,15.171,6.928,30.722,6.928
	c15.097,0,27.677-2.829,30.521-6.584c0.16-0.165,0.305-0.354,0.4-0.588l15.888-38.713
	C952.642-114.41,952.596-115.083,952.277-115.626z M879.748-77.957l-7.19-25.695c0,0,4.054,1.82,6.269,0.201l6.452,27.317
	C885.278-76.133,881.591-75.93,879.748-77.957z"/>
<path fill="#959396" d="M39.063,12.838c0,0,0,37.77-2.097,30.311l-0.234-30.191l-0.697-1.516l-0.7,1.164
	c0,0,0.312,38.031-2.333,30.307l-0.115-30.191l-0.584-1.397l-0.814,1.282c0,0,0.993,38.867-1.868,30.073l-0.229-30.073l-0.935-1.746
	c0,0-3.145,40.938-1.747,41.636c0,0,3.963,2.039,5.045,4.558c-0.12-0.049-0.204-0.086-0.204-0.086l0.07,0.457
	c0.07,0.024,0.14,0.038,0.208,0.06l-0.012,0.512l-0.196-0.015c0.065,0.025,0.13,0.037,0.196,0.058l-0.019,0.793l-0.177-0.013
	c0.058,0.023,0.118,0.034,0.177,0.054l-1.923,66.526c0,0,5.306,5.211,9.495-0.979l-3.812-65.321c0.122-0.021,0.209-0.04,0.209-0.04
	l-0.213-0.012l-0.039-0.78c0.149-0.026,0.251-0.045,0.251-0.045l-0.251-0.015l-0.025-0.492c0.166-0.028,0.276-0.051,0.276-0.051
	s1.509-3.516,5.092-5.073c1.52-0.662-0.396-41.616-0.396-41.616L39.063,12.838z"/>
<path fill="#010101" d="M40.188,121.117c0,4.191-2.71,7.619-6.024,7.619H32.93c-3.313,0-6.025-3.428-6.025-7.619l1.391-44.152
	c0-4.19,1.321-7.619,4.634-7.619h1.235c3.313,0,4.634,3.429,4.634,7.619L40.188,121.117z"/>
<path fill="#959396" d="M181.366,65.483h-0.008l-0.067-1.218l0.048-0.177c-0.021,0.007-0.039,0.012-0.061,0.018l-0.029-0.561
	c0.44-0.438,1.141-0.646,1.141-0.646c3.213-0.816,2.93-8.922,2.93-8.922l-0.243-43.106c-0.788-7.858-6.175-0.771-6.175-0.771
	c-9.067,15.304-7.855,42.251-7.855,42.251c-0.078,8.756,6.277,11.389,6.277,11.389l0.419,0.322v0.028
	c-0.199-0.079-0.312-0.143-0.312-0.143l0.063,0.458c0.079,0.031,0.159,0.051,0.239,0.078l-1.963,61.073c0,0,5.37,4.811,9.608-0.904
	l-4.02-59.167L181.366,65.483z"/>
<path fill="#010101" d="M186.056,121.117c0,4.191-2.711,7.619-6.024,7.619h-1.234c-3.312,0-6.024-3.428-6.024-7.619l1.388-44.152
	c0-4.19,1.325-7.619,4.637-7.619h1.234c3.313,0,4.637,3.429,4.637,7.619L186.056,121.117z"/>
<circle fill="#010101" cx="107.003" cy="70.717" r="58.019"/>
<circle fill="#FFFFFF" cx="107.003" cy="70.717" r="41.443"/>
<g id="clock">
	<g>
		<path fill="#010101" d="M420.295,26.073c24.658,0,44.719,20.06,44.719,44.719c0,24.659-20.061,44.719-44.719,44.719
			s-44.719-20.06-44.719-44.719C375.576,46.133,395.637,26.073,420.295,26.073 M420.295,11.167
			c-32.928,0-59.625,26.698-59.625,59.625c0,32.927,26.697,59.625,59.625,59.625s59.625-26.698,59.625-59.625
			C479.92,37.865,453.223,11.167,420.295,11.167L420.295,11.167z"/>
		<path fill="#959396" d="M440.5,80.399l-12.752-12.768V40.979h-14.991v29.783c0,2.242,1.03,4.178,2.589,5.562l14.614,14.615
			L440.5,80.399z"/>
	</g>
</g>
<rect x="495" y="31" fill="none" width="160" height="111"/>
<text transform="matrix(1 0 0 1 495 110.0713)" font-family="'AkzidenzGroteskBE-Bold'" font-size="112">25</text>
<rect x="211.264" y="28.274" fill="none" width="118.736" height="111"/>
<text transform="matrix(1 0 0 1 211.2642 107.3457)" font-family="'AkzidenzGroteskBE-Bold'" font-size="112">4</text>
</svg>
