<?xml version="1.0" encoding="utf-8"?>
<!-- Generator: Adobe Illustrator 16.0.0, SVG Export Plug-In . SVG Version: 6.00 Build 0)  -->
<!DOCTYPE svg PUBLIC "-//W3C//DTD SVG 1.1//EN" "http://www.w3.org/Graphics/SVG/1.1/DTD/svg11.dtd">
<svg version="1.1" id="Layer_1" xmlns="http://www.w3.org/2000/svg" xmlns:xlink="http://www.w3.org/1999/xlink" x="0px" y="0px"
	 width="211.957px" height="180.548px" viewBox="0 0 211.957 180.548" enable-background="new 0 0 211.957 180.548"
	 xml:space="preserve">
<g>
	<linearGradient id="SVGID_1_" gradientUnits="userSpaceOnUse" x1="156.5117" y1="24.6094" x2="157.0974" y2="60.3179">
		<stop  offset="0" style="stop-color:#EB4498"/>
		<stop  offset="0.0985" style="stop-color:#E84292"/>
		<stop  offset="0.2402" style="stop-color:#E03E87"/>
		<stop  offset="0.4079" style="stop-color:#D63877"/>
		<stop  offset="0.5956" style="stop-color:#C93062"/>
		<stop  offset="0.7978" style="stop-color:#B9274A"/>
		<stop  offset="1" style="stop-color:#A81E2F"/>
	</linearGradient>
	<path fill="url(#SVGID_1_)" d="M130.52,65.41c0,0-6.365-13.393-10.537-27.224c0,0,7.905,16.683,16.245,16.465
		c8.341-0.219,17.123,0,14.049-9.003c0,0,3.293,5.932,6.146,5.27c2.855-0.657,2.855-8.341-7.901-29.195
		c0,0,8.342,11.852,14.27,21.95c5.926,10.101,24.585,10.538,30.731,22.393C199.669,77.921,140.837,89.994,130.52,65.41z"/>
	<linearGradient id="SVGID_2_" gradientUnits="userSpaceOnUse" x1="51.3018" y1="44.3301" x2="82.9123" y2="94.673">
		<stop  offset="0" style="stop-color:#EB4498"/>
		<stop  offset="0.0985" style="stop-color:#E84292"/>
		<stop  offset="0.2402" style="stop-color:#E03E87"/>
		<stop  offset="0.4079" style="stop-color:#D63877"/>
		<stop  offset="0.5956" style="stop-color:#C93062"/>
		<stop  offset="0.7978" style="stop-color:#B9274A"/>
		<stop  offset="1" style="stop-color:#A81E2F"/>
	</linearGradient>
	<path fill="url(#SVGID_2_)" d="M47.103,130.165c0,0,2.783-6.659,2.637-12.292c-0.146-5.527-4.393-12.734-16.025-24.584
		c0,0,10.191,9.574,12.514,7.898c3.95-2.849-12.956-24.147-18.441-33.804c0,0,17.855,24.221,25.17,25.537
		c6.836,1.229,2.82-8.745,2.82-8.745s5.047,5.707,8.999,1.538c3.95-4.172-8.012-26.454-17.233-41.161c0,0,17.562,29.196,27,28.101
		c4.524-0.528,5.188-4.021,5.051-6.369c0,0,4.831,7.465,17.999-0.437c13.173-7.905,14.269-13.83,0.44-35.122
		c0,0,28.537,36.439,31.83,49.17c3.293,12.729-15.294-18.438-33.44-6.146S55.153,102.286,47.103,130.165z"/>
	<linearGradient id="SVGID_3_" gradientUnits="userSpaceOnUse" x1="45.4893" y1="100.2461" x2="155.2979" y2="100.2461">
		<stop  offset="0" style="stop-color:#FFC221"/>
		<stop  offset="0.1124" style="stop-color:#FBCC20"/>
		<stop  offset="0.3816" style="stop-color:#F8E11A"/>
		<stop  offset="0.5273" style="stop-color:#F6EB16"/>
		<stop  offset="0.6283" style="stop-color:#F7E619"/>
		<stop  offset="0.7632" style="stop-color:#F8DB1C"/>
		<stop  offset="0.9165" style="stop-color:#FBCA1F"/>
		<stop  offset="1" style="stop-color:#FEBE20"/>
	</linearGradient>
	<path fill="url(#SVGID_3_)" d="M60.947,143.173c11.231-5.694,21.423-12.894,33.868-12.762c5.175-7.886,14.876-16.192,27.254-22.524
		c3.293-1.687,6.699-3.146,9.947-4.359c20.848-10.413,26.719-12.884,21.473-24.748c-5.25-11.865,19.5-37.665-40.481-18.221
		c-4.079,1.607-8.227,3.532-12.281,5.606c-39.662,20.291-62.543,55.651-53.128,80.8C52.267,146.437,56.784,145.284,60.947,143.173z"
		/>
	<linearGradient id="SVGID_4_" gradientUnits="userSpaceOnUse" x1="97.9521" y1="159.7471" x2="172.1082" y2="111.041">
		<stop  offset="0" style="stop-color:#EB4498"/>
		<stop  offset="0.0985" style="stop-color:#E84292"/>
		<stop  offset="0.2402" style="stop-color:#E03E87"/>
		<stop  offset="0.4079" style="stop-color:#D63877"/>
		<stop  offset="0.5956" style="stop-color:#C93062"/>
		<stop  offset="0.7978" style="stop-color:#B9274A"/>
		<stop  offset="1" style="stop-color:#A81E2F"/>
	</linearGradient>
	<path fill="url(#SVGID_4_)" d="M171.413,106.18c-0.689-1.354-1.678-2.512-2.911-3.485c0.438,0.54,0.837,1.106,1.153,1.728
		c5.272,10.303-8.275,27.771-30.257,39.017c-19.151,9.801-38.382,11.637-46.5,5.137c6.744,8.506,27.547,7.215,48.257-3.381
		C163.138,133.948,176.685,116.481,171.413,106.18z"/>
	<linearGradient id="SVGID_5_" gradientUnits="userSpaceOnUse" x1="112.2344" y1="78.0195" x2="202.6279" y2="78.0195">
		<stop  offset="0" style="stop-color:#FFC221"/>
		<stop  offset="0.1124" style="stop-color:#FBCC20"/>
		<stop  offset="0.3816" style="stop-color:#F8E11A"/>
		<stop  offset="0.5273" style="stop-color:#F6EB16"/>
		<stop  offset="0.6283" style="stop-color:#F7E619"/>
		<stop  offset="0.7632" style="stop-color:#F8DB1C"/>
		<stop  offset="0.9165" style="stop-color:#FBCA1F"/>
		<stop  offset="1" style="stop-color:#FEBE20"/>
	</linearGradient>
	<path fill="url(#SVGID_5_)" d="M199.184,73.515c-9.559-18.688-36.168-25.348-66.147-18.967c-0.332,0.024-19.732,5.878-20.028,6.011
		c-4.069,1.799,8.976,14.494,14.376,26.7c5.401,12.213,0.558,18.071,4.633,16.269c3.366-0.212,17.223-6.163,28.812-4.065
		c6.223-4.862,15.14-5.717,23.585-6.293c2.737-0.187,5.638-0.379,7.582-0.723c2.542-0.458,5.193-1.153,6.585-1.958
		c1.514-0.87,1.226-0.594,2.186-1.628c0.354-0.383,1.039-1.225,1.604-2.498c0.096-0.211,0.179-0.457,0.258-0.705
		C202.253,81.393,201.13,77.313,199.184,73.515z"/>
	<linearGradient id="SVGID_6_" gradientUnits="userSpaceOnUse" x1="8.9062" y1="90.3774" x2="203.3691" y2="90.3774">
		<stop  offset="0" style="stop-color:#EB4498"/>
		<stop  offset="0.0985" style="stop-color:#E84292"/>
		<stop  offset="0.2402" style="stop-color:#E03E87"/>
		<stop  offset="0.4079" style="stop-color:#D63877"/>
		<stop  offset="0.5956" style="stop-color:#C93062"/>
		<stop  offset="0.7978" style="stop-color:#B9274A"/>
		<stop  offset="1" style="stop-color:#A81E2F"/>
	</linearGradient>
	<path fill="url(#SVGID_6_)" d="M133.327,88.62c-7.022-2.927-21.054-27.145-21.054-27.145c1.975,14.704-0.192,18.639-7.219,7.883
		c-7.022-10.754-27.877-49.832-27.877-51.146c0,0,10.095,23.925,17.782,41.707c7.68,17.783,12.073,29.635,6.584,33.37
		C96.058,97.019,84.86,83.188,84.86,83.188s11.855,16.683,0.438,24.147c-11.413,7.463-26.341-18.661-26.341-18.661
		s12.292,20.636,10.682,29.271s-10.682,7.317-10.682,7.317s4.502,8.216-3.948,10.682C40.96,140.046,8.906,79.017,8.906,79.017
		s15.804,39.222,40.099,74.933c14.822,22.448,58.808,24.037,98.531,3.717c27.597-14.121,47.073-35.538,53.192-55.737l0.024-0.052
		c1.01-2.969,3.872-9.198,1.99-20.006c-2.319-13.317-11.525-34.466-36.068-73.023c0,0,12.872,28.021,19.018,44.998
		c6.146,16.979,8.488,27.515,4.977,28.392c-3.511,0.879-7.023-2.634-9.071-9.365c0,0,1.314,6.145-2.93,7.61
		c-5.249,1.809-7.316-2.78-7.316-2.78s2.049,6.938-3.073,7.462c-7.17,0.732-10.537-5.122-42.882-68.196
		c0,0,22.444,53.464,23.85,56.652c5.403,12.209,6.48,23.567,2.412,25.367c9.602-0.613,16.985,1.775,19.755,7.192
		c5.271,10.302-8.275,27.769-30.258,39.015c-21.981,11.246-44.074,12.012-49.344,1.71c-5.271-10.305,8.278-27.771,30.258-39.018
		c3.293-1.687,6.699-3.146,9.947-4.359C134.915,102.24,135.265,96.25,133.327,88.62z"/>
</g>
</svg>
