<?xml version="1.0" encoding="utf-8"?>
<!-- Generator: Adobe Illustrator 16.0.0, SVG Export Plug-In . SVG Version: 6.00 Build 0)  -->
<!DOCTYPE svg PUBLIC "-//W3C//DTD SVG 1.1//EN" "http://www.w3.org/Graphics/SVG/1.1/DTD/svg11.dtd">
<svg version="1.1" id="Layer_1" xmlns="http://www.w3.org/2000/svg" xmlns:xlink="http://www.w3.org/1999/xlink" x="0px" y="0px"
	 width="292.739px" height="180.548px" viewBox="0 0 292.739 180.548" enable-background="new 0 0 292.739 180.548"
	 xml:space="preserve">
<path fill="#41291A" d="M95.832,91.679H65.324V60.381l-15.028,8v23.292h-5.499V53.381l-20.237,12.5v44.265h71.106L95.832,91.679z
	 M46.823,107.004h-4.48v-5.121h4.48V107.004z M46.823,99.962h-4.48v-5.127h4.48V99.962z M54.328,107.004h-4.482v-5.121h4.482
	V107.004z M54.328,99.962h-4.482v-5.127h4.482V99.962z M31.823,107.004h-4.48v-5.121h4.48V107.004z M31.823,99.962h-4.48v-5.127
	h4.48V99.962z M39.328,107.004h-4.482v-5.121h4.482V107.004z M39.328,99.962h-4.482v-5.127h4.482V99.962z"/>
<rect x="103.833" y="53.869" fill="none" width="477.09" height="62.791"/>
<text transform="matrix(1 0 0 1 103.833 110.2646)" fill="#41291A" font-family="'nevis-Bold'" font-size="77">ACT</text>
</svg>
