<?xml version="1.0" encoding="utf-8"?>
<!-- Generator: Adobe Illustrator 16.0.0, SVG Export Plug-In . SVG Version: 6.00 Build 0)  -->
<!DOCTYPE svg PUBLIC "-//W3C//DTD SVG 1.1//EN" "http://www.w3.org/Graphics/SVG/1.1/DTD/svg11.dtd">
<svg version="1.1" id="Layer_1" xmlns="http://www.w3.org/2000/svg" xmlns:xlink="http://www.w3.org/1999/xlink" x="0px" y="0px"
	 width="211.957px" height="180.548px" viewBox="0 0 211.957 180.548" enable-background="new 0 0 211.957 180.548"
	 xml:space="preserve">
<g>
	<defs>
		<rect id="SVGID_1_" x="17.248" y="2.001" width="177.46" height="175.017"/>
	</defs>
	<clipPath id="SVGID_2_">
		<use xlink:href="#SVGID_1_"  overflow="visible"/>
	</clipPath>
	<path clip-path="url(#SVGID_2_)" d="M113.616,2.592c-131.211-12.831-124.658,187.346-3.305,172
		c18.774-2.373,52.903-39.202,55.082,2v-73c3.943-0.46,15.786,1.048,14.322-1c-19.486,0.649-47.707-1.31-61.691,1
		c7.057,1.418,15.666-2.332,18.728,1c1.594,1.736,0,15.082,0,20c0,16.772-0.83,30.662-6.61,38c-18.001,22.854-54.264,7.582-64.997-8
		c-27.264-39.586-26.78-160.539,49.575-151"/>
</g>
<rect x="100.14" y="60.639" fill="#FFFFFF" width="94.568" height="54.154"/>
<polygon points="124.739,80.963 124.739,81.828 137.181,80.41 137.181,176.298 123.104,176.298 123.104,177.018 179.442,177.018 
	179.442,176.298 165.856,176.298 165.856,75.995 "/>
</svg>
