<?xml version="1.0" encoding="utf-8"?>
<!-- Generator: Adobe Illustrator 16.0.0, SVG Export Plug-In . SVG Version: 6.00 Build 0)  -->
<!DOCTYPE svg PUBLIC "-//W3C//DTD SVG 1.1//EN" "http://www.w3.org/Graphics/SVG/1.1/DTD/svg11.dtd">
<svg version="1.1" id="Layer_1" xmlns="http://www.w3.org/2000/svg" xmlns:xlink="http://www.w3.org/1999/xlink" x="0px" y="0px"
	 width="92px" height="151.5px" viewBox="0 0 92 151.5" enable-background="new 0 0 92 151.5" xml:space="preserve">
<g>
	<g>
		<g>
			<polygon fill-rule="evenodd" clip-rule="evenodd" fill="#010101" fill-opacity="0.251" points="7.814,137.545 48.578,127.379 
				89.34,137.545 48.578,147.761 			"/>
		</g>
		<g>
			<polygon fill-rule="evenodd" clip-rule="evenodd" fill="#010101" fill-opacity="0.251" points="15.732,137.748 48.578,129.524 
				81.423,137.748 48.578,146.023 			"/>
		</g>
	</g>
	<g>
		<g>
			<polygon fill-rule="evenodd" clip-rule="evenodd" fill="#CC3A38" points="48.629,144.798 21.964,138.106 21.964,127.021 
				48.629,133.661 			"/>
			<polygon fill-rule="evenodd" clip-rule="evenodd" fill="#971B26" points="48.629,133.661 75.345,127.021 75.345,138.106 
				48.629,144.798 			"/>
			<polygon fill-rule="evenodd" clip-rule="evenodd" fill="#71487F" points="75.345,127.021 48.629,133.661 21.964,127.021 
				48.629,120.38 			"/>
		</g>
		<g>
			<polygon fill-rule="evenodd" clip-rule="evenodd" fill="#CC3A38" points="48.629,134.479 21.964,127.787 21.964,116.703 
				48.629,123.445 			"/>
			<polygon fill-rule="evenodd" clip-rule="evenodd" fill="#971B26" points="48.629,123.445 75.345,116.703 75.345,127.787 
				48.629,134.479 			"/>
			<polygon fill-rule="evenodd" clip-rule="evenodd" fill="#71487F" points="75.345,116.703 48.629,123.445 21.964,116.703 
				48.629,110.012 			"/>
		</g>
		<g>
			<polygon fill-rule="evenodd" clip-rule="evenodd" fill="#CC3A38" points="48.629,124.109 21.964,117.469 21.964,106.385 
				48.629,113.025 			"/>
			<polygon fill-rule="evenodd" clip-rule="evenodd" fill="#971B26" points="48.629,113.025 75.345,106.385 75.345,117.469 
				48.629,124.109 			"/>
			<polygon fill-rule="evenodd" clip-rule="evenodd" fill="#CC3333" points="75.345,106.385 48.629,113.025 21.964,106.385 
				48.629,99.744 			"/>
		</g>
	</g>
	<g>
		<path fill-rule="evenodd" clip-rule="evenodd" fill="#FFFFFF" d="M40.864,39.11c0.002,0.035,0.019,0.07,0.052,0.103l-0.052,0.102
			V39.11z M40.353,44.832l4.292-4.291c1.259,0.205,2.707,0.306,4.341,0.306c0.137,0,0.256,0,0.357,0l-9.501,9.501L40.353,44.832z
			 M57.925,47.334l0.409,4.649L37.851,72.467l0.459-5.518L57.925,47.334z M38.82,61.433l0.511-5.568l15.682-15.733
			c1.465-0.306,2.197-0.715,2.197-1.226l0.307,3.831L38.82,61.433z M59.151,61.229L36.829,83.5l0.511-5.466l21.403-21.403
			L59.151,61.229z M59.969,70.474l-24.06,24.11l0.409-5.567L59.51,65.826L59.969,70.474z M60.734,79.669l-25.897,25.897l0.511-5.465
			l25.03-25.03L60.734,79.669z M62.421,98.16l-11.442,11.392c-0.646,0-1.311,0-1.992,0c-1.055,0-2.042-0.018-2.962-0.051
			l15.988-15.938L62.421,98.16z M61.654,88.914l-20.177,20.178c-0.919-0.136-1.771-0.307-2.554-0.511
			c-0.579-0.136-1.106-0.256-1.583-0.357l23.804-23.906L61.654,88.914z M56.495,109.092l6.283-6.386l0.307,3.27l0.102,0.511
			c-0.204,0.817-1.583,1.516-4.137,2.095C58.232,108.785,57.381,108.956,56.495,109.092z"/>
		<path fill-rule="evenodd" clip-rule="evenodd" fill="#F47F7C" d="M57.925,47.334L38.31,66.949l0.511-5.516l18.697-18.697
			L57.925,47.334z M40.353,44.832l0.511-5.517l0.052-0.102c-0.033-0.033-0.05-0.068-0.052-0.103l0.052-0.511
			c0.17-0.306,0.631-0.579,1.379-0.817c0.273-0.068,0.579-0.137,0.92-0.205c1.362-0.34,3.013-0.527,4.955-0.562
			c0.238,0,0.511,0,0.817,0c1.43,0,2.758,0.085,3.984,0.255c0.612,0.068,1.227,0.171,1.839,0.306
			c0.954,0.205,1.652,0.46,2.094,0.767c0.205,0.137,0.308,0.323,0.308,0.562c0,0.511-0.732,0.92-2.197,1.226L39.332,55.865
			l0.511-5.517l9.501-9.501c-0.102,0-0.221,0-0.357,0c-1.635,0-3.082-0.102-4.341-0.306L40.353,44.832z M37.34,78.034l0.511-5.567
			l20.483-20.484l0.409,4.648L37.34,78.034z M36.318,89.017l0.511-5.517l22.322-22.271l0.358,4.597L36.318,89.017z M35.909,94.584
			l24.06-24.11l0.409,4.597l-25.03,25.03L35.909,94.584z M61.654,88.914l0.357,4.648l-15.988,15.938
			c-1.668-0.104-3.185-0.239-4.546-0.409L61.654,88.914z M62.421,98.16l0.357,4.546l-6.283,6.386
			c-1.703,0.238-3.541,0.392-5.517,0.46L62.421,98.16z M37.34,108.224c-1.703-0.58-2.554-1.227-2.554-1.941
			c0-0.102,0.017-0.205,0.051-0.307v-0.409l25.897-25.897l0.409,4.648L37.34,108.224z"/>
		<path fill-rule="evenodd" clip-rule="evenodd" fill="#724A7F" d="M63.187,106.486l-0.102-0.511
			c0.068,0.068,0.102,0.171,0.102,0.307C63.187,106.315,63.187,106.385,63.187,106.486z"/>
	</g>
</g>
<circle fill="#FFFFFF" cx="49.895" cy="20.353" r="10.971"/>
<g>
	<path fill="#F47F7C" d="M59.037,14.297L43.839,29.495c1.044,0.686,2.214,1.192,3.466,1.491l13.231-13.19
		C60.24,16.532,59.729,15.351,59.037,14.297z"/>
	<path fill="#F47F7C" d="M38.924,19.291l9.908-9.909C43.584,9.867,39.409,14.042,38.924,19.291z"/>
	<path fill="#F47F7C" d="M60.547,22.786l-8.269,8.232C56.379,30.093,59.604,26.879,60.547,22.786z"/>
	<path fill="#F47F7C" d="M53.285,9.884L39.426,23.743c0.403,1.227,1.018,2.355,1.8,3.348l15.37-15.436
		C55.61,10.887,54.496,10.283,53.285,9.884z"/>
	<path fill="#F47F7C" d="M49.855,31.295c0.006,0,0.015-0.001,0.021-0.001c-0.018,0-0.035,0-0.052,0
		C49.835,31.294,49.845,31.295,49.855,31.295z"/>
	<g>
		<defs>
			<path id="SVGID_1_" d="M62.676,10.658l-0.511-4.597l-5.569,5.594l-15.37,15.436l-2.865,2.876
				c0.477,0.102,1.005,0.221,1.583,0.357c0.783,0.205,1.635,0.375,2.554,0.511l1.34-1.34l15.198-15.198L62.676,10.658z"/>
		</defs>
		<clipPath id="SVGID_2_">
			<use xlink:href="#SVGID_1_"  overflow="visible"/>
		</clipPath>
		<polygon clip-path="url(#SVGID_2_)" fill="#D05770" points="61.756,1.413 61.399,-3.185 48.832,9.382 38.924,19.291 
			36.369,21.845 35.858,27.311 39.426,23.743 53.285,9.884 		"/>
		<path clip-path="url(#SVGID_2_)" fill="#D05770" d="M60.547,22.786l2.896-2.882l-0.409-4.597l-2.497,2.489l-13.231,13.19
			l-0.259,0.259c0.865,0.032,1.794,0.047,2.78,0.049c0.017,0,0.034,0,0.052,0c0.045,0,0.087,0.001,0.132,0.001
			c0.681,0,1.345,0,1.991,0l0.278-0.277L60.547,22.786z"/>
	</g>
</g>
<polygon fill-rule="evenodd" clip-rule="evenodd" fill="#FFFFFF" stroke="#666766" stroke-miterlimit="10" points="66.648,139.767 
	60.228,141.376 60.228,126.414 66.648,124.838 "/>
</svg>
