<?xml version="1.0" encoding="utf-8"?>
<!-- Generator: Adobe Illustrator 16.0.0, SVG Export Plug-In . SVG Version: 6.00 Build 0)  -->
<!DOCTYPE svg PUBLIC "-//W3C//DTD SVG 1.1//EN" "http://www.w3.org/Graphics/SVG/1.1/DTD/svg11.dtd">
<svg version="1.1" id="Layer_1" xmlns="http://www.w3.org/2000/svg" xmlns:xlink="http://www.w3.org/1999/xlink" x="0px" y="0px"
	 width="211.957px" height="180.548px" viewBox="0 0 211.957 180.548" enable-background="new 0 0 211.957 180.548"
	 xml:space="preserve">
<g>
	<g>
		<path fill="#41291A" d="M41.544,88.33l43.683,43.69c0.038-4.21,1.652-8.407,4.862-11.617l7.575-7.571L61.504,76.665
			c-14.847-14.859-31.245-5.602-31.245-5.602S31.317,78.114,41.544,88.33z M56.831,94.559c3.542,3.547,5.646,7.545,5.687,10.306
			L46.521,88.872C49.296,88.912,53.29,91.003,56.831,94.559z"/>
	</g>
	<g>
		<path fill="#41291A" d="M92.401,141.617c5.217,5.223,13.688,5.221,18.916,0l64.854-64.84c5.22-5.22,3.547-12.013-1.674-17.246
			c-5.227-5.214-12.303-6.596-17.532-1.382l-64.563,64.564C87.181,127.925,87.185,136.397,92.401,141.617z M103.896,130.121
			c1.312,1.308,1.312,3.44,0,4.747c-1.305,1.305-3.433,1.305-4.737,0c-1.312-1.307-1.312-3.439,0-4.747
			C100.464,128.811,102.592,128.811,103.896,130.121z"/>
	</g>
</g>
</svg>
