<?xml version="1.0" encoding="utf-8"?>
<!-- Generator: Adobe Illustrator 16.0.0, SVG Export Plug-In . SVG Version: 6.00 Build 0)  -->
<!DOCTYPE svg PUBLIC "-//W3C//DTD SVG 1.1//EN" "http://www.w3.org/Graphics/SVG/1.1/DTD/svg11.dtd">
<svg version="1.1" id="Layer_1" xmlns="http://www.w3.org/2000/svg" xmlns:xlink="http://www.w3.org/1999/xlink" x="0px" y="0px"
	 width="211.957px" height="180.548px" viewBox="0 0 211.957 180.548" enable-background="new 0 0 211.957 180.548"
	 xml:space="preserve">
<g>
	<defs>
		<rect id="SVGID_1_" x="33" y="43" width="141.739" height="100.28"/>
	</defs>
	<clipPath id="SVGID_2_">
		<use xlink:href="#SVGID_1_"  overflow="visible"/>
	</clipPath>
	<path clip-path="url(#SVGID_2_)" fill="#B7E2E3" d="M110.67,101.388l-2.123,3.676l-22.064,38.215h44.129h44.128l-13.233-22.921
		C146.894,120.379,128.506,112.676,110.67,101.388"/>
	<path clip-path="url(#SVGID_2_)" fill="#D8EFEE" d="M130.611,66.847l-19.941,34.54c17.836,11.289,36.225,18.992,50.836,18.973
		l-8.831-15.297L130.611,66.847z"/>
	<path clip-path="url(#SVGID_2_)" fill="#98CBCC" d="M61.948,93.14L33.001,143.28l49.211-56.744L33.001,143.28h57.893h57.897
		l-17.785-30.804c-19.664-8.887-40.682-24.184-57.053-40.133L61.948,93.14z"/>
	<path clip-path="url(#SVGID_2_)" fill="#D8EFEE" d="M90.896,43l-16.94,29.344c16.37,15.949,37.388,31.246,57.052,40.133
		L119.843,93.14L90.896,43z"/>
</g>
</svg>
