<?xml version="1.0" encoding="utf-8"?>
<!-- Generator: Adobe Illustrator 16.0.0, SVG Export Plug-In . SVG Version: 6.00 Build 0)  -->
<!DOCTYPE svg PUBLIC "-//W3C//DTD SVG 1.1//EN" "http://www.w3.org/Graphics/SVG/1.1/DTD/svg11.dtd">
<svg version="1.1" id="Layer_1" xmlns="http://www.w3.org/2000/svg" xmlns:xlink="http://www.w3.org/1999/xlink" x="0px" y="0px"
	 width="277.333px" height="59.25px" viewBox="0 0 277.333 59.25" enable-background="new 0 0 277.333 59.25" xml:space="preserve">
<rect y="6.212" fill="none" width="454.736" height="97.456"/>
<text transform="matrix(1 0 0 1 0 52.1016)"><tspan x="0" y="0" fill="#FFFFFF" font-family="'AkzidenzGroteskBE-Md'" font-size="65">TOO</tspan><tspan x="136.759" y="0" fill="#010101" font-family="'AkzidenzGroteskBE-Md'" font-size="65">L</tspan><tspan x="170.624" y="0" fill="#FFFFFF" font-family="'AkzidenzGroteskBE-Md'" font-size="65">I</tspan><tspan x="189.604" y="0" fill="#010101" font-family="'AkzidenzGroteskBE-Md'" font-size="65">ST</tspan></text>
<polygon fill="#010101" points="180.78,27.662 182.014,26.594 180.836,26.142 180.955,24.406 181.24,23.287 181.24,10.411 
	184.458,6.212 179,6.212 179,7.983 176.48,7.983 176.48,6.212 171.021,6.212 174.239,10.411 174.239,24.406 174.519,25.527 
	174.633,27.085 173.467,28.1 174.742,28.588 174.827,29.771 173.603,30.83 174.941,31.343 175.029,32.543 173.88,33.538 
	175.136,34.021 175.224,35.225 174.018,36.272 175.336,36.777 175.42,37.929 175.389,37.934 174.155,39.005 175.537,39.533 
	175.62,40.682 174.435,41.713 175.729,42.211 175.815,43.373 175.803,43.377 174.568,44.442 175.93,44.97 176.013,46.094 
	175.94,46.106 174.707,47.179 176.13,47.722 176.337,50.578 177.738,51.84 179.137,50.578 179.37,47.207 179.537,47.179 
	180.771,46.107 179.48,45.612 179.565,44.416 179.676,44.397 180.912,43.326 179.673,42.854 179.759,41.625 179.813,41.615 
	181.047,40.545 179.865,40.093 179.953,38.837 180.09,38.812 181.323,37.739 180.062,37.258 180.146,36.046 180.229,36.032 
	181.461,34.958 180.255,34.497 180.341,33.254 180.367,33.249 181.599,32.178 180.445,31.735 180.535,30.461 180.643,30.442 
	181.875,29.375 180.644,28.9 180.729,27.672 "/>
<path fill="#010101" d="M81.574,6.142L54.84,6.15L41.461,29.31l13.396,23.165l26.733-0.011l13.354-23.176L81.574,6.142z
	 M68.203,43.229c-7.683,0.002-13.912-6.228-13.916-13.924c-0.003-7.686,6.223-13.929,13.906-13.93
	c7.694-0.007,13.937,6.233,13.94,13.918C82.137,36.992,75.896,43.225,68.203,43.229z"/>
<path fill="#010101" d="M123.574,6.142L96.84,6.15L83.461,29.31l13.396,23.165l26.733-0.011l13.354-23.176L123.574,6.142z
	 M110.203,43.229c-7.683,0.002-13.912-6.228-13.916-13.924c-0.003-7.686,6.223-13.929,13.906-13.93
	c7.694-0.007,13.937,6.233,13.94,13.918C124.137,36.992,117.896,43.225,110.203,43.229z"/>
<g>
	<polygon fill="#010101" points="20.984,19.292 20.984,31.025 30.371,21.639 30.371,19.292 	"/>
</g>
<g>
	<polygon fill="#010101" points="20.984,35.719 20.984,44.166 30.371,34.78 30.371,26.332 	"/>
</g>
<g>
	<path fill="#010101" d="M30.371,39.473l-9.387,8.918v3.755c0,1.02,1.325,2.347,2.347,2.347h4.692c1.021,0,2.348-1.327,2.348-2.347
		V39.473z"/>
</g>
<polygon fill="#010101" points="11.839,16.863 8.927,13.983 8.927,5.213 42.421,5.213 42.421,14.016 39.508,16.863 "/>
</svg>
