<?xml version="1.0" encoding="utf-8"?>
<!-- Generator: Adobe Illustrator 16.0.0, SVG Export Plug-In . SVG Version: 6.00 Build 0)  -->
<!DOCTYPE svg PUBLIC "-//W3C//DTD SVG 1.1//EN" "http://www.w3.org/Graphics/SVG/1.1/DTD/svg11.dtd">
<svg version="1.1" id="Layer_2" xmlns="http://www.w3.org/2000/svg" xmlns:xlink="http://www.w3.org/1999/xlink" x="0px" y="0px"
	 width="31px" height="15.622px" viewBox="0 0 31 15.622" enable-background="new 0 0 31 15.622" xml:space="preserve">
<path fill="#FFFFFF" d="M14.407,10.991c0,1.322,1.223,2.521,2.535,2.521c0.918,0,1.596-0.291,2.317-0.942l-3.277-4.023
	C15.041,9.219,14.407,9.847,14.407,10.991z M17.208,4.67c0.502-0.358,0.896-0.786,0.896-1.345c0-0.74-0.48-1.302-1.29-1.302
	c-0.852,0-1.29,0.562-1.29,1.302c0,0.581,0.481,1.142,1.029,1.792C16.771,4.983,17.208,4.67,17.208,4.67z M14.7,0H6.791
	L0.577,15.619l5.255,0.001l1.016-2.897l4.92,0.005c-0.177-0.537-0.27-1.136-0.27-1.805c0-2.036,1.443-3.359,2.799-4.279
	c-0.635-0.741-1.553-1.861-1.553-3.385C12.745,1.793,13.449,0.617,14.7,0z M7.917,8.972l1.545-4.623l1.506,4.623H7.917z
	 M23.713,11.791c-0.529,0.607-0.549,0.684-0.739,0.902l2.418,2.927l5.14-0.001l0.001-3.827L23.713,11.791z M20.878,3.302
	c0,1.233-0.634,2.065-1.596,2.782c0,0-0.721,0.56-1.115,0.828l3.102,3.747c0.088-0.119,1.087-1.318,1.087-1.318h7.681V5.992h-7.681
	V3.605l8.187-0.007L30.545,0L18.967,0.002C20.178,0.628,20.878,1.832,20.878,3.302z M31.319,14.864c-0.208,0-0.383,0.16-0.383,0.379
	s0.176,0.379,0.383,0.379c0.206,0,0.382-0.16,0.382-0.379S31.525,14.864,31.319,14.864z M31.319,15.561
	c-0.175,0-0.312-0.132-0.312-0.317c0-0.18,0.137-0.316,0.312-0.316c0.174,0,0.309,0.137,0.309,0.316
	C31.628,15.429,31.493,15.561,31.319,15.561z M31.493,15.149c0-0.084-0.051-0.125-0.154-0.125h-0.167v0.438h0.067v-0.189h0.075
	l0.118,0.189h0.073l-0.125-0.192C31.445,15.261,31.493,15.229,31.493,15.149z M31.238,15.218v-0.137h0.09
	c0.077,0,0.098,0.023,0.098,0.062c0,0.047-0.027,0.074-0.109,0.074H31.238z"/>
<path fill="#EC098D" d="M130.145,51.721c0,0.391,0.318,0.709,0.709,0.709h7.506c0.39,0,0.711-0.318,0.711-0.709v-4.137
	c0-0.39-0.321-0.708-0.711-0.708h-7.506c-0.391,0-0.709,0.318-0.709,0.708V51.721z"/>
</svg>
