<?xml version="1.0" encoding="utf-8"?>
<!-- Generator: Adobe Illustrator 16.0.0, SVG Export Plug-In . SVG Version: 6.00 Build 0)  -->
<!DOCTYPE svg PUBLIC "-//W3C//DTD SVG 1.1//EN" "http://www.w3.org/Graphics/SVG/1.1/DTD/svg11.dtd">
<svg version="1.1" id="Layer_2" xmlns="http://www.w3.org/2000/svg" xmlns:xlink="http://www.w3.org/1999/xlink" x="0px" y="0px"
	 width="213.425px" height="27.176px" viewBox="0 0 213.425 27.176" enable-background="new 0 0 213.425 27.176"
	 xml:space="preserve">
<path fill="#455560" d="M209.635,17.203c0-2.885-2.062-3.902-5.372-4.872c-2.901-0.833-3.667-1.385-3.667-2.517
	c0-1.085,0.837-2.009,2.804-2.009c1.655,0,3.657,1.375,3.657,1.375c0.139,0.095,0.349,0.076,0.469-0.041c0,0,1.267-1.229,1.32-1.286
	c0.137-0.153,0.089-0.371-0.054-0.494c-1.427-1.217-3.069-1.932-5.2-1.932c-3.093,0-5.539,1.708-5.539,4.501
	c0,2.887,1.7,3.742,5.25,4.758c2.805,0.808,3.789,1.432,3.789,2.679c0,1.57-1.125,2.356-3.478,2.356
	c-1.929,0-4.124-1.728-4.124-1.728c-0.133-0.104-0.338-0.095-0.46,0.019c0,0-1.205,1.121-1.297,1.215
	c-0.172,0.178-0.162,0.401,0.019,0.582c1.41,1.404,3.392,2.289,5.67,2.289C207.714,22.099,209.635,20.115,209.635,17.203"/>
<path fill="#455560" d="M195.852,21.845c0.167,0,0.236-0.119,0.153-0.263l-5.689-9.773c-0.083-0.144-0.065-0.366,0.042-0.495
	l4.525-5.399c0.11-0.128,0.055-0.233-0.109-0.233h-2.245c-0.166,0-0.392,0.106-0.499,0.235l-4.768,5.746
	c-0.554,0.669-1.654,2.008-1.945,2.424c0.024-0.507,0.045-2.558,0.045-2.558c0.001-0.167,0.004-0.443,0.004-0.609V5.987
	c0-0.169-0.135-0.305-0.306-0.305h-1.835c-0.168,0-0.305,0.136-0.305,0.305v15.554c0,0.168,0.137,0.304,0.305,0.304h1.835
	c0.17,0,0.306-0.136,0.306-0.304v-4.056c0-0.167,0.088-0.409,0.2-0.535l2.719-3.164c0.111-0.127,0.268-0.113,0.354,0.031
	l4.512,7.765c0.082,0.145,0.29,0.263,0.455,0.263H195.852z"/>
<path fill="#455560" d="M176.853,10.577c0,2.074-2.552,2.532-2.552,2.532c-0.166,0.03-0.437,0.054-0.605,0.054h-4.285
	c-0.167,0-0.303-0.137-0.303-0.304V8.271c0-0.167,0.136-0.304,0.303-0.304H174C175.7,7.968,176.853,8.89,176.853,10.577
	 M179.395,10.509c0-4.828-5.091-4.827-5.091-4.827c-0.167,0-0.439,0-0.608,0h-6.754c-0.167,0-0.304,0.136-0.304,0.305v15.554
	c0,0.168,0.137,0.304,0.304,0.304h1.861c0.17,0,0.305-0.136,0.305-0.304v-5.788c0-0.166,0.136-0.305,0.303-0.305h3.181
	c0.168,0,0.367,0.122,0.443,0.271l3.051,5.855c0.08,0.149,0.282,0.271,0.445,0.271h2.298c0.165,0,0.238-0.122,0.161-0.271
	L175.7,15.24C177.872,14.685,179.395,13.095,179.395,10.509 M160.734,13.763c0,3.625-1.606,5.911-4.555,5.911
	c-2.925,0-4.534-2.285-4.534-5.911s1.609-5.91,4.534-5.91C159.128,7.854,160.734,10.138,160.734,13.763 M163.302,13.763
	c0-4.894-2.758-8.335-7.122-8.335c-4.338,0-7.097,3.441-7.097,8.335c0,4.896,2.759,8.335,7.097,8.335
	C160.543,22.099,163.302,18.659,163.302,13.763"/>
<path fill="#455560" d="M147.382,5.98c0.035-0.165-0.075-0.298-0.241-0.298h-1.837c-0.168,0-0.33,0.134-0.364,0.299l-1.981,10.138
	c-0.069,0.392-0.212,1.293-0.334,1.894c-0.097-0.578-0.335-1.576-0.335-1.576c-0.041-0.163-0.107-0.428-0.149-0.59l-2.581-9.869
	c-0.041-0.163-0.213-0.295-0.379-0.295h-1.548c-0.167,0-0.34,0.133-0.382,0.295l-2.61,9.934c-0.118,0.485-0.357,1.57-0.455,2.101
	c-0.07-0.531-0.326-1.827-0.326-1.827c-0.03-0.163-0.082-0.433-0.115-0.596l-1.897-9.608c-0.03-0.166-0.195-0.299-0.361-0.299
	h-1.937c-0.167,0-0.276,0.134-0.239,0.298l3.303,15.567c0.034,0.164,0.199,0.298,0.367,0.298h1.886c0.167,0,0.337-0.132,0.38-0.295
	l2.657-10.142c0.144-0.554,0.407-1.755,0.479-2.146c0.073,0.392,0.41,1.851,0.41,1.851c0.039,0.162,0.104,0.428,0.145,0.59
	l2.462,9.846c0.043,0.164,0.212,0.296,0.38,0.296h1.934c0.166,0,0.333-0.134,0.366-0.298L147.382,5.98z"/>
<path fill="#455560" d="M126.64,8.06c0.167,0,0.305-0.137,0.305-0.305V5.987c0-0.169-0.139-0.305-0.305-0.305h-11.691
	c-0.168,0-0.306,0.136-0.306,0.305v1.768c0,0.168,0.137,0.305,0.306,0.305h4.284c0.166,0,0.305,0.137,0.305,0.304v13.177
	c0,0.168,0.135,0.304,0.303,0.304h1.909c0.167,0,0.305-0.136,0.305-0.304V8.364c0-0.167,0.137-0.304,0.302-0.304H126.64z"/>
<path fill="#455560" d="M111.943,21.845c0.168,0,0.305-0.136,0.305-0.304v-1.747c0-0.167-0.137-0.304-0.305-0.304h-8.049
	c-0.167,0-0.306-0.137-0.306-0.305v-4.494c0-0.168,0.139-0.305,0.306-0.305h4.209c0.167,0,0.304-0.136,0.304-0.305v-1.746
	c0-0.168-0.137-0.305-0.304-0.305h-4.209c-0.167,0-0.306-0.136-0.306-0.304V8.34c0-0.167,0.139-0.302,0.306-0.302h7.687
	c0.169,0,0.304-0.138,0.304-0.305V5.987c0-0.169-0.135-0.305-0.304-0.305h-10.205c-0.167,0-0.305,0.136-0.305,0.305v15.554
	c0,0.168,0.138,0.304,0.305,0.304H111.943z"/>
<path fill="#455560" d="M97.125,21.845c0.166,0,0.305-0.136,0.305-0.304V5.987c0-0.169-0.14-0.305-0.305-0.305h-1.839
	c-0.168,0-0.303,0.136-0.303,0.305v8.03c0,0.901,0.022,3.209,0.022,3.811c-0.238-0.417-1.23-2.028-1.23-2.028
	c-0.087-0.142-0.233-0.372-0.324-0.514l-6.046-9.347c-0.092-0.142-0.304-0.257-0.469-0.257h-1.959c-0.168,0-0.304,0.136-0.304,0.305
	v15.554c0,0.168,0.136,0.304,0.304,0.304h1.838c0.166,0,0.304-0.136,0.304-0.304v-8.078c0-0.901-0.023-3.14-0.023-3.742
	c0.263,0.416,1.084,1.729,1.084,1.729c0.091,0.142,0.239,0.372,0.33,0.51l6.354,9.629c0.093,0.142,0.305,0.255,0.472,0.255H97.125z"
	/>
<g>
	<path fill="#455560" d="M63.661,22.151c-0.389,0-0.708-0.32-0.708-0.71v-4.767c0-0.389,0.319-0.708,0.708-0.708h9.145
		c0.389,0,0.708-0.32,0.708-0.709v-4.136c0-0.39-0.32-0.708-0.708-0.708h-9.145c-0.389,0-0.708-0.32-0.708-0.709v-3.97
		c0-0.39,0.319-0.709,0.708-0.709h12.931c0.392,0,0.711-0.319,0.711-0.708V0.708C77.303,0.318,76.983,0,76.592,0H57.687
		c-0.391,0-0.711,0.318-0.711,0.708v25.758c0,0.39,0.32,0.709,0.711,0.709h19.209c0.388,0,0.707-0.319,0.707-0.709V22.86
		c0-0.391-0.319-0.709-0.707-0.709H63.661z"/>
	<path fill="#455560" d="M15.965,15.002c0.127,0.37-0.089,0.672-0.479,0.672h-4.928c-0.39,0-0.602-0.301-0.472-0.668l2.713-7.639
		c0.13-0.368,0.254-0.669,0.275-0.669s0.143,0.303,0.269,0.671L15.965,15.002z M25.648,27.176c0.39,0,0.599-0.299,0.46-0.664
		L16.443,0.664C16.307,0.298,15.876,0,15.486,0h-4.708c-0.391,0-0.823,0.298-0.961,0.664L0.043,26.512
		c-0.138,0.365,0.067,0.664,0.458,0.664h4.594c0.39,0,0.816-0.301,0.945-0.669l1.622-4.609c0.129-0.367,0.555-0.667,0.945-0.667
		h8.817c0.389,0,0.812,0.302,0.938,0.671l1.562,4.603c0.125,0.37,0.548,0.672,0.937,0.672H25.648z"/>
	<path fill="#EC098D" d="M26.728,15.617c0,0.39,0.318,0.709,0.709,0.709h7.505c0.39,0,0.711-0.319,0.711-0.709v-4.137
		c0-0.39-0.321-0.708-0.711-0.708h-7.505c-0.391,0-0.709,0.318-0.709,0.708V15.617z"/>
	<path fill="#00B6DE" d="M44.114,15.616c0,0.39,0.319,0.708,0.71,0.708h7.445c0.391,0,0.709-0.319,0.709-0.708v-4.133
		c0-0.39-0.318-0.709-0.709-0.709h-7.445c-0.391,0-0.71,0.319-0.71,0.709V15.616z"/>
	<g>
		<g>
			<path fill="#F78E1E" d="M37.102,18.52c0-0.39,0.319-0.709,0.71-0.709h4.132c0.391,0,0.709,0.32,0.709,0.709v7.072
				c0,0.389-0.319,0.707-0.709,0.707h-4.132c-0.391,0-0.71-0.318-0.71-0.707V18.52z"/>
		</g>
	</g>
	<g>
		<g>
			<path fill="#455560" d="M37.102,8.425c0,0.39,0.319,0.708,0.71,0.708h4.132c0.391,0,0.709-0.318,0.709-0.708V0.978
				c0-0.39-0.319-0.709-0.709-0.709h-4.132c-0.391,0-0.71,0.319-0.71,0.709V8.425z"/>
		</g>
	</g>
</g>
<g>
	<path fill="#455560" d="M210.707,20.443h-0.499V20.24h1.228v0.203h-0.499v1.402h-0.23V20.443z"/>
	<path fill="#455560" d="M211.667,20.24h0.381l0.503,1.334l0.496-1.334h0.377v1.605h-0.229v-1.389h-0.004l-0.531,1.389h-0.226
		l-0.532-1.389h-0.005v1.389h-0.23V20.24z"/>
</g>
</svg>
