<?xml version="1.0" encoding="utf-8"?>
<!-- Generator: Adobe Illustrator 16.0.0, SVG Export Plug-In . SVG Version: 6.00 Build 0)  -->
<!DOCTYPE svg PUBLIC "-//W3C//DTD SVG 1.1//EN" "http://www.w3.org/Graphics/SVG/1.1/DTD/svg11.dtd">
<svg version="1.1" id="Layer_1" xmlns="http://www.w3.org/2000/svg" xmlns:xlink="http://www.w3.org/1999/xlink" x="0px" y="0px"
	 width="100px" height="88px" viewBox="0 0 100 88" enable-background="new 0 0 100 88" xml:space="preserve">
<g id="Layer_x0020_1">
	<g>
		<path d="M98.598,33.889H85.674L59.756,4.072c0.057-0.245,0.088-0.501,0.088-0.765c0-1.826-1.48-3.307-3.307-3.307
			S53.23,1.481,53.23,3.307c0,1.827,1.48,3.307,3.307,3.307c0.332,0,0.652-0.049,0.955-0.14l23.831,27.415H18.945L42.776,6.474
			c0.303,0.091,0.623,0.14,0.955,0.14c1.827,0,3.307-1.48,3.307-3.307c0-1.826-1.48-3.307-3.307-3.307
			c-1.826,0-3.307,1.481-3.307,3.307c0,0.264,0.031,0.52,0.089,0.765L14.595,33.889H1.403l0,0c-0.723,0-1.496,0.614-1.313,1.313
			l0.892,3.425c0.182,0.699,0.594,1.314,1.313,1.313l95.451-0.162c0.72-0.001,1.133-0.617,1.313-1.313l0.851-3.263
			C100.092,34.506,99.32,33.889,98.598,33.889z"/>
		<path d="M96.705,42.03H3.301c-0.723,0-1.491,0.613-1.313,1.313l10.949,43.343C13.113,87.387,13.531,88,14.25,88h71.507
			c0.718,0,1.138-0.617,1.313-1.313l10.948-43.343C98.195,42.646,97.428,42.03,96.705,42.03z M25.045,78.149
			c0,0.722-0.591,1.313-1.313,1.313h0c-0.722,0-1.313-0.592-1.313-1.313V51.881c0-0.723,0.591-1.313,1.313-1.313h0
			c0.723,0,1.313,0.591,1.313,1.313V78.149z M38.179,78.149c0,0.722-0.591,1.313-1.313,1.313h0c-0.723,0-1.313-0.592-1.313-1.313
			V51.881c0-0.723,0.591-1.313,1.313-1.313h0c0.722,0,1.313,0.591,1.313,1.313V78.149z M51.316,78.149
			c0,0.722-0.591,1.313-1.313,1.313s-1.313-0.592-1.313-1.313V51.881c0-0.723,0.591-1.313,1.313-1.313s1.313,0.591,1.313,1.313
			V78.149z M64.448,78.149c0,0.722-0.591,1.313-1.313,1.313s-1.313-0.592-1.313-1.313V51.881c0-0.723,0.591-1.313,1.313-1.313
			s1.313,0.591,1.313,1.313V78.149z M77.582,78.149c0,0.722-0.59,1.313-1.312,1.313s-1.314-0.592-1.314-1.313V51.881
			c0-0.723,0.592-1.313,1.314-1.313s1.312,0.591,1.312,1.313V78.149z"/>
	</g>
</g>
</svg>
