<?xml version="1.0" encoding="utf-8"?>
<!-- Generator: Adobe Illustrator 16.0.0, SVG Export Plug-In . SVG Version: 6.00 Build 0)  -->
<!DOCTYPE svg PUBLIC "-//W3C//DTD SVG 1.1//EN" "http://www.w3.org/Graphics/SVG/1.1/DTD/svg11.dtd">
<svg version="1.1" id="Layer_1" xmlns="http://www.w3.org/2000/svg" xmlns:xlink="http://www.w3.org/1999/xlink" x="0px" y="0px"
	 width="296.908px" height="231.958px" viewBox="0 0 296.908 231.958" enable-background="new 0 0 296.908 231.958"
	 xml:space="preserve">
<g id="mtv">
	<g>
		<path fill="#FFFFFF" d="M255.677,20.784c0,0,0-0.192-0.191-0.192c-4.426-2.887-8.854-5.581-13.473-8.275c0,0,0,0.192,0,0.387
			c0,20.206,0,40.22,0.388,59.851c5.386-7.506,11.351-14.435,17.704-21.17c1.156-2.694,2.693-5.004,4.812-6.929
			c1.925-2.118,4.232-3.656,6.929-4.812c5.389-2.115,9.815-1.732,13.469,1.541c0.385,0.961,0.77,2.117,1.154,2.886
			c1.543,7.891,0.196,14.048-4.23,18.668c-7.7,2.694-13.666,7.121-18.283,13.086c-6.544,8.468-12.51,17.898-17.513,27.905
			c-1.347,0.771-2.118,2.117-2.888,3.85c-0.387,0.769-0.387,1.73-0.578,2.694c-0.771,9.814-1.151,20.206-1.151,30.791
			c0,20.397,0.19,40.414,0.577,60.43c0.191,0,0.191,0,0.191,0c4.426-3.272,8.853-6.353,13.47-9.431c0-13.279,0-26.366,0-39.645
			c0-20.015,0-40.415,0-60.621h0.192c5.006-8.275,10.971-15.589,17.707-22.131c0.191,0,0.191,0,0.383,0
			c5.004-1.732,9.24-4.234,12.508-7.7c0.962-1.923,1.928-3.848,2.697-5.773c2.308-6.927,1.539-12.893-2.121-17.896
			c-3.653-3.079-8.656-4.041-14.814-2.694c-1.734,0.385-3.081,0.961-4.234,1.925c-5.197,3.463-9.045,7.891-12.318,13.084
			c0,0,0-0.192,0-0.384C256.255,40.221,256.063,30.407,255.677,20.784L255.677,20.784L255.677,20.784L255.677,20.784z
			 M111.341,138.948c-4.041-4.043-7.891-8.082-12.123-11.933c0,4.621,0,9.24,0,14.049c-0.192,20.398-0.192,40.414,0.192,60.43
			c0.192,0,0.192,0,0.192,0c3.848-3.273,7.891-6.16,11.934-9.044c0-0.192,0-0.387,0-0.387c0-17.704,0-35.41,0-53.116
			C111.536,138.948,111.536,138.948,111.341,138.948L111.341,138.948L111.341,138.948L111.341,138.948z M149.061,125.861
			c-7.312,5.775-14.625,11.738-21.747,17.514v0.192c5.199-0.961,10.585-1.925,15.976-3.079c0-0.191,0-0.385,0-0.385
			c1.923-1.541,4.04-3.079,6.158-4.619c0-0.192,0-0.385,0-0.579C149.448,131.636,149.448,128.556,149.061,125.861L149.061,125.861
			L149.061,125.861L149.061,125.861z M130.203,30.407c-1.541-1.156-2.889-2.118-4.235-2.887
			c-7.314-4.812-15.205-8.854-23.672-12.125c-0.192,0.192-0.192,0.192,0,0.192c6.542,7.506,13.471,15.204,20.208,22.71
			c0-0.194,0-0.387,0.19-0.387C125.197,35.409,127.701,32.909,130.203,30.407L130.203,30.407L130.203,30.407L130.203,30.407z
			 M208.912,106.808c0.387,5.775,2.502,9.623,6.354,11.546c1.539-0.192,2.5-0.769,3.08-1.923c1.346-3.079,2.694-6.35,4.426-9.623
			c1.732-3.079,3.271-6.35,5.004-9.236c3.464-6.927,7.119-13.664,10.585-20.4c0-1.346,0-2.694,0-4.04c0-20.4,0-40.606,0-60.814
			c-8.276,0-16.743,0-25.021,0c-20.398,0-40.606,0-61.004,0c0,0,0,0.192,0,0.387c-10.201,10.198-20.401,20.206-30.6,30.212
			c-0.192,0-0.192,0-0.192,0c-8.854-10.391-17.901-20.783-27.33-30.599c-8.083,0-15.973,0-24.056,0c-20.208,0-40.606,0-60.813,0
			c0,2.31,0,4.62,0,6.929c0,20.206,0,40.414,0,60.62c0,9.046,0,18.091,0,26.942c0,11.354,0,22.708,0,34.064
			c0,20.206,0,40.414,0,60.622c8.66,0,17.32,0,25.981,0c20.206,0,40.604,0,60.812,0c0-7.506,0-15.204-0.192-22.71
			c-0.192-20.398,0-40.607,0.384-60.43c0,0,0,0,0.192,0.194c8.275,8.66,16.743,17.319,25.212,25.982c0-0.191,0.19-0.191,0.19-0.389
			c10.201-8.658,20.595-17.512,30.792-26.172c0,7.504,0,15.204,0,22.902c0,20.206,0,40.414,0,60.622c8.467,0,16.936,0,25.598,0
			c20.398,0.192,40.414,0,60.234-0.387c0-7.889,0-15.587,0-23.477c0-20.207-0.191-40.225-0.384-60.045
			c-3.657,5.387-6.737,11.74-9.239,18.283c-0.385,0.771-0.576,1.925-0.576,2.694c0,9.624-2.118,16.552-6.543,21.169
			c-0.191,0-0.387,0-0.387,0.192c-3.463,1.346-6.734,1.153-10.008-0.386c0-0.192,0-0.384,0-0.384
			c-0.385-0.387-0.961-0.77-1.345-0.961c-2.118-3.466-3.656-7.122-4.81-11.165c-3.851-13.47-7.891-26.942-12.125-40.222
			c-0.578-2.115-1.35-4.232-1.926-6.542c-1.539-4.618-1.732-8.852-0.385-13.087c0-0.192,0-0.192,0-0.192
			c2.118-1.156,4.041-2.31,5.965-3.464c0.195,0,0.385,0,0.385,0c2.891-0.192,5.392-0.192,7.892,0c0,0.192,0,0.192,0,0.385
			c0.772,0.577,1.541,1.154,2.116,2.115c0.771,3.658,1.156,7.508,1.541,11.549c0.19,2.117,0.385,4.232,0.19,6.542
			C208.72,105.078,208.72,106.04,208.912,106.808L208.912,106.808L208.912,106.808z M134.243,106.808
			c-2.118,2.31-4.04,5.004-5.581,8.085c0,0.192,0,0.192,0,0.385c-3.658,2.308-7.12,2.115-10.585-0.385c-0.192,0-0.192,0-0.385,0
			c-1.733-1.925-2.886-4.234-3.465-7.313c0-0.192,0-0.385,0-0.385c0-0.192,0-0.192,0-0.387c1.732-5.773,5.775-9.236,12.317-10.393
			c1.348-0.192,2.502-0.767,3.658-1.539c0.769-0.769,1.923-1.154,3.079-1.539c7.121-5.583,15.01-10.392,23.479-14.435
			c0.193,0,0.385,0,0.385,0c0.77-0.964,1.347-1.925,1.924-2.887c0-0.192,0-0.192,0.191-0.192c-0.381-1.925-0.769-3.85-0.961-6.157
			v-0.192c0.58-1.156,1.154-2.117,1.926-2.889c0-0.192,0-0.385,0-0.577c1.346-1.346,3.271-2.118,5.58-2.887v-0.192
			c3.849,0.577,7.312,0.961,10.394,0.961c0.961,0,1.924-0.192,2.886-0.385c4.426-1.541,8.469-3.271,12.315-5.196
			c2.118-3.848,5.583-6.542,9.815-8.468l0,0c0.192,0,0.192,0,0.192-0.191c1.54,0,3.078,0,4.619,0c0.19,0,0.19,0,0.385,0
			c1.154,0.961,2.31,1.925,3.463,3.079c0,0,0,0,0.192,0c1.541,5.004,0.576,8.854-2.887,11.738v0.194
			c-6.351,2.694-12.508,5.965-17.898,9.621h-0.191c-3.076,0.385-5.582,1.541-7.312,3.081c-0.191,0.192-0.191,0.192-0.191,0.192
			c-0.771,8.852-0.771,18.476,0,28.866c0,0.192,0,0.384,0,0.384c0.385,2.696,0.385,5.391,0.385,8.085
			c0,11.739,0.191,23.477,0.385,35.602c0.191,2.502,0.578,4.812,1.346,7.121c0.964,3.077,1.541,6.542,1.732,10.006
			c0.388,2.887,0.193,5.581-0.578,7.891c-0.383,0.576-0.577,1.349-0.77,2.117c-0.962,0.77-1.73,1.541-2.5,2.502
			c0,0.191,0,0.191,0,0.383c-5.389,1.541-10.201,1.156-14.628-1.344c0,0-0.192,0-0.385,0c-1.541-4.621-2.694-10.201-3.078-16.169
			c-0.194-2.309-0.579-4.235-1.157-6.542c-1.154-5.004-1.154-10.393,0-16.164c0.385-1.156,0.577-2.311,0.771-3.464
			c0.579-7.891,0.771-15.78,0.579-23.864c-0.191-2.117-0.191-4.235-0.191-6.16c-0.578-5.965-1.541-11.546-2.693-16.743
			c-4.621,1.541-8.66,3.658-12.125,6.35c-3.463,2.694-6.927,5.004-10.777,7.314l0,0C136.553,104.5,135.397,105.655,134.243,106.808
			L134.243,106.808L134.243,106.808z"/>
		<path fill="#FFFFFF" d="M247.21,208.037c-1.925,0-3.656,1.73-3.656,3.658c0,1.923,1.731,3.465,3.656,3.465
			c1.924,0,3.465-1.542,3.465-3.465C250.675,209.767,249.136,208.037,247.21,208.037L247.21,208.037L247.21,208.037L247.21,208.037z
			 M247.21,214.964c-1.73,0-3.271-1.539-3.271-3.27c0-1.928,1.346-3.273,3.271-3.273s3.271,1.346,3.271,3.273
			C250.482,213.425,249.136,214.964,247.21,214.964L247.21,214.964L247.21,214.964L247.21,214.964z"/>
		<polygon fill="#FFFFFF" points="18.774,220.929 18.582,220.929 14.54,206.882 9.153,206.882 9.153,227.283 12.809,227.283 
			12.809,213.041 17.041,227.283 19.93,227.283 24.355,212.847 24.355,227.283 28.011,227.283 28.011,206.882 22.622,206.882 		"/>
		<path fill="#FFFFFF" d="M41.485,219.583c0,3.081-0.771,4.62-3.466,4.62c-3.271,0-3.656-2.311-3.656-4.62l0,0v-12.7h-3.85v12.7
			c0,5.581,2.696,8.277,7.506,8.277c4.62,0,7.314-2.696,7.314-8.277l0,0v-12.7h-3.848V219.583L41.485,219.583L41.485,219.583z"/>
		<path fill="#FFFFFF" d="M57.073,215.16c-4.62-1.156-5.583-1.35-5.583-3.081c0-1.735,1.541-2.312,2.887-2.312
			c1.925,0,3.466,0.576,3.658,3.272l0,0h3.848c0-4.812-3.463-6.735-7.313-6.735c-3.463,0-6.927,1.925-6.927,6.352
			c0,3.85,2.694,5.004,5.389,5.773c2.887,0.769,5.581,1.153,5.581,3.272c0,2.115-2.117,2.692-3.655,2.692
			c-2.118,0-4.042-1.154-4.042-3.85l0,0h-3.848c-0.192,5.004,3.655,7.315,7.698,7.315c5.002,0,7.696-2.696,7.696-6.547
			C62.458,216.699,58.419,215.738,57.073,215.16L57.073,215.16L57.073,215.16L57.073,215.16z"/>
		<polygon fill="#FFFFFF" points="64.962,227.283 69.004,227.283 69.004,206.882 64.962,206.882 		"/>
		<path fill="#FFFFFF" d="M80.935,224.203c-3.655,0-5.004-3.656-5.004-7.12c0-3.465,1.348-6.927,5.004-6.927
			c1.925,0,3.656,1.539,4.042,3.654l0,0h3.848c-0.385-4.812-3.848-7.506-7.891-7.506c-5.773,0-9.044,4.81-9.044,10.779
			c0,6.158,3.271,10.777,9.044,10.777c4.427,0,7.698-3.273,8.083-8.471l0,0h-4.04C84.783,222.28,83.439,224.203,80.935,224.203
			L80.935,224.203L80.935,224.203L80.935,224.203z"/>
		<polygon fill="#FFFFFF" points="94.407,210.733 99.987,210.733 99.987,227.283 104.03,227.283 104.03,210.733 109.611,210.733 
			109.611,206.882 94.407,206.882 		"/>
		<polygon fill="#FFFFFF" points="115.384,218.622 124.236,218.622 124.236,214.964 115.384,214.964 115.384,210.733 
			125.005,210.733 125.005,206.882 111.149,206.882 111.149,227.283 125.197,227.283 125.197,223.625 115.384,223.625 		"/>
		<polygon fill="#FFFFFF" points="131.357,206.882 127.314,206.882 127.314,227.283 139.44,227.283 139.44,223.625 131.357,223.625 
					"/>
		<polygon fill="#FFFFFF" points="145.213,218.622 154.259,218.622 154.259,214.964 145.213,214.964 145.213,210.733 
			155.028,210.733 155.028,206.882 141.17,206.882 141.17,227.283 155.22,227.283 155.22,223.625 145.213,223.625 		"/>
		<polygon fill="#FFFFFF" points="164.267,221.314 164.267,221.314 160.224,206.882 155.99,206.882 161.955,227.283 
			166.574,227.283 172.732,206.882 168.5,206.882 		"/>
		<polygon fill="#FFFFFF" points="175.042,227.283 179.085,227.283 179.085,206.882 175.042,206.882 		"/>
		<path fill="#FFFFFF" d="M190.246,215.16c-4.619-1.156-5.39-1.35-5.39-3.081c0-1.735,1.541-2.312,2.696-2.312
			c1.922,0,3.655,0.576,3.655,3.272l0,0h4.042c0-4.812-3.658-6.735-7.506-6.735c-3.271,0-6.929,1.925-6.929,6.352
			c0,3.85,2.886,5.004,5.581,5.773c2.693,0.769,5.58,1.153,5.58,3.272c0,2.115-2.309,2.692-3.654,2.692
			c-2.118,0-4.042-1.154-4.042-3.85l0,0h-4.041c0,5.004,3.849,7.315,7.892,7.315c5.004,0,7.698-2.696,7.698-6.547
			C195.826,216.699,191.593,215.738,190.246,215.16L190.246,215.16L190.246,215.16L190.246,215.16z"/>
		<polygon fill="#FFFFFF" points="198.714,227.283 202.755,227.283 202.755,206.882 198.714,206.882 		"/>
		<path fill="#FFFFFF" d="M213.724,206.304c-5.774,0-9.045,4.809-9.045,10.778c0,6.158,3.271,10.777,9.045,10.777
			c5.773,0,9.045-4.62,9.045-10.777C222.769,211.114,219.499,206.304,213.724,206.304L213.724,206.304L213.724,206.304
			L213.724,206.304z M213.724,224.203c-3.656,0-5.004-3.656-5.004-7.12c0-3.465,1.347-6.927,5.004-6.927
			c3.656,0,5.006,3.461,5.006,6.927C218.728,220.544,217.382,224.203,213.724,224.203L213.724,224.203L213.724,224.203z"/>
		<polygon fill="#FFFFFF" points="236.048,220.544 236.048,220.544 228.351,206.882 224.31,206.882 224.31,227.283 228.158,227.283 
			228.158,213.618 228.158,213.618 235.857,227.283 239.899,227.283 239.899,206.882 236.048,206.882 		"/>
		<path fill="#FFFFFF" d="M247.787,211.886c0.577-0.191,0.965-0.576,0.965-1.153c0-0.772-0.388-1.158-1.35-1.158l0,0h-1.54v4.235
			h0.386v-1.924h1.154l1.154,1.924h0.58L247.787,211.886L247.787,211.886L247.787,211.886z M247.21,211.503h-0.962v-1.543h1.154
			c0.577,0,1.155,0,1.155,0.773C248.556,211.31,247.787,211.503,247.21,211.503L247.21,211.503L247.21,211.503L247.21,211.503z"/>
	</g>
</g>
</svg>
