<?xml version="1.0" encoding="utf-8"?>
<!-- Generator: Adobe Illustrator 16.0.0, SVG Export Plug-In . SVG Version: 6.00 Build 0)  -->
<!DOCTYPE svg PUBLIC "-//W3C//DTD SVG 1.1//EN" "http://www.w3.org/Graphics/SVG/1.1/DTD/svg11.dtd">
<svg version="1.1"
	 id="svg4278" xmlns:inkscape="http://www.inkscape.org/namespaces/inkscape" xmlns:sodipodi="http://sodipodi.sourceforge.net/DTD/sodipodi-0.dtd" xmlns:svg="http://www.w3.org/2000/svg" xmlns:rdf="http://www.w3.org/1999/02/22-rdf-syntax-ns#" xmlns:cc="http://creativecommons.org/ns#" xmlns:dc="http://purl.org/dc/elements/1.1/" inkscape:version="0.47 r22583" sodipodi:docname="Nickelodeon.svg"
	 xmlns="http://www.w3.org/2000/svg" xmlns:xlink="http://www.w3.org/1999/xlink" x="0px" y="0px" width="385.715px"
	 height="55.738px" viewBox="0 0 385.715 55.738" enable-background="new 0 0 385.715 55.738" xml:space="preserve">
<sodipodi:namedview  id="namedview29" borderopacity="1" pagecolor="#ffffff" bordercolor="#666666" objecttolerance="10" gridtolerance="10" guidetolerance="10" showgrid="false" inkscape:zoom="1.3999969" inkscape:cx="192.85757" inkscape:cy="27.86902" inkscape:current-layer="svg4278" inkscape:window-maximized="1" inkscape:window-y="-4" inkscape:window-x="-4" inkscape:window-height="712" inkscape:window-width="1024" inkscape:pageopacity="0" inkscape:pageshadow="2">
	</sodipodi:namedview>
<defs>
	
	
		<inkscape:perspective  id="perspective33" sodipodi:type="inkscape:persp3d" inkscape:vp_x="0 : 27.869017 : 1" inkscape:vp_y="0 : 1000 : 0" inkscape:vp_z="385.71515 : 27.869017 : 1" inkscape:persp3d-origin="192.85757 : 18.579344 : 1">
		</inkscape:perspective>
</defs>
<path id="path96604" fill="#FFFFFF" d="M18.757,18.194c-5.159-0.006-9.892,2.11-13.267,5.497C2.11,27.06-0.006,31.793,0,36.957
	v17.137h14.237v-7.501v-9.347c0.006-2.054,0.495-3.807,1.327-5.166c0.839-1.34,1.922-2.135,3.193-2.141
	c1.271,0.006,2.354,0.801,3.193,2.141c0.833,1.359,1.321,3.112,1.327,5.166v16.848h14.243V36.957c0-5.164-2.116-9.897-5.497-13.266
	C28.649,20.304,23.916,18.188,18.757,18.194"/>
<path id="path96608" fill="#FFFFFF" d="M359.677,18.194c-5.158-0.006-9.892,2.11-13.267,5.497c-3.38,3.368-5.496,8.102-5.49,13.266
	v17.137h14.237v-7.501v-9.347c0.006-2.054,0.494-3.807,1.327-5.166c0.839-1.34,1.922-2.135,3.192-2.141
	c1.271,0.006,2.354,0.801,3.193,2.141c0.833,1.359,1.321,3.112,1.327,5.166v16.848h14.243V36.957c0-5.164-2.116-9.897-5.497-13.266
	C369.569,20.304,364.836,18.188,359.677,18.194"/>
<path id="path96612" fill="#FFFFFF" d="M52.845,13.583c1.434-1.434,2.317-3.412,2.317-5.597c0-2.191-0.883-4.169-2.317-5.597
	c-1.434-1.434-3.412-2.323-5.597-2.323c-2.185,0-4.164,0.889-5.597,2.323c-1.434,1.427-2.323,3.406-2.323,5.597
	c0,2.185,0.889,4.164,2.323,5.597l1.747,1.747c2.917,2.923,3.124,3.694,0.351,6.467l-1.59,1.59c-1.302,1.309-2.11,3.105-2.11,5.097
	V54.09h14.394V28.483c0-1.991-0.801-3.788-2.104-5.097l-1.59-1.584c-2.773-2.773-2.567-3.55,0.351-6.473L52.845,13.583z"/>
<path id="path96616" fill="#FFFFFF" d="M78.358,42.941c-0.839,1.546-1.928,2.467-3.193,2.473c-1.271-0.006-2.36-0.927-3.199-2.473
	c-0.826-1.565-1.321-3.594-1.321-5.967s0.495-4.395,1.321-5.967c0.839-1.546,1.928-2.467,3.199-2.473
	c1.265,0.006,2.354,0.927,3.193,2.473c0.614,1.165,1.04,2.58,1.221,4.201h14.262c-0.419-4.464-2.417-8.515-5.409-11.501
	c-3.375-3.387-8.114-5.497-13.267-5.497c-5.159,0-9.898,2.11-13.267,5.497c-3.387,3.375-5.503,8.108-5.497,13.267
	c-0.006,5.158,2.11,9.893,5.497,13.267c2.598,2.599,7.119,5.497,13.267,5.497c4.614,0,8.89-1.697,12.158-4.477
	c2.379-2.022,5.91-6.079,6.518-12.521H79.579C79.397,40.361,78.972,41.776,78.358,42.941"/>
<path id="path96620" fill="#FFFFFF" d="M144.349,33.596c0.257-1.096,0.601-2.06,0.939-2.779c0.632-1.359,1.922-2.467,3.193-2.474
	c1.283,0.006,2.329,0.914,3.218,2.523c0.388,0.694,0.732,1.903,0.902,2.704L144.349,33.596L144.349,33.596z M148.481,18.182
	c-5.159-0.006-9.892,2.11-13.267,5.491c-3.381,3.375-5.497,8.114-5.497,13.273c0,5.158,2.116,9.892,5.497,13.267
	c3.287,3.286,7.938,5.49,13.348,5.49c5.572,0,10.186-2.485,13.297-5.609c3.919-4.495,4.107-9.304,4.107-9.304h-12.697
	c0,0-1.759,4.433-4.79,4.433c-1.271-0.006-2.354-0.92-3.193-2.473c-0.57-1.071-0.977-2.366-1.177-3.831h22.107
	c0,0,1.515-9.022-4.533-15.126C158.173,20.235,153.697,18.176,148.481,18.182"/>
<path id="path96624" fill="#FFFFFF" d="M277.664,33.596c0.257-1.096,0.602-2.06,0.939-2.779c0.632-1.359,1.922-2.467,3.192-2.474
	c1.284,0.006,2.329,0.914,3.218,2.523c0.389,0.694,0.732,1.903,0.902,2.704L277.664,33.596z M281.796,18.182
	c-5.159-0.006-9.892,2.11-13.267,5.491c-3.381,3.375-5.496,8.114-5.496,13.273c0,5.158,2.115,9.892,5.496,13.267
	c3.287,3.286,7.939,5.49,13.348,5.49c5.572,0,10.181-2.485,13.299-5.609c3.919-4.495,4.106-9.304,4.106-9.304h-12.696
	c0,0-1.76,4.433-4.79,4.433c-1.271-0.006-2.354-0.92-3.192-2.473c-0.57-1.071-0.977-2.366-1.178-3.831h22.107
	c0,0,1.515-9.022-4.533-15.126C291.488,20.235,287.012,18.176,281.796,18.182"/>
<path id="path96628" fill="#FFFFFF" d="M175.364,0c-3.932,0-7.118,3.193-7.118,7.125l0.019,46.961h14.243l-0.019-46.967
	C182.489,3.187,179.296,0,175.364,0"/>
<path id="path96632" fill="#FFFFFF" d="M203.234,45.404c-2.492,0-4.521-3.781-4.521-8.451c0-4.664,2.028-8.446,4.521-8.446
	c2.498,0,4.52,3.782,4.52,8.446C207.754,41.623,205.732,45.404,203.234,45.404 M203.234,18.195
	c-10.362,0-18.764,8.396-18.764,18.758c0,10.361,8.402,18.764,18.764,18.764c10.361,0,18.764-8.402,18.764-18.764
	C221.998,26.591,213.596,18.195,203.234,18.195"/>
<path id="path96636" fill="#FFFFFF" d="M320.395,45.404c-2.492,0-4.521-3.781-4.521-8.451c0-4.664,2.028-8.446,4.521-8.446
	c2.491,0,4.52,3.782,4.52,8.446C324.914,41.623,322.886,45.404,320.395,45.404 M320.395,18.195
	c-10.362,0-18.764,8.396-18.764,18.758c0,10.361,8.401,18.764,18.764,18.764c10.361,0,18.763-8.402,18.763-18.764
	C339.157,26.591,330.756,18.195,320.395,18.195"/>
<path id="path96640" fill="#FFFFFF" d="M242.466,45.404c-2.492,0-4.521-3.781-4.521-8.451c0-4.664,2.028-8.446,4.521-8.446
	c2.497,0,4.521,3.782,4.521,8.446C246.986,41.623,244.963,45.404,242.466,45.404 M261.223,36.959l0.031,0.013l-0.019-29.857
	c-0.007-3.932-3.192-7.119-7.125-7.112c-3.932,0-7.118,3.193-7.118,7.125l0.006,11.645c-1.459-0.363-2.974-0.557-4.533-0.557
	c-5.158-0.006-9.892,2.11-13.266,5.497c-3.381,3.368-5.498,8.107-5.491,13.26c-0.006,5.159,2.11,9.897,5.491,13.267l0,0
	c2.16,2.172,6.799,5.503,13.266,5.496c6.475,0.007,11.107-3.324,13.268-5.496l0,0c3.381-3.369,5.496-8.107,5.496-13.267
	C261.229,36.965,261.223,36.959,261.223,36.959"/>
<path id="path96644" fill="#FFFFFF" d="M131.786,51.602c0-0.475-0.144-0.92-0.375-1.295l-7.801-11.796l5.403-9.804
	c1.998-3.387,0.871-7.757-2.517-9.754c-3.387-1.998-7.757-0.871-9.754,2.523l-6.448,11.526v-7.688c0-3.932-3.187-7.119-7.119-7.119
	s-7.125,3.187-7.125,7.119v28.78h14.243v-11.27l7.513,11.264l11.501-0.006l0,0C130.678,54.082,131.786,52.973,131.786,51.602"/>
<path id="path4115" fill="#FFFFFF" d="M382.885,18.194h0.082l1.336,1.494l1.33-1.494h0.082v2.801h-0.498v-1.734l-0.867,1.031h-0.094
	l-0.867-1.031v1.734h-0.504V18.194z M380.951,18.669h-0.832v-0.428h2.168v0.428h-0.832v2.326h-0.504V18.669z"/>
</svg>
