<?xml version="1.0" encoding="utf-8"?>
<!-- Generator: Adobe Illustrator 16.0.0, SVG Export Plug-In . SVG Version: 6.00 Build 0)  -->
<!DOCTYPE svg PUBLIC "-//W3C//DTD SVG 1.1//EN" "http://www.w3.org/Graphics/SVG/1.1/DTD/svg11.dtd">
<svg version="1.1" id="Layer_1" xmlns="http://www.w3.org/2000/svg" xmlns:xlink="http://www.w3.org/1999/xlink" x="0px" y="0px"
	 width="47.333px" height="45.334px" viewBox="0 0 47.333 45.334" enable-background="new 0 0 47.333 45.334" xml:space="preserve">
<g>
	<g>
		<path fill="#FFFFFF" d="M43.143,23.19c0,10.726-8.699,19.421-19.425,19.421c-10.723,0-19.42-8.695-19.42-19.421
			s8.697-19.419,19.42-19.419C34.444,3.771,43.143,12.465,43.143,23.19z"/>
	</g>
	<g>
		<path fill="#231F20" d="M5.273,18.299l-0.342,0.423c-0.352,1.46-0.541,2.99-0.541,4.562c0,2.372,0.425,4.652,1.208,6.754
			c-0.088-1.996,0.241-3.771,0.952-5.297C5.394,23.224,5.273,18.299,5.273,18.299z M39.189,28.996
			c-1.639,2.067-6.017,4.437-6.017,4.437s-0.364,4.379-1.398,6.08c0.892,0,2.209-0.254,3.522-0.57
			c2.53-1.86,4.596-4.319,5.984-7.169C40.392,30.561,39.548,29.426,39.189,28.996z M11.221,38.071
			c3.214,2.733,7.323,4.44,11.827,4.617c0.248-0.188,0.417-0.43,0.398-0.746c-3.16-0.909-4.499-2.127-6.685-3.402
			C14.479,38.995,11.988,38.309,11.221,38.071z M38.882,20.122c0,0,2.192-3.89,1.765-4.863c-0.423-0.972-4.74-6.199-4.74-6.199
			l-5.044,0.425l1.763,6.87L38.882,20.122z M17.732,18.419l-4.865,6.809l5.168,6.988l8.268-2.672l-0.731-8.511L17.732,18.419z
			 M15.969,11.431c1.279-1.886,4.255-3.769,6.385-4.376c-0.685-1.027-1.565-2.4-1.883-2.904c-3.011,0.52-5.787,1.739-8.151,3.479
			l-2.247,3.558C11.957,10.884,14.144,10.761,15.969,11.431z"/>
	</g>
</g>
</svg>
