<?xml version="1.0" encoding="utf-8"?>
<!-- Generator: Adobe Illustrator 16.0.0, SVG Export Plug-In . SVG Version: 6.00 Build 0)  -->
<!DOCTYPE svg PUBLIC "-//W3C//DTD SVG 1.1//EN" "http://www.w3.org/Graphics/SVG/1.1/DTD/svg11.dtd">
<svg version="1.1" id="Layer_1" xmlns="http://www.w3.org/2000/svg" xmlns:xlink="http://www.w3.org/1999/xlink" x="0px" y="0px"
	 width="21.958px" height="20.597px" viewBox="0 0 21.958 20.597" enable-background="new 0 0 21.958 20.597" xml:space="preserve">
<path fill="#FFFFFF" d="M5.195,18.758H4.954l-0.319,0.73h0.134c0.059,0,0.097-0.022,0.115-0.087c0.007-0.01,0.026-0.067,0.026-0.067
	h0.331c0,0,0.013,0.037,0.02,0.048c0.031,0.097,0.083,0.106,0.159,0.106h0.102L5.195,18.758z M4.967,19.201l0.108-0.272l0.109,0.272
	H4.967z M15.291,18.758h-0.243l-0.312,0.73h0.128c0.057,0,0.09-0.022,0.114-0.087c0.008-0.01,0.026-0.067,0.026-0.067h0.332
	c0,0,0.013,0.037,0.02,0.048c0.031,0.097,0.089,0.106,0.159,0.106h0.102L15.291,18.758z M15.062,19.201l0.108-0.272l0.108,0.272
	H15.062z M12.272,18.751c0.236,0,0.409,0.133,0.409,0.375c0,0.233-0.16,0.374-0.409,0.374c-0.248,0-0.408-0.136-0.408-0.374
	C11.864,18.89,12.024,18.751,12.272,18.751 M12.272,19.344c0.121,0,0.205-0.087,0.205-0.218c0-0.14-0.084-0.219-0.205-0.219
	c-0.134,0-0.203,0.085-0.203,0.219C12.069,19.251,12.139,19.344,12.272,19.344 M11.38,19.126c0,0.17,0.102,0.212,0.217,0.212h0.107
	c0.058,0,0.11,0.026,0.11,0.089v0.063h-0.288c-0.179,0-0.35-0.086-0.35-0.364c0-0.224,0.106-0.366,0.35-0.366h0.288v0.062
	c0,0.066-0.046,0.091-0.115,0.091h-0.103C11.456,18.914,11.38,18.975,11.38,19.126 M13.352,19.285c0,0,0.134-0.39,0.147-0.434
	c0.023-0.07,0.069-0.091,0.146-0.091h0.225v0.73h-0.104c-0.069,0-0.095-0.036-0.095-0.088v-0.509l-0.229,0.598h-0.212l-0.224-0.598
	H13v0.509c0,0.062-0.031,0.088-0.095,0.088h-0.078v-0.73h0.231c0.101,0,0.12,0.056,0.139,0.102c0.021,0.067,0.147,0.423,0.147,0.423
	H13.352z M14.264,18.904h0.205c0.075,0,0.114,0.039,0.114,0.097c0,0.056-0.039,0.099-0.114,0.099h-0.205V18.904z M14.065,19.491
	h0.103c0.058,0,0.096-0.027,0.096-0.088v-0.157h0.242c0.204,0,0.275-0.114,0.275-0.244c0-0.153-0.104-0.241-0.275-0.241h-0.44
	V19.491z M16.241,19.304h0.007V18.76h0.198v0.73h-0.198c-0.07,0-0.122-0.012-0.16-0.107c-0.03-0.079-0.209-0.49-0.209-0.49v0.509
	c0,0.062-0.038,0.088-0.097,0.088h-0.083v-0.73h0.23c0.102,0,0.121,0.057,0.134,0.102C16.107,18.954,16.241,19.304,16.241,19.304
	 M17.02,19.272v0.13c0,0.062-0.031,0.088-0.095,0.088h-0.077v-0.218l-0.3-0.512h0.108c0.096,0,0.12,0.06,0.147,0.102
	c0.038,0.069,0.133,0.235,0.133,0.235h0.006c0,0,0.096-0.184,0.129-0.246c0.038-0.066,0.07-0.091,0.152-0.091h0.084L17.02,19.272z
	 M9.051,18.751c0.242,0,0.408,0.133,0.408,0.375c0,0.233-0.153,0.374-0.408,0.374c-0.242,0-0.408-0.136-0.408-0.374
	C8.643,18.89,8.802,18.751,9.051,18.751 M9.051,19.344c0.127,0,0.204-0.087,0.204-0.218c0-0.14-0.082-0.219-0.204-0.219
	c-0.128,0-0.203,0.085-0.203,0.219C8.848,19.251,8.917,19.344,9.051,19.344 M7.513,18.76H7.11v0.056c0,0.05,0.026,0.098,0.096,0.098
	h0.255c0.109,0,0.147,0.035,0.147,0.12v0.014H7.341c-0.204,0-0.274,0.093-0.274,0.222c0,0.151,0.096,0.221,0.274,0.221h0.178
	c0.237,0,0.288-0.12,0.288-0.275v-0.182C7.807,18.865,7.742,18.76,7.513,18.76 M7.608,19.216c0,0.074-0.031,0.132-0.127,0.132H7.379
	c-0.077,0-0.114-0.021-0.114-0.079c0-0.057,0.037-0.079,0.114-0.079h0.229V19.216z M8.374,18.914h0.103
	c0.069,0,0.115-0.025,0.115-0.091V18.76H8.305c-0.237,0-0.351,0.142-0.351,0.366c0,0.278,0.172,0.364,0.351,0.364h0.287v-0.063
	c0-0.063-0.046-0.089-0.109-0.089H8.374c-0.115,0-0.217-0.042-0.217-0.212C8.157,18.975,8.24,18.914,8.374,18.914 M6.224,19.291
	c0,0-0.173-0.443-0.179-0.468C6.032,18.788,6.013,18.76,5.95,18.76H5.802l0.302,0.73H6.32l0.312-0.73H6.498
	c-0.051,0-0.069,0.024-0.082,0.059L6.224,19.291z M10.123,19.285c0,0-0.122-0.356-0.147-0.423c-0.013-0.045-0.032-0.102-0.133-0.102
	H9.605v0.73h0.077c0.062,0,0.101-0.027,0.101-0.088v-0.509l0.226,0.598h0.216l0.224-0.598v0.509c0,0.052,0.032,0.088,0.095,0.088
	h0.104v-0.73h-0.219c-0.075,0-0.128,0.021-0.146,0.091c-0.021,0.043-0.153,0.434-0.153,0.434H10.123z M6.722,18.76v0.645
	c0,0.05,0.032,0.086,0.096,0.086H6.92v-0.73H6.722z"/>
<rect x="2.842" y="17.616" fill-rule="evenodd" clip-rule="evenodd" fill="#FFFFFF" width="16.259" height="0.122"/>
<path fill="#FFFFFF" d="M18.507,16.721h0.089v-0.265h0.108l0.16,0.265h0.109l-0.18-0.271c0.09-0.011,0.16-0.058,0.16-0.167
	c0-0.121-0.07-0.175-0.218-0.175h-0.229V16.721z M18.596,16.186h0.128c0.064,0,0.133,0.016,0.133,0.091c0,0.093-0.068,0.1-0.146,0.1
	h-0.115V16.186z M2.44,10.838c0,1.295,0.339,2.748,0.95,3.942c1.104-1.028,4.008-4.303,4.339-4.686
	C8.24,9.518,8.457,9.886,8.725,9.563c0.147-0.181,0.237-0.248,0.301-0.285c0.103-0.06,0.224-0.208,0.281-0.252
	c0.057-0.046,0.19-0.223,0.3-0.313c0.101-0.086,0.306-0.222,0.517-0.402c0.211-0.178,0.567-0.592,0.95-0.592
	c0.46,0,0.65,0.311,0.689,0.348c0.038,0.037,0.318,0.287,0.37,0.336c0.052,0.055,0.351,0.294,0.517,0.294
	c0.158,0,0.28,0.181,0.37,0.269c0.191,0.178,1.002,1.024,1.264,1.202c0.12,0.082,0.229,0.068,0.318,0.135
	c0.089,0.066,0.134,0.111,0.186,0.128c0.051,0.014,0.223-0.031,0.421,0.22c0.097,0.063,0.12,0.075,0.12,0.075
	s0.275,0.247,0.371,0.422c0.09,0.151,2.124,2.858,2.858,3.826c0.677-1.228,1.065-2.638,1.065-4.14c0-4.742-3.848-8.589-8.594-8.589
	C6.281,2.247,2.433,6.095,2.44,10.838 M9.007,6.108c-0.142,0.316-0.242,0.543-0.378,0.84c-0.006,0.03-0.02,0.081,0.008,0.096
	c0.024,0.013,0.05,0.013,0.069,0c0.166-0.079,0.306-0.272,0.427-0.492l0.198-0.449h0.287L9.541,6.272
	c-0.006,0.011-0.006,0.015,0,0.011c0.09-0.068,0.187-0.17,0.301-0.233c0.045-0.02,0.153-0.02,0.141,0.053
	c-0.007,0.066-0.058,0.12-0.083,0.18C9.88,6.323,9.867,6.373,9.867,6.4C9.88,6.432,9.912,6.447,9.963,6.413
	c0.038-0.026,0.077-0.052,0.115-0.084c0.075-0.067,0.166-0.135,0.268-0.187c0.197-0.096,0.478-0.156,0.684-0.029
	c-0.147,0.319-0.25,0.556-0.39,0.853c-0.02,0.052,0,0.067,0.013,0.079c0.019,0.013,0.056,0.017,0.103-0.007
	c0.107-0.048,0.306-0.268,0.389-0.439c0.07-0.158,0.141-0.315,0.217-0.495h0.293l-0.075,0.173l0.005,0.007
	c0.084-0.073,0.287-0.238,0.441-0.205c0.082,0.019,0.121,0.12,0.115,0.194c0.094-0.069,0.197-0.156,0.338-0.189
	c0.203-0.05,0.286,0.093,0.224,0.229c-0.084,0.184-0.236,0.553-0.326,0.742c-0.014,0.02-0.014,0.059,0,0.07
	c0.019,0.017,0.058,0,0.076-0.012c0.103-0.083,0.16-0.142,0.237-0.253c0.023-0.199,0.127-0.379,0.279-0.531
	c0.153-0.175,0.402-0.312,0.646-0.231c0.082,0.026,0.134,0.113,0.159,0.196c0.013,0.046,0.025,0.067,0.025,0.12
	c0.12,0.09,0.286-0.058,0.352-0.17c0.019-0.045,0.044-0.095,0.057-0.13c0.07,0.003,0.211,0,0.294,0l-0.37,0.842
	c-0.025,0.051-0.032,0.078-0.032,0.119c0,0.029,0.038,0.036,0.07,0.029c0.103-0.016,0.267-0.215,0.351-0.387
	c0.096-0.207,0.187-0.381,0.276-0.592h0.299c-0.116,0.285-0.25,0.583-0.351,0.802c-0.021,0.045-0.053,0.092-0.032,0.153
	c0.012,0.03,0.051,0.023,0.076,0.012c0.127-0.073,0.351-0.321,0.428-0.475c0.075-0.18,0.141-0.315,0.224-0.493h0.306l-0.07,0.178
	c0.109-0.091,0.236-0.188,0.382-0.208c0.065-0.015,0.154-0.009,0.192,0.061c0.045,0.079,0.02,0.164-0.019,0.238
	c-0.084,0.191-0.18,0.4-0.269,0.586c-0.012,0.045-0.019,0.088,0.012,0.108c0.052,0.026,0.263-0.104,0.371-0.341
	c0.096-0.209,0.16-0.333,0.242-0.536h-0.159l0.051-0.094h0.152l0.23-0.488h0.301l-0.218,0.488h0.229l-0.045,0.094h-0.223
	c-0.135,0.275-0.243,0.506-0.351,0.769c-0.045,0.088-0.096,0.238-0.07,0.328c0.02,0.05,0.077,0.061,0.134,0.044
	c0.178-0.061,0.294-0.209,0.396-0.369c0.006-0.016,0.103-0.003,0.096,0.008c-0.121,0.236-0.383,0.475-0.632,0.469
	c-0.076,0-0.153-0.046-0.197-0.108c-0.019-0.033-0.032-0.061-0.045-0.099c-0.014-0.064-0.014-0.139,0-0.207
	c-0.135,0.103-0.263,0.228-0.435,0.262c-0.076,0.011-0.165-0.017-0.185-0.099c-0.013-0.06-0.007-0.129,0.02-0.184
	c0.102-0.232,0.197-0.441,0.299-0.685c0.008-0.011,0-0.052-0.013-0.056c-0.012-0.017-0.063-0.017-0.108,0.018
	c-0.21,0.158-0.319,0.36-0.408,0.57c-0.063,0.142-0.133,0.281-0.197,0.418h-0.3c0.031-0.083,0.083-0.198,0.121-0.29
	c0-0.005,0-0.005,0,0c-0.128,0.125-0.286,0.266-0.44,0.307c-0.063,0.016-0.127-0.005-0.159-0.062
	c-0.038-0.057-0.045-0.142-0.013-0.215c0-0.005-0.006-0.005-0.014,0c-0.107,0.112-0.217,0.215-0.369,0.268
	c-0.173,0.05-0.325-0.071-0.217-0.318c0.032-0.067,0.115-0.257,0.211-0.482c-0.083,0.035-0.173,0.035-0.224,0.019
	c-0.007,0-0.007,0-0.007,0.006c-0.07,0.316-0.255,0.604-0.542,0.742c-0.146,0.068-0.301,0.084-0.44-0.011
	C12.745,7.206,12.707,7.095,12.701,7c-0.147,0.148-0.313,0.335-0.537,0.301c-0.038-0.004-0.063-0.035-0.083-0.069
	c-0.051-0.084-0.019-0.175,0.014-0.25c0.107-0.225,0.197-0.435,0.307-0.688c0.018-0.032-0.032-0.061-0.071-0.044
	c-0.097,0.052-0.166,0.106-0.229,0.209c-0.038,0.044-0.07,0.088-0.09,0.145c-0.096,0.229-0.203,0.441-0.293,0.662h-0.306
	c0.133-0.311,0.268-0.609,0.401-0.915c0.012-0.027,0-0.068-0.013-0.079c-0.025-0.011-0.077,0.011-0.109,0.029
	c-0.068,0.05-0.134,0.119-0.186,0.202c-0.049,0.085-0.094,0.171-0.133,0.261l-0.229,0.501h-0.293c0.024-0.069,0.083-0.2,0.114-0.266
	c0-0.005-0.007-0.01-0.007-0.005c-0.159,0.135-0.369,0.312-0.522,0.283c-0.052-0.005-0.097-0.052-0.108-0.096
	c-0.008-0.057-0.008-0.108,0.007-0.158c0-0.006-0.007-0.006-0.015,0c-0.128,0.124-0.248,0.228-0.414,0.266
	c-0.089,0.022-0.178-0.038-0.21-0.108C9.65,7.102,9.645,6.978,9.714,6.836C9.753,6.745,9.797,6.651,9.854,6.57
	C9.816,6.588,9.753,6.594,9.707,6.588C9.669,6.583,9.625,6.552,9.606,6.525C9.579,6.496,9.579,6.447,9.579,6.413
	c0-0.005-0.011-0.005-0.024,0C9.466,6.485,9.42,6.57,9.375,6.668L9.121,7.255H8.813l0.116-0.25C8.93,7,8.93,6.995,8.924,7
	C8.765,7.141,8.572,7.301,8.419,7.272c-0.046-0.006-0.09-0.053-0.102-0.094c-0.014-0.054-0.007-0.112,0-0.16H8.304
	c-0.122,0.124-0.241,0.226-0.408,0.26c-0.089,0.029-0.172-0.026-0.21-0.105c-0.045-0.115-0.026-0.233,0.018-0.34
	c0.116-0.307,0.333-0.526,0.626-0.691C8.515,6.033,8.803,6.001,9.007,6.108 M6.83,4.768c0.873,0.04,1.392,0.472,1.392,0.936
	c0,0.823-1.308,0.968-1.308,0.968C6.683,7.812,5.778,8.25,5.146,8.243C4.304,8.237,4.315,7.554,4.349,7.464
	C4.38,7.362,4.432,7.272,4.54,7.272c0.101,0,0.19,0.085,0.19,0.192c0,0.066-0.032,0.127-0.09,0.159
	C4.532,7.694,4.554,7.78,4.554,7.78c0,0.362,0.471,0.391,0.593,0.391c1.256,0,1.116-2.07,2.219-2.773
	c0.052-0.033,0.091,0,0.065,0.035C7.08,5.865,6.952,6.563,6.952,6.563c0.528,0,0.887-0.509,0.887-0.86
	c0-0.607-0.55-0.859-1.009-0.859c-1.302,0-1.856,0.905-1.856,1.395c0,0.494,0.306,0.672,0.536,0.672
	c0.312,0,0.408-0.211,0.369-0.313c-0.057-0.16,0.025-0.293,0.122-0.293c0.038,0,0.164-0.005,0.164,0.22
	c0,0.218-0.306,0.438-0.649,0.438c-0.339,0-0.829-0.185-0.829-0.725C4.687,5.143,6.032,4.728,6.83,4.768 M8.068,7.066
	c0.113,0,0.267-0.201,0.356-0.377c0.096-0.193,0.142-0.297,0.25-0.542c0.006-0.013,0-0.013-0.014-0.013
	c-0.128,0-0.274,0.131-0.364,0.238c-0.106,0.13-0.28,0.379-0.306,0.561C7.973,7.029,8.017,7.066,8.068,7.066 M12.949,7.238
	c0.128,0.062,0.28-0.215,0.414-0.469c0.142-0.255,0.25-0.572,0.136-0.611c-0.136-0.05-0.294,0.197-0.436,0.452
	C12.93,6.865,12.827,7.181,12.949,7.238 M10.091,7.066c0.115,0,0.268-0.201,0.356-0.377c0.096-0.193,0.142-0.297,0.255-0.542
	c0.006-0.013-0.005-0.013-0.018-0.013c-0.134,0-0.268,0.131-0.365,0.238c-0.102,0.13-0.279,0.379-0.311,0.561
	C9.995,7.029,10.033,7.066,10.091,7.066 M8.941,11.148c0.032-0.063,0.122-0.255,0.115-0.332c0-0.013-0.031-0.036-0.062-0.009
	c-0.135,0.13-0.403,0.602-0.504,0.654c-0.237,0.115-0.339,0.386-0.403,0.492c-0.051,0.08-0.114,0.208-0.229,0.371
	c-0.095,0.141-0.204,0.35-0.25,0.424c-0.038,0.074-0.05,0.144,0.021,0.144c0.075,0,0.019,0.123-0.07,0.257
	c-0.051,0.078-0.186,0.456-0.224,0.557c-0.045,0.128-0.039,0.29-0.058,0.342c-0.02,0.052-0.262,0.577-0.324,0.692
	c-0.038,0.074-0.032,0.104-0.046,0.143c-0.025,0.051,0.008,0.065,0.046,0.028c0.044-0.045,0.305-0.444,0.389-0.493
	c0.083-0.049,0.153-0.125,0.166-0.296c0.006-0.17,0.121-0.216,0.205-0.318c0.089-0.1,0.203-0.233,0.261-0.373
	c0.058-0.144,0.134-0.034,0.268-0.251c0.128-0.215,0.435-0.75,0.498-0.854c0.07-0.104,0.019-0.253,0.013-0.374
	c-0.007-0.064,0.006-0.226,0.044-0.396C8.834,11.4,8.903,11.248,8.941,11.148 M17.166,14.075c0.021-0.024-0.038-0.089-0.062-0.141
	c-0.032-0.051-0.219-0.257-0.249-0.315c-0.032-0.054-0.275-0.394-0.358-0.505c-0.146-0.193-0.012-0.264-0.09-0.384
	c-0.03-0.05-0.223-0.28-0.445-0.51c-0.115-0.116-0.242-0.226-0.352-0.323c-0.178-0.158-0.312-0.276-0.337-0.255
	c-0.026,0.032,0.076,0.159,0.121,0.213c0.045,0.055,0.114,0.157,0.21,0.267c0.147,0.179,0.006,0.317,0.153,0.461
	c0.026,0.024,0.421,0.468,0.523,0.552c0.141,0.128,0.663,0.746,0.695,0.782C17.04,13.969,17.147,14.095,17.166,14.075
	 M18.168,16.415c0,0.306,0.249,0.532,0.543,0.532c0.287,0,0.543-0.226,0.543-0.532c0-0.307-0.256-0.532-0.543-0.532
	C18.417,15.883,18.168,16.108,18.168,16.415 M19.145,16.415c0,0.255-0.19,0.444-0.434,0.444s-0.434-0.189-0.434-0.444
	c0-0.252,0.19-0.444,0.434-0.444S19.145,16.162,19.145,16.415 M14.795,13.19c0.145,0.24,0.183,0.191,0.241,0.193
	c0.133,0.005,0.44,0.329,0.504,0.419c0.051,0.089,0.542,0.576,0.67,0.693c0.052,0.052,0.439,0.674,0.49,0.632
	c0.052-0.045-0.151-0.349-0.177-0.416c-0.033-0.065-0.142-0.164-0.199-0.305c-0.051-0.14-0.28-0.49-0.357-0.602
	c-0.07-0.109-0.191-0.355-0.326-0.512c-0.12-0.14-0.018-0.176-0.146-0.296c-0.076-0.073-0.312-0.282-0.362-0.327
	c-0.052-0.043-0.25-0.215-0.358-0.312c-0.107-0.092-0.37-0.276-0.362-0.394c0.006-0.121-0.052-0.348-0.141-0.422
	c-0.064-0.054-0.255-0.358-0.473-0.535c-0.108-0.093-0.337-0.332-0.518-0.541c-0.171-0.201-0.298-0.383-0.331-0.356
	c-0.058,0.036,0.191,0.387,0.218,0.43c0.023,0.042,0.318,0.542,0.344,0.675c0.032,0.134,0.573,1.047,0.688,1.329
	C14.271,12.708,14.64,12.931,14.795,13.19 M11.482,10.645c0.051,0.14,0.223,0.965,0.273,1.136c0.058,0.17,0.108,0.178,0.135,0.245
	c0.108,0.256,0.255,0.268,0.332,0.29c0.21,0.063,0.229,0.349,0.362,0.602c0.127,0.24,0.242,0.452,0.351,0.71
	c0.116,0.26,0.684,1.668,0.786,1.884c0.031,0.074,0.307,0.074,0.272,0c-0.069-0.156-0.222-0.545-0.317-0.931
	c-0.063-0.252,0.173-0.077,0.019-0.475c-0.069-0.188-0.196-0.374-0.273-0.447c-0.077-0.074-0.147-0.392-0.204-0.533
	c-0.065-0.144-0.032-0.149-0.16-0.485c-0.09-0.242,0.172-0.161,0.025-0.542c-0.101-0.246-0.586-1.135-0.644-1.226
	c-0.026-0.048-0.122-0.203-0.237-0.385c-0.107-0.172-0.203-0.358-0.256-0.438c-0.101-0.162-0.285-0.519-0.389-0.668
	c-0.107-0.15-0.235-0.477-0.294-0.42c-0.05,0.048,0.16,0.54,0.25,0.851c0.089,0.312,0.02,0.438-0.031,0.528
	C11.43,10.431,11.43,10.486,11.482,10.645 M11.419,1.725l0.433-0.255l0.376,0.336l-0.108-0.501l0.44-0.266l-0.503-0.051L11.946,0.5
	l-0.197,0.458l-0.51-0.049l0.389,0.346L11.419,1.725z M19.464,7.488l0.408,0.294L19.72,8.264l0.408-0.303l0.427,0.293l-0.166-0.482
	l0.409-0.294l-0.499,0.002l-0.165-0.482l-0.158,0.49L19.464,7.488z M20.694,8.814l-0.247,0.452l-0.505-0.101l0.352,0.371
	l-0.25,0.443l0.467-0.22l0.356,0.368l-0.063-0.507l0.453-0.212l-0.491-0.089L20.694,8.814z M6.97,11.911
	c-0.045-0.03-0.522,0.461-0.842,0.803c-0.107,0.119-0.179,0.229-0.224,0.283c0,0-0.14,0.229-0.217,0.327
	c-0.069,0.096-0.261,0.373-0.337,0.488c-0.032,0.042-0.104,0.213-0.249,0.394c-0.07,0.089-0.143,0.206-0.281,0.385
	c-0.186,0.24-0.332,0.438-0.294,0.463c0.02,0.013,0.294-0.317,0.588-0.674c0.121-0.152,0.255-0.304,0.363-0.449
	c0.051-0.069,0.179-0.189,0.224-0.249c0.069-0.107,0.152-0.187,0.178-0.212c0.166-0.135,0.256-0.145,0.313-0.218
	c0.025-0.041,0.351-0.53,0.466-0.729C6.767,12.336,7.034,11.969,6.97,11.911 M19.539,15.11l0.097,0.505l0.223-0.458l0.498,0.07
	l-0.362-0.344l0.216-0.458l-0.459,0.238l-0.37-0.358l0.096,0.499l-0.446,0.238L19.539,15.11z M20.53,13.386l0.503-0.022
	l-0.427-0.269l0.134-0.494l-0.408,0.323l-0.434-0.28l0.191,0.475l-0.396,0.317l0.516-0.03l0.191,0.478L20.53,13.386z M20.867,11.214
	l0.038-0.508L20.568,11.1l-0.473-0.192l0.269,0.427l-0.326,0.389l0.499-0.128l0.279,0.431l0.032-0.508l0.485-0.121L20.867,11.214z
	 M13.147,1.977l0.479-0.17l0.307,0.405l-0.015-0.515l0.485-0.176l-0.491-0.147l-0.005-0.5l-0.288,0.414l-0.484-0.149l0.306,0.417
	L13.147,1.977z M19.133,6.149l-0.064,0.505l0.352-0.38l0.465,0.208l-0.249-0.448l0.345-0.361l-0.49,0.097l-0.25-0.443L19.171,5.84
	l-0.498,0.098L19.133,6.149z M15.29,2.475l0.225,0.456l0.083-0.505l0.51-0.083l-0.452-0.237l0.089-0.494l-0.358,0.353l-0.452-0.235
	l0.224,0.467l-0.37,0.356L15.29,2.475z M17.602,4.568l0.49,0.118l0.038,0.507l0.27-0.44l0.496,0.116l-0.33-0.389l0.267-0.422
	l-0.465,0.188L18.04,3.86l0.04,0.516L17.602,4.568z M16.796,3.449l0.136,0.493l0.178-0.482l0.511,0.015l-0.396-0.32l0.185-0.464
	l-0.42,0.275l-0.396-0.319l0.128,0.5l-0.428,0.281L16.796,3.449z M2.063,6.56l0.473-0.208L2.88,6.735L2.823,6.231l0.465-0.207
	L2.779,5.92L2.721,5.411L2.465,5.852L1.981,5.749l0.338,0.367L2.063,6.56z M1.491,13.48l0.126,0.489l0.198-0.479l0.511,0.037
	l-0.389-0.32l0.19-0.472l-0.44,0.277L1.292,12.69l0.128,0.493l-0.428,0.265L1.491,13.48z M7.979,2.237l0.308-0.404l0.479,0.172
	L8.47,1.58l0.312-0.409L8.291,1.313l-0.28-0.415l-0.014,0.5l-0.49,0.144l0.484,0.18L7.979,2.237z M6.32,2.465l0.082,0.507
	l0.224-0.456l0.503,0.082l-0.368-0.36l0.224-0.463L6.529,2.01L6.18,1.653l0.083,0.496L5.809,2.382L6.32,2.465z M4.82,3.514
	l0.172,0.482l0.134-0.492l0.512-0.016L5.209,3.204l0.128-0.496L4.942,3.024L4.526,2.743l0.172,0.47L4.304,3.528L4.82,3.514z
	 M2.396,15.702l0.103-0.509l0.51-0.061l-0.446-0.242l0.096-0.497l-0.37,0.35l-0.46-0.239l0.225,0.462l-0.37,0.341l0.497-0.064
	L2.396,15.702z M9.669,1.814l0.384-0.338l0.434,0.264l-0.204-0.475l0.382-0.344l-0.511,0.047l-0.19-0.463L9.854,0.996l-0.51,0.049
	l0.439,0.269L9.669,1.814z M3.544,4.824l0.262,0.438l0.037-0.504l0.499-0.114L3.87,4.446l0.031-0.514L3.57,4.32L3.109,4.124
	l0.262,0.429L3.04,4.935L3.544,4.824z M1.413,8.338l0.421-0.294l0.414,0.309L2.089,7.872l0.42-0.292L2,7.573L1.834,7.086
	l-0.16,0.483L1.171,7.559l0.408,0.297L1.413,8.338z M1.113,10.221l0.363-0.375l0.461,0.229L1.693,9.627l0.358-0.363L1.54,9.354
	L1.292,8.906L1.221,9.409L0.731,9.496l0.451,0.218L1.113,10.221z M1.183,12.117l0.287-0.43l0.491,0.132l-0.325-0.391l0.28-0.427
	l-0.478,0.19l-0.332-0.394l0.025,0.511l-0.466,0.175l0.485,0.128L1.183,12.117z"/>
</svg>
