<?xml version="1.0" encoding="utf-8"?>
<!-- Generator: Adobe Illustrator 16.0.0, SVG Export Plug-In . SVG Version: 6.00 Build 0)  -->
<!DOCTYPE svg PUBLIC "-//W3C//DTD SVG 1.1//EN" "http://www.w3.org/Graphics/SVG/1.1/DTD/svg11.dtd">
<svg version="1.1" id="Calque_1" xmlns="http://www.w3.org/2000/svg" xmlns:xlink="http://www.w3.org/1999/xlink" x="0px" y="0px"
	 width="134.833px" height="76.455px" viewBox="-34.833 0 134.833 76.455" enable-background="new -34.833 0 134.833 76.455"
	 xml:space="preserve">
<path fill="#FFFFFF" d="M81.221,39.268c4.768-2.384,9.483,1.175,10.328,1.876c0.024,0.007,0.047,0.012,0.072,0.018
	c1.075,0.386-4.42-6.929-10.058-3.936c0.513-1.398-0.312-2.429-0.962-2.572c-0.649-0.144-2.656,0.519-3.824,1.882
	c0.051-0.973-0.811-1.904-2.648-2.41s-14.154-2.64-26.373-3.021c-0.001,0.061,0,0.121-0.003,0.182
	c-0.205,3.894-4.627,6.827-9.88,6.551c-4.928-0.259-8.834-3.251-9.128-6.837c-9.278,0.756-17.89,2.862-20.379,5.178
	c-3.457,3.217-0.729,11.799,4.702,12.742c0.647,0.112,1.97,0.272,3.822,0.462c-0.176-0.845-0.248-1.726-0.201-2.629
	c0.296-5.645,5.113-9.979,10.757-9.683c5.645,0.296,9.98,5.112,9.683,10.757c-0.057,1.093-0.286,2.136-0.655,3.106
	c17.973,0.339,29.419,0.667,39.407-0.294c-0.151-0.712-0.214-1.451-0.214-2.211C75.668,45.16,76.453,41.652,81.221,39.268z
	 M26.953,38.417c-4.747,0-8.595,3.849-8.595,8.596s3.848,8.596,8.595,8.596c4.748,0,8.596-3.849,8.596-8.596
	S31.701,38.417,26.953,38.417z M26.953,52.073c-2.795,0-5.061-2.266-5.061-5.061s2.266-5.061,5.061-5.061
	c2.795,0,5.061,2.266,5.061,5.061S29.749,52.073,26.953,52.073z M84.918,39.846c-4.24,0-7.68,3.438-7.68,7.681
	c0,4.241,3.439,7.679,7.68,7.679c4.242,0,7.681-3.438,7.681-7.679C92.599,43.284,89.16,39.846,84.918,39.846z M84.919,51.948
	c-2.442,0-4.423-1.98-4.423-4.423s1.98-4.422,4.423-4.422s4.423,1.979,4.423,4.422S87.361,51.948,84.919,51.948z M43.767,35.316
	c0.422,0.145,0.88-0.081,1.025-0.503l1.896-5.556c0.144-0.422-0.081-0.881-0.503-1.025c-0.421-0.144-0.88,0.082-1.024,0.504
	l-1.896,5.556C43.119,34.713,43.344,35.172,43.767,35.316z"/>
<line fill="#FFFFFF" stroke="#FFFFFF" stroke-width="2" stroke-miterlimit="10" x1="-28.833" y1="46.395" x2="-4.833" y2="46.395"/>
<line fill="#FFFFFF" stroke="#FFFFFF" stroke-width="2" stroke-miterlimit="10" x1="-28.833" y1="41.395" x2="-4.833" y2="41.395"/>
<line fill="#FFFFFF" stroke="#FFFFFF" stroke-width="2" stroke-miterlimit="10" x1="-28.833" y1="36.395" x2="-4.833" y2="36.395"/>
</svg>
