<?xml version="1.0" encoding="utf-8"?>
<!-- Generator: Adobe Illustrator 16.0.0, SVG Export Plug-In . SVG Version: 6.00 Build 0)  -->
<!DOCTYPE svg PUBLIC "-//W3C//DTD SVG 1.1//EN" "http://www.w3.org/Graphics/SVG/1.1/DTD/svg11.dtd">
<svg version="1.1" id="Layer_1" xmlns="http://www.w3.org/2000/svg" xmlns:xlink="http://www.w3.org/1999/xlink" x="0px" y="0px"
	 width="193px" height="268px" viewBox="0 0 193 268" enable-background="new 0 0 193 268" xml:space="preserve">
<g>
	<g>
		<path fill="#ED1C24" d="M175.712,131.372c0,65.029-35.861,117.726-80.088,117.726c-44.231,0-80.085-52.696-80.085-117.726
			c0-65.012,35.854-117.723,80.085-117.723C139.851,13.649,175.712,66.36,175.712,131.372z"/>
	</g>
</g>
<g>
	<path fill="#FFFFFF" d="M62.176,63.88c4.292,0.705,8.802-0.169,13.017-1.161c3.206-0.751,6.843-2.031,10.019-3.123
		c3.38,2.852,10.873,10.171,14.366,13.332c0.395,0.398,1.159,1.172,2.087,2.074c-0.919,0.248-1.853,0.5-2.79,0.765l0.005,0.006
		c-2.133,0.624-3.803,1.157-5.642,1.773c1.176,0.74,2.576,1.68,2.576,1.68c2.322-0.688,5.056-1.507,7.922-2.249
		c0.598,0.558,1.185,1.095,1.729,1.561l-0.003,0.008c0.03,0.024,0.069,0.053,0.1,0.079c0.279,0.241,0.549,0.466,0.793,0.662
		c0.017,0,0.035,0,0.054,0c4.93,3.896,11.16,6.572,18.306,7.751c6.224,1.026,12.535-0.244,18.4-2.397
		c3.556-1.304,6.565-3.72,5.304-7.912c-1.357-4.526-8.276-5.461-12.124-5.871c-7.28-0.782-14.8,0.105-21.975,1.341
		c-0.814,0.135-1.646,0.29-2.485,0.457c-0.96-0.847-1.946-1.689-2.928-2.437c-3.954-3.326-12.543-10.675-16.52-13.775
		c1.252-0.519,2.722-1.109,4.127-1.657c0.306-0.102,0.619-0.214,0.956-0.331c1.048-0.38,2.062-0.72,3.029-1.048
		c3.788,3.123,9.395,6.82,17.029,8.439c4.64,0.984,9.364-0.222,13.747-2.196c2.662-1.205,4.905-3.421,3.969-7.273
		c-1.019-4.158-6.188-5.013-9.064-5.392c-5.44-0.721-11.057,0.094-16.417,1.229c-0.478,0.103-0.97,0.216-1.461,0.334h0.005
		c-0.783,0.156-1.606,0.346-2.468,0.564c-0.607-0.496-1.026-0.844-1.026-0.844c-8.338-6.724-9.661-11.72-8.662-16.313
		c0.293-1.345-3.241,2.653-3.493,6.848c-0.217,3.583,0.518,7.931,5.215,12.3c0.146,0.135,0.309,0.282,0.469,0.429
		c-0.664,0.248-1.34,0.507-2.053,0.792l-0.014-0.015c-0.229,0.098-0.476,0.207-0.742,0.317c-1.625,0.663-3.366,1.415-5.25,2.256
		c-6.786-4.834-13.688-8.098-21.139-7.62c-3.645,0.235-19.846,3.739-14.251,12.531C56.302,62.012,60.066,63.526,62.176,63.88z
		 M126.749,74.583c4.068,0.291,8.246,0.141,10.824,3.695c1.393,1.92,1.132,4.425-0.19,6.172c-0.283-0.017-0.561-0.043-0.84-0.062
		c-2.384-0.21-4.733-0.736-7.039-1.356c-5.458-1.448-8.363-3.506-13.144-6.459h-0.005c-0.605-0.47-1.257-1.022-1.942-1.625
		C118.779,74.431,122.675,74.286,126.749,74.583z M111.05,50.587c2.773-0.34,5.341-0.415,7.998-0.182
		c3.038,0.269,6.157,0.131,8.086,3.4c1.042,1.761,0.849,4.062-0.142,5.672c-0.213-0.021-0.421-0.043-0.63-0.062
		c-1.775-0.192-3.536-0.677-5.258-1.24c-4.078-1.334-7.576-3.047-11.15-5.764c-0.42-0.317-1.003-0.778-1.628-1.273
		C109.327,50.901,110.233,50.723,111.05,50.587z M63.088,49.986c0.827,0.006,1.653,0.084,2.471,0.179
		c2.919,0.315,5.79,1.24,8.569,2.359c3.333,1.336,5.966,3.293,9.097,5.539c-3.061,0.992-6.617,2.059-9.767,2.362
		c-3.542,0.334-9.592,0.396-11.424-4.46C61.278,53.93,61.849,51.482,63.088,49.986z"/>
	<path fill="#FFFFFF" d="M152.135,136.313c-3.522-2.912-7.959-5.21-13.791-5.704l-1.514,4.246
		c8.852,1.539,12.996,9.319,13.52,14.823c0.541,5.651-1.538,12.088-7.425,13.321c-7.899,1.649-13.203-4.536-13.911-11.491
		c-0.496-4.866,1.76-12.005,3.463-16.608c0.023,0,2.208-5.734,2.189-5.734c1.919-4.994,3.833-9.991,5.758-14.985
		c0.598-1.552,2.136-5.328,2.234-5.565c1.371-3.382,3.295-7.789,6.295-7.759c2.508,0.026,4.878,1.653,4.878,1.653l2.649-4.49
		c0,0-2.91-1.68-6.051-1.762c-5.661-0.15-10.2,1.755-13.622,5.835c-1.098,1.165-1.907,2.542-2.69,4.002
		c-2.566,4.768-4.184,10.194-6.126,15.242c-0.909,2.361-1.994,5.041-3.07,8.227H112.08c1.347-8.518,2.581-30.875-17.465-47.11
		c-7.558-6.123-17.039-11.789-30.386-11.793c-0.208,0-0.54,0.019-0.96,0.053c-4.238,0.195-8.435,0.936-12.425,2.431
		c-2.932,1.103-6.006,2.448-7.135,5.58c-1.467,4.09,4.172,6.715,7.069,7.646c6.382,2.072,13.649,1.661,20.191,0.812
		c3.292-0.432,5.431-0.774,8.456-1.469c-0.888-0.751-2.378-1.554-2.378-1.554c-4.083,0.655-7.951,0.644-12.64-0.038
		c-3.075-0.453-6.551-1.358-8.918-3.493c-0.813-0.729-1.372-1.686-1.604-2.75c-0.214-0.968,0.013-1.89,0.464-2.75
		c0.242-0.376,0.526-0.714,0.85-1.022c0.052-0.038,0.096-0.075,0.149-0.113c0.088-0.011,0.181-0.019,0.274-0.032
		c0.031,0,0.065,0,0.098,0c9.296,0.21,17.987,4.29,25.707,9.298l2.224,1.48c0.155,0.105,0.309,0.21,0.465,0.317
		c7.617,5.273,12.945,12.439,16.366,21.055c3.631,9.146,8.61,32.037-12.471,47.735c0.613,1.019,2.448,3.266,3.669,4.607
		c7.358-3.697,15.054-11.735,19.541-23.8h11.803c-3.208,7.883-4.78,15.443-1.927,22.222c6.091,14.478,28.614,12.642,34.739,0.438
		C159.197,150.611,157.64,140.871,152.135,136.313z"/>
	<path fill="#FFFFFF" d="M130.176,198.078c-4.294-0.707-8.802,0.165-13.021,1.157c-3.207,0.751-6.842,2.032-10.017,3.122
		c-3.377-2.855-10.873-10.176-14.362-13.333c-0.394-0.398-1.165-1.167-2.094-2.073c0.926-0.244,1.854-0.501,2.792-0.766
		c0,0,0-0.004-0.004-0.004c2.149-0.624,3.531-1.041,5.387-1.665c-1.469-0.901-2.592-1.747-2.592-1.747
		c-2.264,0.679-4.764,1.454-7.647,2.202c-0.598-0.557-1.191-1.09-1.734-1.567h0.009c-0.037-0.03-0.071-0.049-0.107-0.08
		c-0.279-0.235-0.548-0.465-0.791-0.662c-0.018,0-0.032,0-0.049,0c-4.938-3.893-11.16-6.571-18.308-7.748
		c-6.228-1.025-12.534,0.244-18.401,2.397c-3.556,1.304-6.563,3.72-5.304,7.912c1.354,4.527,8.276,5.455,12.125,5.871
		c7.276,0.783,14.8-0.107,21.974-1.34c0.81-0.143,1.64-0.297,2.485-0.455c0.96,0.838,1.947,1.68,2.928,2.432
		c3.956,3.325,12.544,10.679,16.52,13.778c-1.256,0.522-2.72,1.105-4.127,1.653c-0.304,0.105-0.619,0.215-0.955,0.339
		c-1.053,0.375-2.056,0.717-3.029,1.04c-3.787-3.118-9.395-6.815-17.03-8.442c-4.64-0.981-9.368,0.229-13.747,2.205
		c-2.658,1.202-4.909,3.416-3.967,7.271c1.012,4.156,6.188,5.009,9.063,5.389c5.437,0.722,11.058-0.094,16.417-1.229
		c0.478-0.098,0.969-0.218,1.46-0.331c0-0.004,0-0.004-0.009-0.004c0.792-0.161,1.611-0.342,2.472-0.567
		c0.608,0.5,1.027,0.85,1.027,0.85c8.337,6.719,9.657,11.716,8.656,16.315c-0.292,1.341,3.247-2.657,3.499-6.851
		c0.213-3.588-0.522-7.928-5.219-12.298c-0.145-0.139-0.305-0.282-0.465-0.433c0.664-0.248,1.345-0.507,2.049-0.789l0.018,0.012
		c0.225-0.094,0.478-0.207,0.739-0.319c1.627-0.661,3.365-1.409,5.253-2.255c6.781,4.829,13.686,8.094,21.138,7.624
		c3.646-0.236,19.842-3.738,14.252-12.531C136.046,199.941,132.286,198.424,130.176,198.078z M65.604,187.371
		c-4.069-0.296-8.245-0.142-10.824-3.7c-1.393-1.92-1.137-4.42,0.19-6.171c0.279,0.021,0.562,0.043,0.84,0.067
		c2.384,0.21,4.733,0.736,7.038,1.345c5.458,1.456,8.359,3.514,13.141,6.467c0.004,0,0.004-0.004,0.004-0.004
		c0.605,0.474,1.255,1.028,1.943,1.626C73.574,187.526,69.677,187.666,65.604,187.371z M81.306,211.364
		c-2.777,0.342-5.343,0.421-8.002,0.185c-3.038-0.274-6.161-0.136-8.09-3.397c-1.039-1.766-0.849-4.065,0.146-5.678
		c0.208,0.02,0.421,0.042,0.628,0.061c1.778,0.199,3.533,0.68,5.259,1.24c4.079,1.337,7.576,3.055,11.151,5.771
		c0.419,0.312,1.003,0.767,1.622,1.27C83.022,211.049,82.116,211.229,81.306,211.364z M129.261,211.969
		c-0.824-0.011-1.654-0.094-2.472-0.18c-2.914-0.315-5.785-1.248-8.563-2.36c-3.339-1.341-5.967-3.295-9.103-5.538
		c3.065-0.996,6.622-2.06,9.771-2.363c3.542-0.339,9.593-0.398,11.42,4.46C131.078,208.021,130.504,210.466,129.261,211.969z"/>
	<path fill="#FFFFFF" d="M148.421,50.736c-14.237-20.929-32.991-32.454-52.802-32.454c-19.808,0-38.56,11.524-52.794,32.454
		C28.211,72.21,20.17,100.846,20.17,131.374c0,30.528,8.041,59.166,22.655,80.645c14.234,20.925,32.983,32.457,52.794,32.457
		s38.564-11.532,52.802-32.457c14.611-21.479,22.657-50.116,22.657-80.645C171.078,100.846,163.032,72.21,148.421,50.736z
		 M146.082,210.429c-13.693,20.125-31.616,31.214-50.463,31.214c-18.842,0-36.764-11.089-50.458-31.214
		c-14.295-21.016-22.164-49.088-22.164-79.055c0-29.962,7.869-58.037,22.164-79.045c13.694-20.133,31.617-31.214,50.458-31.214
		c18.847,0,36.77,11.081,50.463,31.214c14.292,21.008,22.165,49.083,22.165,79.045C168.247,161.34,160.374,189.413,146.082,210.429z
		"/>
	<path fill="#FFFFFF" d="M141.2,173.911c-5.679-0.748-11.634,0.171-17.21,1.216c-3.899,0.723-6.478,1.27-10.049,2.217
		c0.996,0.812,2.533,1.647,2.533,1.647c3.495-0.853,5.958-1.163,9.815-1.454c4.674-0.355,12.676-0.419,15.087,4.689
		c1.014,2.136,0.251,4.706-1.379,6.284c-1.099-0.011-2.195-0.09-3.274-0.188c-3.857-0.333-7.647-1.308-11.323-2.48
		c-4.441-1.42-8.797-3.385-12.981-5.766h0.007l-1.278-0.748c-8.637-5.129-16.485-11.971-22.73-19.321
		c-5.281-6.222-8.966-13.26-12.289-20.606c7.52-2.101,14.191-6.666,16.906-13.841c4.184-13.266-6.8-24.597-19.02-27.808
		c-13.488-3.547-29.745,0.526-35.081,13.433c-3.367,8.154-0.664,17.378,9.291,24.087l3.401-8.133
		c-5.584-4.644-8.477-11.167-5.958-17.286c4.148-10.068,16.405-10.025,24.716-6.424c9.598,4.175,15.511,14.268,12.504,23.804
		c-1.339,3.547-3.964,7.154-7.75,8.362c-3.402,1.077-7.245,0.588-10.739-0.554c3.286-8.61,5.866-15.447,9.142-24.06
		c-2.003-1.608-5.413-3.367-8.081-4.125c-0.062,0.101-6.418,16.837-9.908,25.979c-2.141,5.603-4.272,11.201-6.422,16.794
		c-0.558,1.46-1.101,2.929-1.693,4.379c-1.372,3.386-3.297,7.793-6.29,7.756c-2.508-0.023-4.885-1.648-4.885-1.648l-2.648,4.492
		c0,0,2.911,1.674,6.054,1.758c8.595,0.229,14.269-4.418,18.061-13.933c1.574-3.947,3.057-7.923,4.569-11.889
		c0.973,0.105,1.954,0.176,2.959,0.205c4.716,10.53,10.253,19.969,18.647,28.134c4.968,4.834,10.908,9.597,17.401,13.496h-0.008
		l1.38,0.813c0.004,0,0.008-0.006,0.008-0.006c9.135,5.236,19.272,8.688,29.303,8.178c4.821-0.242,26.225-3.926,18.83-13.17
		C148.958,175.869,143.986,174.275,141.2,173.911z"/>
</g>
</svg>
