<?xml version="1.0" encoding="utf-8"?>
<!-- Generator: Adobe Illustrator 16.0.0, SVG Export Plug-In . SVG Version: 6.00 Build 0)  -->
<!DOCTYPE svg PUBLIC "-//W3C//DTD SVG 1.1//EN" "http://www.w3.org/Graphics/SVG/1.1/DTD/svg11.dtd">
<svg version="1.1" id="Layer_1" xmlns="http://www.w3.org/2000/svg" xmlns:xlink="http://www.w3.org/1999/xlink" x="0px" y="0px"
	 width="294.5px" height="100px" viewBox="-99 0 294.5 100" enable-background="new -99 0 294.5 100" xml:space="preserve">
<rect x="-88.26" y="26.212" fill="none" width="454.736" height="97.456"/>
<text transform="matrix(1 0 0 1 -88.2598 72.1016)"><tspan x="0" y="0" font-family="'AkzidenzGroteskBE-Md'" font-size="65">TOOL</tspan><tspan x="170.624" y="0" fill="#FFFFFF" font-family="'AkzidenzGroteskBE-Md'" font-size="65">I</tspan><tspan x="189.604" y="0" font-family="'AkzidenzGroteskBE-Md'" font-size="65">ST</tspan></text>
<polygon points="92.521,47.662 93.754,46.594 92.576,46.142 92.695,44.406 92.98,43.287 92.98,30.411 96.198,26.212 90.74,26.212 
	90.74,27.983 88.221,27.983 88.221,26.212 82.762,26.212 85.979,30.411 85.979,44.406 86.259,45.527 86.373,47.085 85.207,48.1 
	86.482,48.588 86.567,49.771 85.343,50.83 86.682,51.343 86.77,52.543 85.62,53.538 86.876,54.021 86.964,55.225 85.758,56.272 
	87.076,56.777 87.16,57.929 87.129,57.934 85.896,59.005 87.277,59.533 87.36,60.682 86.175,61.713 87.47,62.211 87.556,63.373 
	87.543,63.377 86.309,64.442 87.67,64.97 87.753,66.094 87.681,66.106 86.447,67.179 87.87,67.722 88.077,70.578 89.479,71.84 
	90.877,70.578 91.11,67.207 91.277,67.179 92.512,66.107 91.221,65.612 91.306,64.416 91.416,64.397 92.652,63.326 91.413,62.854 
	91.499,61.625 91.554,61.615 92.787,60.545 91.605,60.093 91.693,58.837 91.83,58.812 93.063,57.739 91.802,57.258 91.887,56.046 
	91.97,56.032 93.201,54.958 91.995,54.497 92.081,53.254 92.107,53.249 93.339,52.178 92.186,51.735 92.275,50.461 92.383,50.442 
	93.615,49.375 92.384,48.9 92.469,47.672 "/>
</svg>
