<?xml version="1.0" encoding="utf-8"?>
<!-- Generator: Adobe Illustrator 16.0.0, SVG Export Plug-In . SVG Version: 6.00 Build 0)  -->
<!DOCTYPE svg PUBLIC "-//W3C//DTD SVG 1.1//EN" "http://www.w3.org/Graphics/SVG/1.1/DTD/svg11.dtd">
<svg version="1.1" id="Layer_1" xmlns="http://www.w3.org/2000/svg" xmlns:xlink="http://www.w3.org/1999/xlink" x="0px" y="0px"
	 width="82.525px" height="100px" viewBox="0 0 82.525 100" enable-background="new 0 0 82.525 100" xml:space="preserve">
<path fill="#FFFFFF" d="M78.659,92.239H67.213c-0.364-2.552-0.846-5.755-1.497-9.884c-1.445-9.18-3.567-22.422-6.395-39.751V19.193
	h4.181L40.69,0L19.05,19.193h4.297v23.854h0.144c-4.35,24.439-7.097,40.82-8.229,49.192H3.867C1.719,92.239,0,93.973,0,96.133
	C0,98.27,1.719,100,3.867,100h74.792c2.136,0,3.866-1.73,3.866-3.867C82.526,93.973,80.794,92.239,78.659,92.239z M59.518,83.75
	L45.482,67.864l9.35-10.599L59.518,83.75z M41.563,64.427L28.919,50.338l0.951-6.393l22.682-0.052l1.094,6.718L41.563,64.427z
	 M28.529,19.245H54.01v8.047H28.529V19.245z M27.409,56.027l10.91,12.149L21.797,86.575L27.409,56.027z M22.943,92.239
	l18.542-20.222l18.269,20.222H22.943z"/>
</svg>
