<?xml version="1.0" encoding="utf-8"?>
<!-- Generator: Adobe Illustrator 16.0.0, SVG Export Plug-In . SVG Version: 6.00 Build 0)  -->
<!DOCTYPE svg PUBLIC "-//W3C//DTD SVG 1.1//EN" "http://www.w3.org/Graphics/SVG/1.1/DTD/svg11.dtd">
<svg version="1.1" id="Layer_1" xmlns="http://www.w3.org/2000/svg" xmlns:xlink="http://www.w3.org/1999/xlink" x="0px" y="0px"
	 width="100px" height="100px" viewBox="0 0 100 100" enable-background="new 0 0 100 100" xml:space="preserve">
<path fill="#666666" d="M244.314,38.231l-0.119-1.229l-14.153,2.71c0.051-3.456,0.182-13.063,0.164-23.476
	c-0.002-1.609,0-3.24,0-4.872c0.004-9.717,0.01-19.764-0.705-25.497c-0.422-3.387-2.568-8.728-6.529-8.728c-0.021,0-0.043,0-0.063,0
	c-13.766,0.194-56.58,5.593-63.662,6.498c-1.651-0.022-3.047,0.548-4.141,1.716c-3.643,3.881-2.457,13.229-2.404,13.625l0.147,1.121
	l13.814-1.893c1.1,7.858,0.885,18.378,0.684,28.208c-0.048,2.373-0.099,4.822-0.13,7.191c-0.02,1.418-0.05,2.818-0.081,4.192
	c-0.298,13.42-0.555,25.011,11.317,27.729c0.968,0.221,1.882,0.332,2.74,0.332c0.875,0,1.691-0.115,2.451-0.346l0.022,0.105
	L238.35,53.5l0.072-0.019c0.18-0.053,4.436-1.352,5.59-6.282C244.836,43.685,244.336,38.452,244.314,38.231z M154.816-2.44
	c-0.232-2.956-0.185-8.414,1.928-10.665c0.498-0.529,1.087-0.845,1.787-0.961l0.008,0.064c0.035-0.005,0.335-0.043,0.852-0.109
	c0.028,0.001,0.057,0,0.086,0.003c3.68,0.25,5.723,4.2,6.826,10.094L154.816-2.44z M184.884,62.276
	c-1.416,1.303-3.354,1.646-5.928,1.06c-10.084-2.31-9.858-12.536-9.57-25.485c0.03-1.379,0.062-2.787,0.081-4.213
	c0.032-2.361,0.081-4.766,0.13-7.174c0.206-10.067,0.418-20.478-0.655-28.365c-0.869-6.385-2.559-10.611-5.117-12.77
	c13.16-1.645,47.203-5.769,59.115-5.937c0.012,0,0.021,0,0.029,0c2.441,0,4.004,4.392,4.299,6.755
	c0.697,5.594,0.691,15.57,0.688,25.218c-0.002,1.634-0.002,3.266,0,4.877c0.018,10.907-0.127,20.934-0.173,23.903l-40.443,7.748
	l0.15,1.061C187.874,51.642,188.15,59.272,184.884,62.276z M241.82,46.688c-0.814,3.485-3.683,4.521-4.004,4.627l-50.14,11.113
	c2.62-3.955,2.381-10.224,2.16-12.723l52.325-10.021C242.26,41.385,242.336,44.489,241.82,46.688z"/>
<polygon fill="none" stroke="#999999" stroke-miterlimit="10" points="208.626,25.648 195.892,55.67 178.392,28.995 "/>
<line fill="none" stroke="#999999" stroke-miterlimit="10" x1="50" y1="65.67" x2="50" y2="31.5"/>
<path fill="none" stroke="#999999" stroke-miterlimit="10" d="M41.167,55.67"/>
<line fill="none" stroke="#999999" stroke-miterlimit="10" x1="57.139" y1="57.326" x2="50.268" y2="65.493"/>
<line fill="none" stroke="#999999" stroke-miterlimit="10" x1="42.101" y1="57.326" x2="50.268" y2="65.493"/>
</svg>
