<?xml version="1.0" encoding="utf-8"?>
<!-- Generator: Adobe Illustrator 16.0.0, SVG Export Plug-In . SVG Version: 6.00 Build 0)  -->
<!DOCTYPE svg PUBLIC "-//W3C//DTD SVG 1.1//EN" "http://www.w3.org/Graphics/SVG/1.1/DTD/svg11.dtd">
<svg version="1.1" id="Layer_1" xmlns="http://www.w3.org/2000/svg" xmlns:xlink="http://www.w3.org/1999/xlink" x="0px" y="0px"
	 width="14.531px" height="15px" viewBox="8.734 8.5 14.531 15" enable-background="new 8.734 8.5 14.531 15" xml:space="preserve">
<g id="Layer_1_1_">
</g>
<g id="clock_1_">
	<g>
		<path fill="#FFFFFF" d="M15.734,11.825c2.69,0,4.875,2.187,4.875,4.875c0,2.686-2.185,4.875-4.875,4.875
			c-2.689,0-4.875-2.189-4.875-4.875C10.859,14.012,13.045,11.825,15.734,11.825 M15.734,10.2c-3.588,0-6.5,2.91-6.5,6.5
			c0,3.586,2.912,6.5,6.5,6.5s6.5-2.914,6.5-6.5C22.234,13.11,19.322,10.2,15.734,10.2L15.734,10.2z"/>
		<path fill="#FFFFFF" d="M17.938,17.747l-1.392-1.392V13.45h-1.635v3.247c0,0.245,0.111,0.454,0.281,0.607l1.597,1.593
			L17.938,17.747z"/>
	</g>
</g>
</svg>
