<?xml version="1.0" encoding="utf-8"?>
<!-- Generator: Adobe Illustrator 16.0.0, SVG Export Plug-In . SVG Version: 6.00 Build 0)  -->
<!DOCTYPE svg PUBLIC "-//W3C//DTD SVG 1.1//EN" "http://www.w3.org/Graphics/SVG/1.1/DTD/svg11.dtd">
<svg version="1.1" id="Layer_1" xmlns="http://www.w3.org/2000/svg" xmlns:xlink="http://www.w3.org/1999/xlink" x="0px" y="0px"
	 width="20.75px" height="53px" viewBox="0 0 20.75 53" enable-background="new 0 0 20.75 53" xml:space="preserve">
<rect x="12.555" y="33.372" transform="matrix(-0.7071 -0.7071 0.7071 -0.7071 0.0517 71.1982)" fill="#454545" width="4.433" height="4.433"/>
<rect x="2.53" y="33.372" transform="matrix(-0.7071 -0.7071 0.7071 -0.7071 -17.0635 64.1088)" fill="#454545" width="4.43" height="4.432"/>
<rect x="7.542" y="38.386" transform="matrix(-0.7072 -0.707 0.707 -0.7072 -12.0456 76.2148)" fill="#454545" width="4.433" height="4.432"/>
<rect x="12.556" y="43.399" transform="matrix(-0.7071 -0.7071 0.7071 -0.7071 -7.0385 88.3131)" fill="#454545" width="4.43" height="4.431"/>
<rect x="2.529" y="43.399" transform="matrix(-0.7071 -0.7071 0.7071 -0.7071 -24.1526 81.2232)" fill="#454545" width="4.433" height="4.429"/>
<rect x="12.647" y="3.281" transform="matrix(-0.7071 -0.7071 0.7071 -0.7071 21.4877 19.8927)" fill="#FFFFFF" width="4.433" height="4.431"/>
<rect x="2.621" y="3.281" transform="matrix(-0.7072 -0.7071 0.7071 -0.7072 4.371 12.8035)" fill="#FFFFFF" width="4.432" height="4.432"/>
<rect x="7.634" y="8.294" transform="matrix(-0.7072 -0.7071 0.7071 -0.7072 9.3848 24.9064)" fill="#FFFFFF" width="4.433" height="4.432"/>
<rect x="12.649" y="13.307" transform="matrix(-0.7071 -0.7072 0.7072 -0.7071 14.3963 37.0087)" fill="#FFFFFF" width="4.429" height="4.431"/>
<rect x="2.621" y="13.307" transform="matrix(-0.7072 -0.7071 0.7071 -0.7072 -2.717 29.9196)" fill="#FFFFFF" width="4.433" height="4.432"/>
</svg>
