<?xml version="1.0" encoding="utf-8"?>
<!-- Generator: Adobe Illustrator 16.0.0, SVG Export Plug-In . SVG Version: 6.00 Build 0)  -->
<!DOCTYPE svg PUBLIC "-//W3C//DTD SVG 1.1//EN" "http://www.w3.org/Graphics/SVG/1.1/DTD/svg11.dtd">
<svg version="1.1" id="Layer_1" xmlns="http://www.w3.org/2000/svg" xmlns:xlink="http://www.w3.org/1999/xlink" x="0px" y="0px"
	 width="96px" height="96px" viewBox="0 0 96 96" enable-background="new 0 0 96 96" xml:space="preserve">
<rect x="6" y="6" fill="#444444" width="20" height="20"/>
<rect x="38" y="6" fill="#444444" width="20" height="20"/>
<rect x="70" y="6" fill="#444444" width="20" height="20"/>
<rect x="6" y="38" fill="#444444" width="20" height="20"/>
<rect x="38" y="38" fill="#444444" width="20" height="20"/>
<rect x="70" y="38" fill="#444444" width="20" height="20"/>
<rect x="6" y="70" fill="#444444" width="20" height="20"/>
<rect x="38" y="70" fill="#444444" width="20" height="20"/>
<rect x="70" y="70" fill="#444444" width="20" height="20"/>
<g id="twitter">
	<path fill="#444444" d="M148.777,42.03c-0.772,0.343-1.604,0.575-2.479,0.68c0.894-0.535,1.578-1.382,1.897-2.39
		c-0.836,0.495-1.76,0.854-2.741,1.048c-0.789-0.84-1.912-1.365-3.154-1.365c-2.387,0-4.321,1.935-4.321,4.321
		c0,0.338,0.039,0.668,0.112,0.985c-3.592-0.18-6.774-1.9-8.905-4.515c-0.373,0.638-0.586,1.38-0.586,2.173
		c0,1.499,0.764,2.821,1.922,3.596c-0.709-0.022-1.375-0.216-1.957-0.54c0,0.017,0,0.036,0,0.054c0,2.093,1.49,3.84,3.467,4.237
		c-0.361,0.099-0.744,0.151-1.139,0.151c-0.279,0-0.55-0.026-0.812-0.077c0.549,1.715,2.146,2.965,4.037,3
		c-1.479,1.159-3.344,1.85-5.369,1.85c-0.348,0-0.689-0.021-1.029-0.062c1.912,1.227,4.186,1.94,6.625,1.94
		c7.947,0,12.295-6.583,12.295-12.294c0-0.188-0.005-0.374-0.015-0.56C147.467,43.657,148.2,42.895,148.777,42.03z"/>
</g>
</svg>
