<?xml version="1.0" encoding="utf-8"?>
<!-- Generator: Adobe Illustrator 16.0.0, SVG Export Plug-In . SVG Version: 6.00 Build 0)  -->
<!DOCTYPE svg PUBLIC "-//W3C//DTD SVG 1.1//EN" "http://www.w3.org/Graphics/SVG/1.1/DTD/svg11.dtd">
<svg version="1.1" id="Layer_1" xmlns="http://www.w3.org/2000/svg" xmlns:xlink="http://www.w3.org/1999/xlink" x="0px" y="0px"
	 width="63px" height="11px" viewBox="0 0 63 11" enable-background="new 0 0 63 11" xml:space="preserve">
<g id="Layer_1_1_">
	
		<image overflow="visible" opacity="0.55" enable-background="new    " width="80" height="20" xlink:href="../../../folio/images/fullscreen_help.png"  transform="matrix(1 0 0 1 11.0625 -25.6875)">
	</image>
	<polygon fill="#FFFFFF" points="13.738,4.896 14.829,4.896 14.829,3.752 15.956,3.752 15.956,4.896 17.101,4.896 17.101,6.077 
		15.974,6.077 15.974,7.134 14.865,7.134 14.865,6.077 13.738,6.077 	"/>
	<polygon fill="#FFFFFF" points="13.738,4.896 14.829,4.896 14.829,3.752 15.956,3.752 15.956,4.896 17.101,4.896 17.101,6.077 
		15.974,6.077 15.974,7.134 14.865,7.134 14.865,6.077 13.738,6.077 	"/>
	<polygon fill="#FFFFFF" points="44.576,4.896 45.667,4.896 45.667,3.752 46.793,3.752 46.793,4.896 47.938,4.896 47.938,6.077 
		46.812,6.077 46.812,7.134 45.703,7.134 45.703,6.077 44.576,6.077 	"/>
	<polygon fill="#FFFFFF" points="57.24,0.318 59.529,0.318 59.529,3.752 60.641,3.752 60.641,4.896 61.818,4.896 61.818,6.077 
		63,6.077 63,9.512 61.818,9.512 61.818,10.656 56.131,10.656 56.131,9.477 54.986,9.477 54.986,7.134 53.841,7.134 53.841,4.896 
		56.113,4.896 56.113,6.077 57.258,6.077 	"/>
</g>
<g id="Layer_2">
	<rect x="-0.036" y="4.896" fill="#FFFFFF" width="7.942" height="5.653"/>
	<rect x="34.38" y="6.077" fill="#FFFFFF" width="4.509" height="4.579"/>
	<rect x="34.38" y="6.077" fill="#FFFFFF" width="4.509" height="4.579"/>
	<rect x="22.932" y="6.077" fill="#FFFFFF" width="4.508" height="4.579"/>
	<rect y="0.318" fill="#FFFFFF" width="3.327" height="3.435"/>
	<rect x="4.579" y="0.318" fill="#FFFFFF" width="3.327" height="3.435"/>
	<rect x="28.62" y="6.077" fill="#FFFFFF" width="4.508" height="4.579"/>
	<rect x="28.62" y="6.077" fill="#FFFFFF" width="4.508" height="4.579"/>
	<rect x="28.62" y="0.318" fill="#FFFFFF" width="4.508" height="4.579"/>
</g>
</svg>
