<?xml version="1.0" encoding="utf-8"?>
<!-- Generator: Adobe Illustrator 16.0.0, SVG Export Plug-In . SVG Version: 6.00 Build 0)  -->
<!DOCTYPE svg PUBLIC "-//W3C//DTD SVG 1.1//EN" "http://www.w3.org/Graphics/SVG/1.1/DTD/svg11.dtd">
<svg version="1.1" xmlns="http://www.w3.org/2000/svg" xmlns:xlink="http://www.w3.org/1999/xlink" x="0px" y="0px" width="22.75px"
	 height="47.752px" viewBox="37.5 17.121 22.75 47.752" enable-background="new 37.5 17.121 22.75 47.752" xml:space="preserve">
<g id="Layer_1">
	<g id="Layer_2">
	</g>
	<rect x="38.17" y="52.051" fill="#FFFFFF" width="20.586" height="12.278"/>
	<path d="M48.521,44.322l-10.605,7.917v12.594h21.209V52.239L48.521,44.322z M38.665,52.49l7.824,5.247l-7.824,6.056V52.49z
		 M39.258,64.196l9.264-7.169l9.261,7.169H39.258z M58.376,63.793l-7.824-6.056l7.824-5.247V63.793z"/>
	<rect x="38.173" y="24.945" fill="#FFFFFF" width="20.842" height="12.433"/>
	<path fill="#444444" d="M70.882,17.421h-0.261V17.38c0-0.059-0.048-0.106-0.106-0.106h-1.634c-0.06,0-0.106,0.048-0.106,0.106
		v0.041h-4.825c-0.888,0-1.608,0.722-1.608,1.609v0.192h-0.069c-0.06,0-0.105,0.048-0.105,0.106v0.817
		c0,0.059,0.046,0.107,0.105,0.107h0.069v1.416h-0.069c-0.06,0-0.105,0.048-0.105,0.106v0.546c0,0.06,0.046,0.106,0.105,0.106h0.069
		v0.873h-0.069c-0.06,0-0.105,0.048-0.105,0.106v0.546c0,0.059,0.046,0.106,0.105,0.106h0.069v12.28
		c0,0.888,0.721,1.609,1.608,1.609h6.933c0.887,0,1.608-0.722,1.608-1.609V19.031C72.49,18.144,71.769,17.421,70.882,17.421z
		 M66.609,19.007h1.477c0.11,0,0.2,0.079,0.2,0.176c0,0.097-0.09,0.176-0.2,0.176h-1.477c-0.112,0-0.203-0.079-0.203-0.176
		C66.406,19.086,66.497,19.007,66.609,19.007z M65.84,19.012c0.095,0,0.171,0.077,0.171,0.17c0,0.093-0.076,0.169-0.171,0.169
		c-0.094,0-0.169-0.076-0.169-0.169C65.671,19.089,65.747,19.012,65.84,19.012z M67.348,37.02c-0.551,0-0.997-0.447-0.997-0.997
		s0.446-0.997,0.997-0.997c0.55,0,0.996,0.446,0.996,0.997S67.897,37.02,67.348,37.02z M71.879,34.21h-9.063V20.616h9.063V34.21z"/>
	<path fill="#121212" d="M70.309,44.922h-0.247v-0.039c0-0.056-0.046-0.101-0.102-0.101h-1.551c-0.057,0-0.102,0.045-0.102,0.101
		v0.039h-4.581c-0.843,0-1.527,0.686-1.527,1.528v0.182h-0.065c-0.057,0-0.101,0.045-0.101,0.101v0.776
		c0,0.056,0.044,0.102,0.101,0.102h0.065v1.344h-0.065c-0.057,0-0.101,0.045-0.101,0.101v0.519c0,0.056,0.044,0.101,0.101,0.101
		h0.065v0.828h-0.065c-0.057,0-0.101,0.046-0.101,0.102v0.52c0,0.055,0.044,0.1,0.101,0.1h0.065v11.66
		c0,0.842,0.685,1.527,1.527,1.527h6.582c0.842,0,1.527-0.686,1.527-1.527V46.45C71.836,45.608,71.15,44.922,70.309,44.922z
		 M66.252,46.428h1.402c0.104,0,0.19,0.075,0.19,0.167c0,0.092-0.086,0.167-0.19,0.167h-1.402c-0.106,0-0.192-0.075-0.192-0.167
		C66.06,46.502,66.146,46.428,66.252,46.428z M65.521,46.433c0.09,0,0.162,0.073,0.162,0.162s-0.072,0.161-0.162,0.161
		c-0.089,0-0.16-0.072-0.16-0.161S65.434,46.433,65.521,46.433z M66.953,63.529c-0.522,0-0.946-0.424-0.946-0.945
		c0-0.523,0.424-0.947,0.946-0.947s0.946,0.424,0.946,0.947C67.899,63.105,67.476,63.529,66.953,63.529z M71.256,60.862H62.65
		V47.956h8.605V60.862z"/>
	<path fill="#444444" d="M48.653,17.121l-10.737,8.016v12.75h21.473v-12.75L48.653,17.121z M38.674,25.391l7.922,5.312l-7.922,6.131
		V25.391z M39.274,37.243l9.379-7.258l9.376,7.258H39.274z M58.631,36.834l-7.922-6.131l7.922-5.312V36.834z"/>
</g>
<g id="Layer_2_1_">
	<circle fill="#121212" cx="90.566" cy="54.597" r="10.276"/>
	<path fill="#FFFFFF" stroke="#666666" stroke-width="0.25" d="M92.895,59.906c-0.307-0.283,0.047-1.166,0.789-1.975l0,0
		c0.74-0.807,1.59-1.232,1.896-0.953l2.718,2.496c0.308,0.281-0.046,1.164-0.788,1.973l0,0c-0.74,0.809-1.591,1.232-1.896,0.953
		L92.895,59.906z"/>
	<path fill="#FFFFFF" stroke="#666666" stroke-width="0.25" d="M85.374,56.893c0.28-0.307,1.164,0.045,1.972,0.787l0,0
		c0.809,0.742,1.235,1.592,0.954,1.898l-2.495,2.719c-0.281,0.307-1.166-0.047-1.974-0.789l0,0c-0.808-0.74-1.233-1.592-0.953-1.896
		L85.374,56.893z"/>
	<path fill="#FFFFFF" stroke="#666666" stroke-width="0.25" d="M88.214,49.392c0.306,0.283-0.055,1.165-0.803,1.967l0,0
		c-0.748,0.801-1.601,1.223-1.905,0.938l-2.699-2.516c-0.305-0.283,0.055-1.164,0.803-1.967l0,0
		c0.748-0.803,1.602-1.223,1.906-0.938L88.214,49.392z"/>
	<path fill="#FFFFFF" stroke="#666666" stroke-width="0.25" d="M95.791,52.291c-0.284,0.303-1.164-0.057-1.967-0.803l0,0
		c-0.803-0.748-1.223-1.604-0.938-1.907l2.516-2.699c0.283-0.305,1.164,0.057,1.966,0.804l0,0c0.803,0.748,1.223,1.603,0.938,1.903
		L95.791,52.291z"/>
	<circle fill="#B1F0EB" stroke="#121212" stroke-width="3" cx="90.566" cy="54.597" r="5.829"/>
	<circle fill="#444444" cx="90.566" cy="27.597" r="10.276"/>
	<path fill="#FFFFFF" stroke="#666666" stroke-width="0.25" d="M92.895,32.905c-0.307-0.282,0.047-1.166,0.789-1.973l0,0
		c0.74-0.808,1.59-1.234,1.896-0.953l2.718,2.495c0.308,0.282-0.046,1.165-0.788,1.972l0,0c-0.74,0.809-1.591,1.234-1.896,0.955
		L92.895,32.905z"/>
	<path fill="#FFFFFF" stroke="#666666" stroke-width="0.25" d="M85.374,29.891c0.28-0.306,1.164,0.046,1.972,0.788l0,0
		c0.809,0.742,1.235,1.592,0.954,1.898l-2.495,2.719c-0.281,0.307-1.166-0.047-1.974-0.789l0,0c-0.808-0.74-1.233-1.592-0.953-1.896
		L85.374,29.891z"/>
	<path fill="#FFFFFF" stroke="#666666" stroke-width="0.25" d="M88.214,22.392c0.306,0.283-0.055,1.164-0.803,1.966l0,0
		c-0.748,0.801-1.601,1.222-1.905,0.938l-2.699-2.516c-0.305-0.284,0.055-1.164,0.803-1.966l0,0
		c0.748-0.802,1.602-1.222,1.906-0.938L88.214,22.392z"/>
	<path fill="#FFFFFF" stroke="#666666" stroke-width="0.25" d="M95.791,25.29c-0.284,0.304-1.164-0.055-1.967-0.803l0,0
		c-0.803-0.748-1.223-1.602-0.938-1.905l2.516-2.699c0.283-0.304,1.164,0.055,1.966,0.803l0,0c0.803,0.748,1.223,1.601,0.938,1.905
		L95.791,25.29z"/>
	<circle fill="#B1F0EB" stroke="#444444" stroke-width="3" cx="90.566" cy="27.597" r="5.829"/>
	<circle fill="#444444" cx="90.566" cy="27.597" r="10.276"/>
	<path fill="#FFFFFF" stroke="#666666" stroke-width="0.25" d="M92.895,32.905c-0.307-0.282,0.047-1.166,0.789-1.973l0,0
		c0.74-0.808,1.59-1.234,1.896-0.953l2.718,2.495c0.308,0.282-0.046,1.165-0.788,1.972l0,0c-0.74,0.809-1.591,1.234-1.896,0.955
		L92.895,32.905z"/>
	<path fill="#FFFFFF" stroke="#666666" stroke-width="0.25" d="M85.374,29.891c0.28-0.306,1.164,0.046,1.972,0.788l0,0
		c0.809,0.742,1.235,1.592,0.954,1.898l-2.495,2.719c-0.281,0.307-1.166-0.047-1.974-0.789l0,0c-0.808-0.74-1.233-1.592-0.953-1.896
		L85.374,29.891z"/>
	<path fill="#FFFFFF" stroke="#666666" stroke-width="0.25" d="M88.214,22.392c0.306,0.283-0.055,1.164-0.803,1.966l0,0
		c-0.748,0.801-1.601,1.222-1.905,0.938l-2.699-2.516c-0.305-0.284,0.055-1.164,0.803-1.966l0,0
		c0.748-0.802,1.602-1.222,1.906-0.938L88.214,22.392z"/>
	<path fill="#FFFFFF" stroke="#666666" stroke-width="0.25" d="M95.791,25.29c-0.284,0.304-1.164-0.055-1.967-0.803l0,0
		c-0.803-0.748-1.223-1.602-0.938-1.905l2.516-2.699c0.283-0.304,1.164,0.055,1.966,0.803l0,0c0.803,0.748,1.223,1.601,0.938,1.905
		L95.791,25.29z"/>
	<circle fill="#B1F0EB" stroke="#444444" stroke-width="3" cx="90.566" cy="27.597" r="5.829"/>
</g>
</svg>
