<?xml version="1.0" encoding="utf-8"?>
<!-- Generator: Adobe Illustrator 16.0.0, SVG Export Plug-In . SVG Version: 6.00 Build 0)  -->
<!DOCTYPE svg PUBLIC "-//W3C//DTD SVG 1.1//EN" "http://www.w3.org/Graphics/SVG/1.1/DTD/svg11.dtd">
<svg version="1.1" id="Layer_1" xmlns="http://www.w3.org/2000/svg" xmlns:xlink="http://www.w3.org/1999/xlink" x="0px" y="0px"
	 width="106.625px" height="51.167px" viewBox="0 0 106.625 51.167" enable-background="new 0 0 106.625 51.167"
	 xml:space="preserve">
<g id="linkedin" display="none">
	<path id="LinkedIn" display="inline" fill="#444444" d="M185.395,23.634v10.499h-6.086V24.34c0-2.46-0.883-4.14-3.082-4.14
		c-1.686,0-2.686,1.132-3.123,2.227c-0.16,0.393-0.201,0.938-0.201,1.484v10.221h-6.088c0,0,0.082-16.585,0-18.304h6.088v2.595
		c-0.014,0.02-0.025,0.041-0.041,0.06h0.041v-0.06c0.811-1.246,2.252-3.025,5.482-3.025
		C182.393,15.395,185.395,18.011,185.395,23.634z M160.441,7C158.359,7,157,8.366,157,10.162c0,1.758,1.322,3.165,3.361,3.165h0.041
		c2.123,0,3.443-1.407,3.443-3.165C163.809,8.366,162.525,7,160.441,7z M157.359,34.132h6.086V15.825h-6.086V34.132z"/>
</g>
<g id="twitter_1_">
	<path fill="#444444" d="M79.02,32.057c-0.816,0.362-1.699,0.606-2.625,0.72c0.944-0.566,1.67-1.464,2.01-2.533
		c-0.887,0.524-1.863,0.903-2.902,1.112c-0.836-0.894-2.023-1.444-3.34-1.444c-2.528,0-4.576,2.049-4.576,4.574
		c0,0.359,0.041,0.709,0.118,1.041c-3.806-0.189-7.177-2.01-9.433-4.781c-0.395,0.678-0.621,1.463-0.621,2.303
		c0,1.586,0.812,2.986,2.035,3.811c-0.75-0.023-1.455-0.229-2.068-0.57c-0.004,0.019-0.004,0.037-0.004,0.057
		c0,2.219,1.578,4.066,3.674,4.488c-0.385,0.104-0.787,0.158-1.205,0.158c-0.297,0-0.582-0.027-0.859-0.082
		c0.582,1.816,2.271,3.143,4.273,3.18c-1.564,1.226-3.541,1.957-5.688,1.957c-0.369,0-0.729-0.022-1.09-0.063
		c2.025,1.298,4.432,2.054,7.016,2.054c8.416,0,13.021-6.973,13.021-13.018c0-0.201-0.006-0.396-0.018-0.596
		C77.631,33.781,78.408,32.973,79.02,32.057z"/>
</g>
<g id="twitter">
	<path fill="#999999" d="M79.57,4.746c-0.84,0.372-1.742,0.624-2.691,0.737c0.969-0.581,1.713-1.499,2.061-2.593
		c-0.906,0.537-1.91,0.926-2.977,1.137c-0.855-0.912-2.074-1.481-3.422-1.481c-2.59,0-4.689,2.1-4.689,4.689
		c0,0.367,0.043,0.725,0.123,1.069c-3.896-0.195-7.353-2.062-9.664-4.899c-0.402,0.692-0.637,1.497-0.637,2.357
		c0,1.627,0.829,3.062,2.086,3.903c-0.77-0.024-1.492-0.234-2.123-0.586c0,0.018,0,0.039,0,0.058c0,2.271,1.616,4.167,3.762,4.598
		c-0.393,0.108-0.808,0.165-1.233,0.165c-0.306,0-0.599-0.029-0.882-0.084c0.596,1.861,2.326,3.218,4.381,3.255
		c-1.604,1.259-3.629,2.007-5.826,2.007c-0.379,0-0.749-0.023-1.115-0.067c2.072,1.331,4.541,2.105,7.188,2.105
		c8.623,0,13.342-7.143,13.342-13.34c0-0.204-0.006-0.406-0.02-0.608C78.146,6.512,78.943,5.685,79.57,4.746z"/>
</g>
<g id="linkedin_2_">
	<path id="LinkedIn_2_" fill="#444444" d="M47.998,40.837v7.129h-4.133v-6.651c0-1.669-0.597-2.812-2.093-2.812
		c-1.142,0-1.821,0.769-2.12,1.515c-0.109,0.265-0.137,0.634-0.137,1.008v6.942H35.38c0,0,0.055-11.262,0-12.428h4.134v1.762
		c-0.009,0.015-0.02,0.023-0.027,0.041h0.027v-0.041c0.55-0.846,1.529-2.059,3.724-2.059C45.958,35.246,47.998,37.022,47.998,40.837
		z M31.055,29.542c-1.414,0-2.338,0.928-2.338,2.147c0,1.196,0.899,2.147,2.284,2.147h0.029c1.44,0,2.338-0.955,2.338-2.147
		C33.339,30.471,32.47,29.542,31.055,29.542z M28.962,47.968h4.132V35.537h-4.132V47.968z"/>
</g>
<g id="linkedin_1_">
	<path id="LinkedIn_1_" fill="#999999" d="M47.867,13.888v7.079h-4.105V14.36c0-1.659-0.593-2.792-2.079-2.792
		c-1.134,0-1.809,0.764-2.106,1.503c-0.108,0.263-0.136,0.631-0.136,1.001v6.895h-4.105c0,0,0.055-11.188,0-12.347h4.106v1.751
		c-0.009,0.013-0.02,0.027-0.028,0.041h0.028v-0.041c0.545-0.84,1.518-2.041,3.698-2.041C45.841,8.331,47.867,10.095,47.867,13.888z
		 M31.04,2.668c-1.405,0-2.323,0.921-2.323,2.132c0,1.187,0.893,2.135,2.269,2.135h0.028c1.431,0,2.322-0.949,2.322-2.135
		C33.308,3.591,32.444,2.668,31.04,2.668z M28.96,20.968h4.104V8.621H28.96V20.968z"/>
</g>
<rect x="8.089" y="29.5" fill="#444444" width="4.432" height="4.434"/>
<rect x="1" y="36.589" fill="#444444" width="4.431" height="4.432"/>
<rect x="8.089" y="36.589" fill="#444444" width="4.432" height="4.432"/>
<rect x="15.179" y="36.589" fill="#444444" width="4.431" height="4.432"/>
<rect x="8.089" y="43.679" fill="#444444" width="4.432" height="4.431"/>
<rect x="8.089" y="2.5" fill="#999999" width="4.432" height="4.431"/>
<rect x="1" y="9.59" fill="#999999" width="4.431" height="4.431"/>
<rect x="8.089" y="9.59" fill="#999999" width="4.432" height="4.431"/>
<rect x="15.179" y="9.59" fill="#999999" width="4.431" height="4.431"/>
<rect x="8.089" y="16.679" fill="#999999" width="4.432" height="4.431"/>
<rect x="85.943" y="36.253" fill="#FFFFFF" width="19.095" height="11.389"/>
<path fill="#999999" d="M95.545,2.085l-9.836,7.344V21.11h19.672V9.429L95.545,2.085z M86.404,9.662l7.256,4.867l-7.256,5.615V9.662
	z M86.953,20.519l8.592-6.648l8.592,6.648H86.953z M104.686,20.144l-7.256-5.615l7.256-4.867V20.144z"/>
<path fill="#444444" d="M95.545,29.085l-9.836,7.344V48.11h19.672V36.429L95.545,29.085z M86.404,36.662l7.256,4.867l-7.256,5.615
	V36.662z M86.953,47.519l8.592-6.648l8.592,6.648H86.953z M104.686,47.144l-7.256-5.615l7.256-4.867V47.144z"/>
<rect x="-33" y="-7.75" fill="#FFFFFF" width="4.431" height="4.431"/>
<rect x="-25.911" y="-7.75" fill="#FFFFFF" width="4.433" height="4.431"/>
<rect x="-18.82" y="-7.75" fill="#FFFFFF" width="4.43" height="4.431"/>
<rect x="-33" y="-0.66" fill="#FFFFFF" width="4.431" height="4.431"/>
<rect x="-25.911" y="-0.66" fill="#FFFFFF" width="4.433" height="4.431"/>
<rect x="-18.82" y="-0.66" fill="#FFFFFF" width="4.43" height="4.431"/>
<rect x="-33" y="6.429" fill="#FFFFFF" width="4.431" height="4.431"/>
<rect x="-25.911" y="6.429" fill="#FFFFFF" width="4.433" height="4.431"/>
<rect x="-18.82" y="6.429" fill="#FFFFFF" width="4.43" height="4.431"/>
</svg>
