<?xml version="1.0" encoding="utf-8"?>
<!-- Generator: Adobe Illustrator 15.0.0, SVG Export Plug-In . SVG Version: 6.00 Build 0)  -->
<!DOCTYPE svg PUBLIC "-//W3C//DTD SVG 1.1//EN" "http://www.w3.org/Graphics/SVG/1.1/DTD/svg11.dtd">
<svg version="1.1" id="Layer_1" xmlns="http://www.w3.org/2000/svg" xmlns:xlink="http://www.w3.org/1999/xlink" x="0px" y="0px"
	 width="106.625px" height="51.167px" viewBox="-30.708 0 106.625 51.167" enable-background="new -30.708 0 106.625 51.167"
	 xml:space="preserve">
<g id="linkedin" display="none">
	<path id="LinkedIn" display="inline" fill="#444444" d="M185.394,23.634v10.499h-6.086v-9.794c0-2.46-0.882-4.14-3.082-4.14
		c-1.685,0-2.685,1.132-3.123,2.227c-0.16,0.393-0.201,0.938-0.201,1.484v10.223h-6.088c0,0,0.082-16.587,0-18.306h6.088v2.595
		c-0.014,0.02-0.027,0.041-0.041,0.06h0.041v-0.06c0.809-1.246,2.252-3.025,5.483-3.025
		C182.392,15.395,185.394,18.011,185.394,23.634z M160.442,7C158.36,7,157,8.366,157,10.162c0,1.758,1.322,3.165,3.362,3.165h0.041
		c2.123,0,3.443-1.407,3.443-3.165C163.808,8.366,162.526,7,160.442,7z M157.36,34.132h6.086V15.825h-6.086V34.132z"/>
</g>
<g id="twitter_1_">
	<path fill="#121212" d="M48.778,32.947c-0.773,0.342-1.605,0.573-2.48,0.68c0.893-0.535,1.578-1.383,1.898-2.394
		c-0.836,0.496-1.76,0.854-2.742,1.052c-0.789-0.843-1.912-1.365-3.154-1.365c-2.387,0-4.321,1.934-4.321,4.32
		c0,0.34,0.038,0.67,0.112,0.983c-3.592-0.179-6.775-1.897-8.906-4.515c-0.372,0.64-0.586,1.381-0.586,2.174
		c0,1.498,0.764,2.82,1.922,3.597c-0.709-0.022-1.375-0.218-1.956-0.539c-0.001,0.017-0.001,0.035-0.001,0.054
		c0,2.094,1.49,3.84,3.467,4.237c-0.361,0.099-0.744,0.149-1.138,0.149c-0.28,0-0.55-0.026-0.813-0.078
		c0.549,1.718,2.146,2.968,4.037,3.003c-1.479,1.157-3.344,1.848-5.369,1.848c-0.348,0-0.69-0.021-1.029-0.06
		c1.912,1.226,4.185,1.939,6.625,1.939c7.947,0,12.295-6.584,12.295-12.293c0-0.189-0.005-0.375-0.015-0.561
		C47.467,34.574,48.2,33.812,48.778,32.947z"/>
</g>
<g id="twitter">
	<path fill="#444444" d="M48.778,6.03c-0.773,0.343-1.605,0.575-2.48,0.68c0.893-0.535,1.578-1.382,1.898-2.39
		c-0.836,0.495-1.76,0.854-2.742,1.048c-0.789-0.84-1.912-1.365-3.154-1.365c-2.387,0-4.321,1.935-4.321,4.321
		c0,0.338,0.038,0.668,0.112,0.985c-3.592-0.18-6.775-1.9-8.906-4.515c-0.372,0.638-0.586,1.38-0.586,2.173
		c0,1.499,0.764,2.821,1.922,3.596c-0.709-0.022-1.375-0.216-1.956-0.54c-0.001,0.017-0.001,0.036-0.001,0.054
		c0,2.093,1.49,3.84,3.467,4.237c-0.361,0.099-0.744,0.152-1.138,0.152c-0.28,0-0.55-0.027-0.813-0.078
		c0.549,1.716,2.146,2.966,4.037,3c-1.479,1.16-3.344,1.85-5.369,1.85c-0.348,0-0.69-0.021-1.029-0.062
		c1.912,1.227,4.185,1.94,6.625,1.94c7.947,0,12.295-6.583,12.295-12.294c0-0.188-0.005-0.374-0.015-0.56
		C47.467,7.657,48.2,6.895,48.778,6.03z"/>
</g>
<g id="linkedin_2_">
	<path id="LinkedIn_2_" fill="#121212" d="M18.471,41.403v6.563h-3.806v-6.125c0-1.536-0.55-2.588-1.927-2.588
		c-1.052,0-1.677,0.707-1.953,1.394c-0.1,0.244-0.126,0.584-0.126,0.929v6.393H6.853c0,0,0.051-10.371,0-11.445h3.807v1.623
		c-0.008,0.012-0.018,0.023-0.025,0.037h0.025v-0.037c0.506-0.779,1.408-1.895,3.429-1.895
		C16.593,36.251,18.471,37.888,18.471,41.403z M2.87,31.001c-1.302,0-2.153,0.854-2.153,1.979c0,1.102,0.828,1.979,2.103,1.979
		h0.026c1.327,0,2.153-0.879,2.153-1.979C4.973,31.856,4.173,31.001,2.87,31.001z M0.943,47.968h3.805V36.521H0.943V47.968z"/>
</g>
<g id="linkedin_1_">
	<path id="LinkedIn_1_" fill="#444444" d="M18.471,14.404v6.563h-3.806v-6.125c0-1.538-0.55-2.588-1.927-2.588
		c-1.052,0-1.677,0.708-1.953,1.393c-0.1,0.244-0.126,0.585-0.126,0.928v6.393H6.853c0,0,0.051-10.373,0-11.447h3.807v1.623
		c-0.008,0.012-0.018,0.025-0.025,0.038h0.025v-0.038c0.506-0.779,1.408-1.892,3.429-1.892
		C16.593,9.252,18.471,10.887,18.471,14.404z M2.87,4.002c-1.302,0-2.153,0.854-2.153,1.977c0,1.1,0.828,1.979,2.103,1.979h0.026
		c1.327,0,2.153-0.88,2.153-1.979C4.973,4.857,4.173,4.002,2.87,4.002z M0.943,20.968h3.805V9.521H0.943V20.968z"/>
</g>
<circle fill="#121212" cx="64.603" cy="38.597" r="10.275"/>
<circle fill="#444444" cx="64.603" cy="11.597" r="10.276"/>
<circle fill="#121212" cx="-19.433" cy="38.597" r="10.275"/>
<path fill="#FFFFFF" stroke="#666666" stroke-width="0.25" d="M-17.106,43.906c-0.306-0.283,0.047-1.166,0.789-1.974l0,0
	c0.741-0.808,1.591-1.233,1.897-0.953l2.718,2.495c0.308,0.281-0.046,1.165-0.788,1.973l0,0c-0.741,0.809-1.591,1.233-1.897,0.954
	L-17.106,43.906z"/>
<path fill="#FFFFFF" stroke="#666666" stroke-width="0.25" d="M-24.626,40.892c0.281-0.307,1.164,0.045,1.972,0.787l0,0
	c0.808,0.742,1.235,1.592,0.954,1.898l-2.496,2.719c-0.281,0.307-1.165-0.047-1.973-0.789l0,0c-0.808-0.74-1.233-1.592-0.953-1.896
	L-24.626,40.892z"/>
<path fill="#FFFFFF" stroke="#666666" stroke-width="0.25" d="M-21.786,33.392c0.305,0.283-0.055,1.164-0.803,1.967l0,0
	c-0.748,0.801-1.601,1.223-1.905,0.938l-2.699-2.516c-0.305-0.283,0.055-1.164,0.803-1.967l0,0c0.747-0.803,1.601-1.223,1.905-0.938
	L-21.786,33.392z"/>
<path fill="#FFFFFF" stroke="#666666" stroke-width="0.25" d="M-14.209,36.291c-0.284,0.303-1.164-0.057-1.967-0.803l0,0
	c-0.802-0.748-1.223-1.604-0.938-1.906l2.516-2.699c0.284-0.305,1.164,0.056,1.966,0.803l0,0c0.803,0.748,1.223,1.602,0.939,1.904
	L-14.209,36.291z"/>
<circle fill="#B1F0EB" stroke="#121212" stroke-width="3" cx="-19.433" cy="38.597" r="5.829"/>
<circle fill="#444444" cx="-19.433" cy="11.597" r="10.276"/>
<path fill="#FFFFFF" stroke="#666666" stroke-width="0.25" d="M-17.106,16.905c-0.306-0.282,0.047-1.166,0.789-1.973l0,0
	c0.741-0.808,1.591-1.234,1.897-0.953l2.718,2.495c0.308,0.282-0.046,1.165-0.788,1.972l0,0c-0.741,0.809-1.591,1.234-1.897,0.955
	L-17.106,16.905z"/>
<path fill="#FFFFFF" stroke="#666666" stroke-width="0.25" d="M-24.626,13.891c0.281-0.306,1.164,0.046,1.972,0.788l0,0
	c0.808,0.742,1.235,1.592,0.954,1.898l-2.496,2.719c-0.281,0.307-1.165-0.047-1.973-0.789l0,0c-0.808-0.74-1.233-1.592-0.953-1.896
	L-24.626,13.891z"/>
<path fill="#FFFFFF" stroke="#666666" stroke-width="0.25" d="M-21.786,6.392c0.305,0.283-0.055,1.164-0.803,1.966l0,0
	c-0.748,0.801-1.601,1.222-1.905,0.938l-2.699-2.516c-0.305-0.284,0.055-1.164,0.803-1.966l0,0c0.747-0.802,1.601-1.222,1.905-0.938
	L-21.786,6.392z"/>
<path fill="#FFFFFF" stroke="#666666" stroke-width="0.25" d="M-14.209,9.29c-0.284,0.304-1.164-0.055-1.967-0.803l0,0
	c-0.802-0.748-1.223-1.602-0.938-1.905l2.516-2.699c0.284-0.304,1.164,0.055,1.966,0.803l0,0c0.803,0.748,1.223,1.601,0.939,1.905
	L-14.209,9.29z"/>
<circle fill="#B1F0EB" stroke="#444444" stroke-width="3" cx="-19.433" cy="11.597" r="5.829"/>
<circle fill="#444444" cx="-19.433" cy="11.597" r="10.276"/>
<path fill="#FFFFFF" stroke="#666666" stroke-width="0.25" d="M-17.106,16.905c-0.306-0.282,0.047-1.166,0.789-1.973l0,0
	c0.741-0.808,1.591-1.234,1.897-0.953l2.718,2.495c0.308,0.282-0.046,1.165-0.788,1.972l0,0c-0.741,0.809-1.591,1.234-1.897,0.955
	L-17.106,16.905z"/>
<path fill="#FFFFFF" stroke="#666666" stroke-width="0.25" d="M-24.626,13.891c0.281-0.306,1.164,0.046,1.972,0.788l0,0
	c0.808,0.742,1.235,1.592,0.954,1.898l-2.496,2.719c-0.281,0.307-1.165-0.047-1.973-0.789l0,0c-0.808-0.74-1.233-1.592-0.953-1.896
	L-24.626,13.891z"/>
<path fill="#FFFFFF" stroke="#666666" stroke-width="0.25" d="M-21.786,6.392c0.305,0.283-0.055,1.164-0.803,1.966l0,0
	c-0.748,0.801-1.601,1.222-1.905,0.938l-2.699-2.516c-0.305-0.284,0.055-1.164,0.803-1.966l0,0c0.747-0.802,1.601-1.222,1.905-0.938
	L-21.786,6.392z"/>
<path fill="#FFFFFF" stroke="#666666" stroke-width="0.25" d="M-14.209,9.29c-0.284,0.304-1.164-0.055-1.967-0.803l0,0
	c-0.802-0.748-1.223-1.602-0.938-1.905l2.516-2.699c0.284-0.304,1.164,0.055,1.966,0.803l0,0c0.803,0.748,1.223,1.601,0.939,1.905
	L-14.209,9.29z"/>
<circle fill="#B1F0EB" stroke="#444444" stroke-width="3" cx="-19.433" cy="11.597" r="5.829"/>
<rect x="62" y="33.167" fill="none" width="16.333" height="18"/>
<text transform="matrix(1 0 0 1 61.999 41.687)" fill="#FFFFFF" font-family="'MyriadPro-Regular'" font-size="12">x</text>
<rect x="62" y="5.768" fill="none" width="16.333" height="18"/>
<text transform="matrix(1 0 0 1 61.999 14.2881)" fill="#FFFFFF" font-family="'MyriadPro-Regular'" font-size="12">x</text>
</svg>
