<?xml version="1.0" encoding="utf-8"?>
<!-- Generator: Adobe Illustrator 16.0.0, SVG Export Plug-In . SVG Version: 6.00 Build 0)  -->
<!DOCTYPE svg PUBLIC "-//W3C//DTD SVG 1.1//EN" "http://www.w3.org/Graphics/SVG/1.1/DTD/svg11.dtd">
<svg version="1.1" id="Layer_1" xmlns="http://www.w3.org/2000/svg" xmlns:xlink="http://www.w3.org/1999/xlink" x="0px" y="0px"
	 width="940px" height="792px" viewBox="0 0 940 792" enable-background="new 0 0 940 792" xml:space="preserve">
<g>
	<defs>
		<rect id="SVGID_1_" x="212.542" y="165.47" width="572.416" height="150.27"/>
	</defs>
	<clipPath id="SVGID_2_">
		<use xlink:href="#SVGID_1_"  overflow="visible"/>
	</clipPath>
	<g clip-path="url(#SVGID_2_)">
		<text transform="matrix(1 0 0 1 433.6758 227.4976)" fill="#454545" font-family="'UniversLT'" font-size="16.8104">APPS</text>
	</g>
	<g clip-path="url(#SVGID_2_)">
		<text transform="matrix(1 0 0 1 241.585 227.9692)" fill="#454545" font-family="'Lato-Regular'" font-size="16.8104">DESIGN</text>
	</g>
	<g clip-path="url(#SVGID_2_)">
		<text transform="matrix(1 0 0 1 227.6826 304.9585)" font-family="'Lato-Regular'" font-size="16.8104">Digital</text>
	</g>
	<g clip-path="url(#SVGID_2_)">
		<defs>
			<rect id="SVGID_3_" x="212.542" y="165.47" width="572.416" height="150.27"/>
		</defs>
		<clipPath id="SVGID_4_">
			<use xlink:href="#SVGID_3_"  overflow="visible"/>
		</clipPath>
		<g opacity="0.32" clip-path="url(#SVGID_4_)">
			<g>
				<defs>
					<rect id="SVGID_5_" x="266.839" y="277.966" width="93.316" height="37.774"/>
				</defs>
				<clipPath id="SVGID_6_">
					<use xlink:href="#SVGID_5_"  overflow="visible"/>
				</clipPath>
				<g clip-path="url(#SVGID_6_)">
					<text transform="matrix(1 0 0 1 281.9697 304.9458)" font-family="'Lato-Regular'" font-size="16.8104">Print</text>
				</g>
			</g>
		</g>
	</g>
	<g clip-path="url(#SVGID_2_)">
		<text transform="matrix(1 0 0 1 391.5732 304.9458)" font-family="'Lato-Regular'" font-size="16.8104">Facebook</text>
	</g>
	<g clip-path="url(#SVGID_2_)">
		<defs>
			<rect id="SVGID_7_" x="212.542" y="165.47" width="572.416" height="150.27"/>
		</defs>
		<clipPath id="SVGID_8_">
			<use xlink:href="#SVGID_7_"  overflow="visible"/>
		</clipPath>
		<g opacity="0.32" clip-path="url(#SVGID_8_)">
			<g>
				<defs>
					<rect id="SVGID_9_" x="452.776" y="277.966" width="113.446" height="33.69"/>
				</defs>
				<clipPath id="SVGID_10_">
					<use xlink:href="#SVGID_9_"  overflow="visible"/>
				</clipPath>
				<g clip-path="url(#SVGID_10_)">
					<text transform="matrix(1 0 0 1 467.9062 304.9458)" font-family="'Lato-Regular'" font-size="16.8104">Mobile</text>
				</g>
			</g>
		</g>
	</g>
	<g clip-path="url(#SVGID_2_)">
		<text transform="matrix(1 0 0 1 642.3984 227.4976)" fill="#454545" font-family="'UniversLT'" font-size="16.8104">DEV</text>
	</g>
	<g clip-path="url(#SVGID_2_)">
		<defs>
			<rect id="SVGID_11_" x="212.542" y="165.47" width="572.416" height="150.27"/>
		</defs>
		<clipPath id="SVGID_12_">
			<use xlink:href="#SVGID_11_"  overflow="visible"/>
		</clipPath>
		<path clip-path="url(#SVGID_12_)" fill="#EBF6F6" d="M271.396,168.834c-30.775,0-55.811,25.035-55.811,55.809
			c0,30.773,25.036,55.812,55.811,55.812c30.773,0,55.811-25.038,55.811-55.812C327.207,193.87,302.17,168.834,271.396,168.834
			 M271.396,273.855c-27.136,0-49.213-22.077-49.213-49.212c0-27.135,22.077-49.211,49.213-49.211
			c27.135,0,49.212,22.077,49.212,49.211C320.608,251.779,298.532,273.855,271.396,273.855"/>
		<path clip-path="url(#SVGID_12_)" fill="#B7E2E3" d="M320.56,227.459c-1.463,25.83-22.938,46.396-49.128,46.396
			c-27.135,0-49.212-22.077-49.212-49.212c0-27.135,22.077-49.213,49.212-49.213c10.752,0,20.708,3.47,28.811,9.344l1.178-2.039
			l2.138-3.702c-9.09-6.424-20.176-10.202-32.127-10.202c-30.774,0-55.811,25.038-55.811,55.812
			c0,30.772,25.037,55.812,55.811,55.812c29.83,0,54.268-23.525,55.74-52.996H320.56z"/>
	</g>
	<g clip-path="url(#SVGID_2_)">
		<text transform="matrix(1 0 0 1 603.7471 304.9458)" font-family="'Lato-Regular'" font-size="16.8104">HTML</text>
	</g>
	<g clip-path="url(#SVGID_2_)">
		<defs>
			<rect id="SVGID_13_" x="212.542" y="165.47" width="572.416" height="150.27"/>
		</defs>
		<clipPath id="SVGID_14_">
			<use xlink:href="#SVGID_13_"  overflow="visible"/>
		</clipPath>
		<g opacity="0.58" clip-path="url(#SVGID_14_)">
			<g>
				<defs>
					<rect id="SVGID_15_" x="637.872" y="277.966" width="113.444" height="33.69"/>
				</defs>
				<clipPath id="SVGID_16_">
					<use xlink:href="#SVGID_15_"  overflow="visible"/>
				</clipPath>
				<g clip-path="url(#SVGID_16_)">
					<text transform="matrix(1 0 0 1 652.999 304.9458)" font-family="'Lato-Regular'" font-size="16.8104">CSS</text>
				</g>
			</g>
		</g>
		<g opacity="0.32" clip-path="url(#SVGID_14_)">
			<g>
				<defs>
					<rect id="SVGID_17_" x="671.508" y="277.966" width="113.449" height="33.69"/>
				</defs>
				<clipPath id="SVGID_18_">
					<use xlink:href="#SVGID_17_"  overflow="visible"/>
				</clipPath>
				<g clip-path="url(#SVGID_18_)">
					<text transform="matrix(1 0 0 1 686.6396 304.9458)" font-family="'Lato-Regular'" font-size="16.8104">Jquery</text>
				</g>
			</g>
		</g>
		<path clip-path="url(#SVGID_14_)" fill="#EEF8F7" d="M660.033,270.178c-27.054,0-49.062-22.01-49.062-49.064
			c0-27.052,22.008-49.063,49.062-49.063c27.056,0,49.066,22.012,49.066,49.063C709.1,248.168,687.089,270.178,660.033,270.178
			 M660.033,165.47c-30.682,0-55.643,24.963-55.643,55.644c0,30.682,24.961,55.644,55.643,55.644
			c30.683,0,55.646-24.961,55.646-55.644C715.68,190.433,690.716,165.47,660.033,165.47"/>
		<path clip-path="url(#SVGID_14_)" fill="#D3EDED" d="M635.034,178.92c7.326-4.356,15.875-6.87,24.999-6.87
			c27.056,0,49.066,22.012,49.066,49.063c0,5.672-0.979,11.116-2.758,16.188l6.188,2.243c2.033-5.773,3.149-11.973,3.149-18.432
			c0-30.681-24.961-55.644-55.646-55.644c-10.418,0-20.17,2.885-28.516,7.887L635.034,178.92z"/>
		<path clip-path="url(#SVGID_14_)" fill="#B7E2E3" d="M659.183,270.157c-26.659-0.458-48.211-22.274-48.211-49.043
			c0-19.941,11.964-37.129,29.086-44.795l-2.575-6.054c-19.474,8.671-33.092,28.194-33.092,50.85
			c0,30.396,24.5,55.165,54.792,55.623V270.157z"/>
		<path clip-path="url(#SVGID_14_)" fill="#B7E2E3" d="M455.956,274.213c-27.055,0-49.064-22.014-49.064-49.067
			c0-27.051,22.009-49.062,49.064-49.062c27.054,0,49.063,22.011,49.063,49.062C505.02,252.199,483.01,274.213,455.956,274.213
			 M455.956,169.504c-30.683,0-55.643,24.963-55.643,55.642c0,30.682,24.959,55.647,55.643,55.647
			c30.683,0,55.645-24.965,55.645-55.647C511.601,194.467,486.639,169.504,455.956,169.504"/>
		<path clip-path="url(#SVGID_14_)" fill="#B7E2E3" d="M455.956,274.213c-27.055,0-49.064-22.014-49.064-49.067
			c0-27.051,22.009-49.062,49.064-49.062c27.054,0,49.063,22.011,49.063,49.062C505.02,252.199,483.01,274.213,455.956,274.213
			 M455.956,169.504c-30.683,0-55.643,24.963-55.643,55.642c0,30.682,24.959,55.647,55.643,55.647
			c30.683,0,55.645-24.965,55.645-55.647C511.601,194.467,486.639,169.504,455.956,169.504"/>
		<path clip-path="url(#SVGID_14_)" fill="#EBF6F6" d="M511.601,225.146c0-22.96-13.981-42.715-33.877-51.204l-2.574,6.055
			c17.544,7.488,29.872,24.906,29.872,45.149c0,17.938-9.682,33.652-24.088,42.208l3.426,5.616
			C500.656,263.253,511.601,245.457,511.601,225.146"/>
	</g>
</g>
<g>
	<defs>
		<rect id="SVGID_19_" x="210.266" y="412.697" width="556.566" height="323.303"/>
	</defs>
	<clipPath id="SVGID_20_">
		<use xlink:href="#SVGID_19_"  overflow="visible"/>
	</clipPath>
	<polygon clip-path="url(#SVGID_20_)" fill="#B7E2E3" points="669.39,491.647 732.559,536.964 631.33,536.964 	"/>
	<g clip-path="url(#SVGID_20_)">
		<defs>
			<rect id="SVGID_21_" x="210.266" y="412.697" width="556.566" height="323.303"/>
		</defs>
		<clipPath id="SVGID_22_">
			<use xlink:href="#SVGID_21_"  overflow="visible"/>
		</clipPath>
		<g opacity="0.32" clip-path="url(#SVGID_22_)">
			<g>
				<defs>
					<rect id="SVGID_23_" x="616.201" y="478.2" width="131.484" height="60.445"/>
				</defs>
				<clipPath id="SVGID_24_">
					<use xlink:href="#SVGID_23_"  overflow="visible"/>
				</clipPath>
				<polygon clip-path="url(#SVGID_24_)" fill="#B7E2E3" points="669.39,491.647 693.808,536.964 631.33,536.964 732.559,536.964 
									"/>
			</g>
		</g>
	</g>
	<polygon clip-path="url(#SVGID_20_)" fill="#B7E2E3" points="669.39,491.647 693.808,536.964 603.169,536.964 	"/>
	<polygon clip-path="url(#SVGID_20_)" fill="#B7E2E3" points="512.932,536.964 592.431,454.19 688.305,536.964 	"/>
	<g clip-path="url(#SVGID_20_)">
		<defs>
			<rect id="SVGID_25_" x="210.266" y="412.697" width="556.566" height="323.303"/>
		</defs>
		<clipPath id="SVGID_26_">
			<use xlink:href="#SVGID_25_"  overflow="visible"/>
		</clipPath>
		<g opacity="0.32" clip-path="url(#SVGID_26_)">
			<g>
				<defs>
					<rect id="SVGID_27_" x="497.802" y="440.74" width="205.633" height="97.905"/>
				</defs>
				<clipPath id="SVGID_28_">
					<use xlink:href="#SVGID_27_"  overflow="visible"/>
				</clipPath>
				<polygon clip-path="url(#SVGID_28_)" fill="#B7E2E3" points="592.43,454.19 658.586,536.966 512.93,536.966 688.305,536.966 
					650.66,504.464 				"/>
			</g>
		</g>
	</g>
	<polygon clip-path="url(#SVGID_20_)" fill="#DAEFEF" points="501.556,536.964 592.43,454.19 658.586,536.964 	"/>
	<polygon clip-path="url(#SVGID_20_)" fill="#B7E2E3" points="460.759,536.964 542.39,481.82 612.245,536.964 	"/>
	<g clip-path="url(#SVGID_20_)">
		<defs>
			<rect id="SVGID_29_" x="210.266" y="412.697" width="556.566" height="323.303"/>
		</defs>
		<clipPath id="SVGID_30_">
			<use xlink:href="#SVGID_29_"  overflow="visible"/>
		</clipPath>
		<g opacity="0.32" clip-path="url(#SVGID_30_)">
			<g>
				<defs>
					<rect id="SVGID_31_" x="445.63" y="468.371" width="181.746" height="70.274"/>
				</defs>
				<clipPath id="SVGID_32_">
					<use xlink:href="#SVGID_31_"  overflow="visible"/>
				</clipPath>
				<polygon clip-path="url(#SVGID_32_)" fill="#B7E2E3" points="542.39,481.82 590.483,536.964 460.76,536.964 612.245,536.964 
					552.944,490.151 				"/>
			</g>
		</g>
	</g>
	<polygon clip-path="url(#SVGID_20_)" fill="#B7E2E3" points="454.841,536.964 542.39,481.82 590.481,536.964 	"/>
	<polygon clip-path="url(#SVGID_20_)" fill="#B7E2E3" points="468.56,469.863 575.505,536.966 379.503,536.966 	"/>
	<g clip-path="url(#SVGID_20_)">
		<defs>
			<rect id="SVGID_33_" x="210.266" y="412.697" width="556.566" height="323.303"/>
		</defs>
		<clipPath id="SVGID_34_">
			<use xlink:href="#SVGID_33_"  overflow="visible"/>
		</clipPath>
		<g opacity="0.32" clip-path="url(#SVGID_34_)">
			<g>
				<defs>
					<rect id="SVGID_35_" x="364.374" y="456.414" width="226.261" height="82.231"/>
				</defs>
				<clipPath id="SVGID_36_">
					<use xlink:href="#SVGID_35_"  overflow="visible"/>
				</clipPath>
				<polygon clip-path="url(#SVGID_36_)" fill="#B7E2E3" points="468.56,469.863 554.998,536.966 379.503,536.966 575.505,536.966 
					515.058,499.035 				"/>
			</g>
		</g>
		<g opacity="0.32" clip-path="url(#SVGID_34_)">
			<g>
				<defs>
					<rect id="SVGID_37_" x="364.374" y="456.414" width="205.756" height="82.231"/>
				</defs>
				<clipPath id="SVGID_38_">
					<use xlink:href="#SVGID_37_"  overflow="visible"/>
				</clipPath>
				<polygon clip-path="url(#SVGID_38_)" fill="#DDF1F1" points="468.56,469.863 554.998,536.966 379.503,536.966 				"/>
			</g>
		</g>
	</g>
	<polygon clip-path="url(#SVGID_20_)" fill="#B7E2E3" points="293.309,536.964 374.585,471.457 471.162,536.964 	"/>
	<g clip-path="url(#SVGID_20_)">
		<defs>
			<rect id="SVGID_39_" x="210.266" y="412.697" width="556.566" height="323.303"/>
		</defs>
		<clipPath id="SVGID_40_">
			<use xlink:href="#SVGID_39_"  overflow="visible"/>
		</clipPath>
		<g opacity="0.32" clip-path="url(#SVGID_40_)">
			<g>
				<defs>
					<rect id="SVGID_41_" x="278.18" y="458.01" width="208.111" height="80.636"/>
				</defs>
				<clipPath id="SVGID_42_">
					<use xlink:href="#SVGID_41_"  overflow="visible"/>
				</clipPath>
				<polygon clip-path="url(#SVGID_42_)" fill="#B7E2E3" points="374.585,471.457 443.021,536.964 293.309,536.964 471.162,536.964 
					432.119,510.48 422.926,504.245 				"/>
			</g>
		</g>
	</g>
	<polygon clip-path="url(#SVGID_20_)" fill="#B7E2E3" points="293.309,536.964 374.585,471.457 443.021,536.964 	"/>
	<polygon clip-path="url(#SVGID_20_)" fill="#B7E2E3" points="225.396,536.964 300.813,488.904 359.724,536.964 	"/>
	<g clip-path="url(#SVGID_20_)">
		<defs>
			<rect id="SVGID_43_" x="210.266" y="412.697" width="556.566" height="323.303"/>
		</defs>
		<clipPath id="SVGID_44_">
			<use xlink:href="#SVGID_43_"  overflow="visible"/>
		</clipPath>
		<g opacity="0.32" clip-path="url(#SVGID_44_)">
			<g>
				<defs>
					<rect id="SVGID_45_" x="210.266" y="475.455" width="164.587" height="63.19"/>
				</defs>
				<clipPath id="SVGID_46_">
					<use xlink:href="#SVGID_45_"  overflow="visible"/>
				</clipPath>
				<polygon clip-path="url(#SVGID_46_)" fill="#B7E2E3" points="300.814,488.904 225.396,536.964 359.724,536.964 326.719,510.037 
									"/>
			</g>
		</g>
	</g>
	<polygon clip-path="url(#SVGID_20_)" fill="#B7E2E3" points="225.396,536.964 300.813,488.904 327.079,536.964 	"/>
	<g clip-path="url(#SVGID_20_)">
		<defs>
			<rect id="SVGID_47_" x="210.266" y="412.697" width="556.566" height="323.303"/>
		</defs>
		<clipPath id="SVGID_48_">
			<use xlink:href="#SVGID_47_"  overflow="visible"/>
		</clipPath>
		<path clip-path="url(#SVGID_48_)" fill="#CDD0D4" d="M299.502,482.499c6.128,0,11.095-4.967,11.095-11.096
			c0-6.125-4.967-11.094-11.095-11.094c-6.127,0-11.095,4.969-11.095,11.094C288.407,477.532,293.375,482.499,299.502,482.499"/>
	</g>
	<g clip-path="url(#SVGID_20_)">
		<text transform="matrix(1 0 0 1 294.3252 476.666)" fill="#FFFFFF" font-family="'Lato-Light'" font-size="16.8104">1</text>
	</g>
	<g clip-path="url(#SVGID_20_)">
		<defs>
			<rect id="SVGID_49_" x="210.266" y="412.697" width="556.566" height="323.303"/>
		</defs>
		<clipPath id="SVGID_50_">
			<use xlink:href="#SVGID_49_"  overflow="visible"/>
		</clipPath>
		<path clip-path="url(#SVGID_50_)" fill="#CDD0D4" d="M469.758,462.931c6.127,0,11.096-4.967,11.096-11.095
			c0-6.127-4.969-11.096-11.096-11.096c-6.128,0-11.095,4.969-11.095,11.096C458.663,457.964,463.63,462.931,469.758,462.931"/>
	</g>
	<g clip-path="url(#SVGID_20_)">
		<text transform="matrix(1 0 0 1 464.5811 457.0977)" fill="#FFFFFF" font-family="'Lato-Light'" font-size="16.8104">3</text>
	</g>
	<g clip-path="url(#SVGID_20_)">
		<text transform="matrix(1 0 0 1 225.4033 576.3848)"><tspan x="0" y="0" fill="#454545" font-family="'Lato-Regular'" font-size="16.8104">1 </tspan><tspan x="13.162" y="0" fill="#454545" font-family="'Lato-Regular'" font-size="16.8104"> </tspan><tspan x="16.474" y="0" fill="#454545" font-family="'Lato-Regular'" font-size="16.8104">B</tspan><tspan x="27.434" y="0" fill="#454545" font-family="'Lato-Regular'" font-size="16.8104">u</tspan><tspan x="36.848" y="0" fill="#454545" font-family="'Lato-Regular'" font-size="16.8104">i</tspan><tspan x="41.235" y="0" fill="#454545" font-family="'Lato-Regular'" font-size="16.8104">l</tspan><tspan x="45.606" y="0" fill="#454545" font-family="'Lato-Regular'" font-size="16.8104">d</tspan><tspan x="55.087" y="0" fill="#454545" font-family="'Lato-Regular'" font-size="16.8104">i</tspan><tspan x="59.458" y="0" fill="#454545" font-family="'Lato-Regular'" font-size="16.8104">ng:</tspan><tspan x="81.882" y="0" fill="#454545" font-family="'Lato-Regular'" font-size="16.8104"> </tspan><tspan x="85.194" y="0" fill="#454545" font-family="'Lato-Regular'" font-size="16.8104">di</tspan><tspan x="99.062" y="0" fill="#454545" font-family="'Lato-Regular'" font-size="16.8104" letter-spacing="-1">y</tspan><tspan x="106.644" y="0" fill="#454545" font-family="'Lato-Regular'" font-size="16.8104">,</tspan><tspan x="110.291" y="0" fill="#454545" font-family="'Lato-Regular'" font-size="16.8104"> </tspan><tspan x="113.603" y="0" fill="#454545" font-family="'Lato-Regular'" font-size="16.8104">fu</tspan><tspan x="128.782" y="0" fill="#454545" font-family="'Lato-Regular'" font-size="16.8104">r</tspan><tspan x="135.624" y="0" fill="#454545" font-family="'Lato-Regular'" font-size="16.8104">niture, rec</tspan><tspan x="211.64" y="0" fill="#454545" font-family="'Lato-Regular'" font-size="16.8104">y</tspan><tspan x="220.112" y="0" fill="#454545" font-family="'Lato-Regular'" font-size="16.8104">cling st</tspan><tspan x="271.987" y="0" fill="#454545" font-family="'Lato-Regular'" font-size="16.8104">u</tspan><tspan x="281.401" y="0" fill="#454545" font-family="'Lato-Regular'" font-size="16.8104">f</tspan><tspan x="287.15" y="0" fill="#454545" font-family="'Lato-Regular'" font-size="16.8104">f</tspan></text>
	</g>
	<g clip-path="url(#SVGID_20_)">
		<text transform="matrix(1 0 0 1 225.4033 601.5996)"><tspan x="0" y="0" fill="#454545" font-family="'Lato-Regular'" font-size="16.8104">2 </tspan><tspan x="13.162" y="0" fill="#454545" font-family="'Lato-Regular'" font-size="16.8104"> </tspan><tspan x="16.474" y="0" fill="#454545" font-family="'Lato-Regular'" font-size="16.8104">Usual</tspan><tspan x="58.634" y="0" fill="#454545" font-family="'Lato-Regular'" font-size="16.8104">:</tspan><tspan x="62.937" y="0" fill="#454545" font-family="'Lato-Regular'" font-size="16.8104"> </tspan><tspan x="66.266" y="0" fill="#454545" font-family="'Lato-Regular'" font-size="16.8104">m</tspan><tspan x="80.134" y="0" fill="#454545" font-family="'Lato-Regular'" font-size="16.8104">o</tspan><tspan x="89.363" y="0" fill="#454545" font-family="'Lato-Regular'" font-size="16.8104">v</tspan><tspan x="98.054" y="0" fill="#454545" font-family="'Lato-Regular'" font-size="16.8104">i</tspan><tspan x="102.424" y="0" fill="#454545" font-family="'Lato-Regular'" font-size="16.8104">es, </tspan><tspan x="125.672" y="0" fill="#454545" font-family="'Lato-Regular'" font-size="16.8104">m</tspan><tspan x="139.541" y="0" fill="#454545" font-family="'Lato-Regular'" font-size="16.8104">us</tspan><tspan x="156.352" y="0" fill="#454545" font-family="'Lato-Regular'" font-size="16.8104">i</tspan><tspan x="160.722" y="0" fill="#454545" font-family="'Lato-Regular'" font-size="16.8104">c, f</tspan><tspan x="181.381" y="0" fill="#454545" font-family="'Lato-Regular'" font-size="16.8104">oo</tspan><tspan x="200.209" y="0" fill="#454545" font-family="'Lato-Regular'" font-size="16.8104">d, t</tspan><tspan x="223.02" y="0" fill="#454545" font-family="'Lato-Regular'" font-size="16.8104">r</tspan><tspan x="229.576" y="0" fill="#454545" font-family="'Lato-Regular'" font-size="16.8104">a</tspan><tspan x="237.931" y="0" fill="#454545" font-family="'Lato-Regular'" font-size="16.8104">v</tspan><tspan x="246.403" y="0" fill="#454545" font-family="'Lato-Regular'" font-size="16.8104">elling,</tspan><tspan x="290.21" y="0" fill="#454545" font-family="'Lato-Regular'" font-size="16.8104"> </tspan><tspan x="293.521" y="0" fill="#454545" font-family="'Lato-Regular'" font-size="16.8104">do</tspan><tspan x="312.434" y="0" fill="#454545" font-family="'Lato-Regular'" font-size="16.8104">o</tspan><tspan x="321.847" y="0" fill="#454545" font-family="'Lato-Regular'" font-size="16.8104">dl</tspan><tspan x="335.716" y="0" fill="#454545" font-family="'Lato-Regular'" font-size="16.8104">in</tspan><tspan x="349.5" y="0" fill="#454545" font-family="'Lato-Regular'" font-size="16.8104">g, </tspan><tspan x="365.15" y="0" fill="#454545" font-family="'Lato-Regular'" font-size="16.8104">r</tspan><tspan x="371.992" y="0" fill="#454545" font-family="'Lato-Regular'" font-size="16.8104">ead</tspan><tspan x="398.972" y="0" fill="#454545" font-family="'Lato-Regular'" font-size="16.8104">in</tspan><tspan x="412.756" y="0" fill="#454545" font-family="'Lato-Regular'" font-size="16.8104">g,</tspan><tspan x="425.078" y="0" fill="#454545" font-family="'Lato-Regular'" font-size="16.8104"> </tspan><tspan x="428.39" y="0" fill="#454545" font-family="'Lato-Regular'" font-size="16.8104">w</tspan><tspan x="441.351" y="0" fill="#454545" font-family="'Lato-Regular'" font-size="16.8104">ri</tspan><tspan x="452.562" y="0" fill="#454545" font-family="'Lato-Regular'" font-size="16.8104">t</tspan><tspan x="458.917" y="0" fill="#454545" font-family="'Lato-Regular'" font-size="16.8104">in</tspan><tspan x="472.701" y="0" fill="#454545" font-family="'Lato-Regular'" font-size="16.8104">g</tspan></text>
	</g>
	<g clip-path="url(#SVGID_20_)">
		<text transform="matrix(1 0 0 1 225.4033 626.8154)"><tspan x="0" y="0" fill="#454545" font-family="'Lato-Regular'" font-size="16.8104">3 </tspan><tspan x="13.162" y="0" fill="#454545" font-family="'Lato-Regular'" font-size="16.8104"> </tspan><tspan x="16.474" y="0" fill="#454545" font-family="'Lato-Regular'" font-size="16.8104">Spo</tspan><tspan x="44.261" y="0" fill="#454545" font-family="'Lato-Regular'" font-size="16.8104">r</tspan><tspan x="51.103" y="0" fill="#454545" font-family="'Lato-Regular'" font-size="16.8104">t</tspan><tspan x="57.457" y="0" fill="#454545" font-family="'Lato-Regular'" font-size="16.8104">:</tspan><tspan x="61.76" y="0" fill="#454545" font-family="'Lato-Regular'" font-size="16.8104"> </tspan><tspan x="65.089" y="0" fill="#454545" font-family="'Lato-Regular'" font-size="16.8104">c</tspan><tspan x="73.006" y="0" fill="#454545" font-family="'Lato-Regular'" font-size="16.8104">y</tspan><tspan x="81.496" y="0" fill="#454545" font-family="'Lato-Regular'" font-size="16.8104">c</tspan><tspan x="89.43" y="0" fill="#454545" font-family="'Lato-Regular'" font-size="16.8104">l</tspan><tspan x="93.801" y="0" fill="#454545" font-family="'Lato-Regular'" font-size="16.8104">ing,</tspan><tspan x="119.94" y="0" fill="#454545" font-family="'Lato-Regular'" font-size="16.8104"> </tspan><tspan x="123.252" y="0" fill="#454545" font-family="'Lato-Regular'" font-size="16.8104">fo</tspan><tspan x="138.432" y="0" fill="#454545" font-family="'Lato-Regular'" font-size="16.8104">o</tspan><tspan x="147.845" y="0" fill="#454545" font-family="'Lato-Regular'" font-size="16.8104">tbal</tspan><tspan x="176.674" y="0" fill="#454545" font-family="'Lato-Regular'" font-size="16.8104">l</tspan><tspan x="181.045" y="0" fill="#454545" font-family="'Lato-Regular'" font-size="16.8104">, </tspan><tspan x="188.021" y="0" fill="#454545" font-family="'Lato-Regular'" font-size="16.8104">e</tspan><tspan x="196.426" y="0" fill="#454545" font-family="'Lato-Regular'" font-size="16.8104">x</tspan><tspan x="204.966" y="0" fill="#454545" font-family="'Lato-Regular'" font-size="16.8104">t</tspan><tspan x="211.32" y="0" fill="#454545" font-family="'Lato-Regular'" font-size="16.8104">r</tspan><tspan x="218.162" y="0" fill="#454545" font-family="'Lato-Regular'" font-size="16.8104">eme, pa</tspan><tspan x="274.778" y="0" fill="#454545" font-family="'Lato-Regular'" font-size="16.8104">r</tspan><tspan x="281.62" y="0" fill="#454545" font-family="'Lato-Regular'" font-size="16.8104">k</tspan><tspan x="290.024" y="0" fill="#454545" font-family="'Lato-Regular'" font-size="16.8104">o</tspan><tspan x="299.438" y="0" fill="#454545" font-family="'Lato-Regular'" font-size="16.8104">u</tspan><tspan x="308.869" y="0" fill="#454545" font-family="'Lato-Regular'" font-size="16.8104">r </tspan><tspan x="319.022" y="0" fill="#454545" font-family="'Lato-Regular'" font-size="16.8104">(aka</tspan><tspan x="350.255" y="0" fill="#454545" font-family="'Lato-Regular'" font-size="16.8104"> </tspan><tspan x="353.566" y="0" fill="#454545" font-family="'Lato-Regular'" font-size="16.8104">fa</tspan><tspan x="367.923" y="0" fill="#454545" font-family="'Lato-Regular'" font-size="16.8104">l</tspan><tspan x="372.293" y="0" fill="#454545" font-family="'Lato-Regular'" font-size="16.8104">l</tspan><tspan x="376.681" y="0" fill="#454545" font-family="'Lato-Regular'" font-size="16.8104">in</tspan><tspan x="390.465" y="0" fill="#454545" font-family="'Lato-Regular'" font-size="16.8104">g</tspan><tspan x="399.139" y="0" fill="#454545" font-family="'Lato-Regular'" font-size="16.8104">)</tspan></text>
	</g>
	<g clip-path="url(#SVGID_20_)">
		<text transform="matrix(1 0 0 1 629.9277 626.8154)"><tspan x="0" y="0" fill="#454545" font-family="'Lato-Regular'" font-size="16.8104">, </tspan><tspan x="6.976" y="0" fill="#454545" font-family="'Lato-Regular'" font-size="16.8104">W</tspan><tspan x="24.173" y="0" fill="#454545" font-family="'Lato-Regular'" font-size="16.8104">W</tspan><tspan x="41.387" y="0" fill="#454545" font-family="'Lato-Regular'" font-size="16.8104">E </tspan><tspan x="54.532" y="0" fill="#454545" font-family="'Lato-Regular'" font-size="16.8104">&amp;</tspan><tspan x="66.434" y="0" fill="#454545" font-family="'Lato-Regular'" font-size="16.8104"> </tspan><tspan x="69.745" y="0" fill="#454545" font-family="'Lato-Regular'" font-size="16.8104">U</tspan><tspan x="82.101" y="0" fill="#454545" font-family="'Lato-Regular'" font-size="16.8104">F</tspan><tspan x="91.683" y="0" fill="#454545" font-family="'Lato-Regular'" font-size="16.8104">C</tspan></text>
	</g>
	<g clip-path="url(#SVGID_20_)">
		<defs>
			<rect id="SVGID_51_" x="210.266" y="412.697" width="556.566" height="323.303"/>
		</defs>
		<clipPath id="SVGID_52_">
			<use xlink:href="#SVGID_51_"  overflow="visible"/>
		</clipPath>
		<path clip-path="url(#SVGID_52_)" fill="#CDD0D4" d="M592.046,445.512c6.126,0,11.095-4.969,11.095-11.096
			s-4.969-11.094-11.095-11.094c-6.128,0-11.094,4.967-11.094,11.094S585.918,445.512,592.046,445.512"/>
	</g>
	<g clip-path="url(#SVGID_20_)">
		<text transform="matrix(1 0 0 1 586.8701 439.6768)" fill="#FFFFFF" font-family="'Lato-Light'" font-size="16.8104">2</text>
	</g>
</g>
<text transform="matrix(1 0 0 1 424.9712 115.6958)" fill="#666766" font-family="'MyriadPro-Regular'" font-size="20.1725">SKILLS</text>
<text transform="matrix(1 0 0 1 414.6099 384.6616)" fill="#666766" font-family="'MyriadPro-Regular'" font-size="20.1725">INTERESTS</text>
</svg>
